{
.appVersion = "3310";
copyright = "Copyright 2010 Google Inc. All Rights Reserved.";
customParameters = (
{
name = glyphOrder;
value = (
.notdef,
null,
nonmarkingreturn,
space,
exclam,
quotedbl,
numbersign,
dollar,
percent,
ampersand,
quotesingle,
parenleft,
parenright,
asterisk,
plus,
comma,
hyphen,
period,
slash,
zero,
one,
two,
three,
four,
five,
six,
seven,
eight,
nine,
colon,
semicolon,
less,
equal,
greater,
question,
at,
A,
B,
C,
D,
E,
F,
G,
H,
I,
J,
K,
L,
M,
N,
O,
P,
Q,
R,
S,
T,
U,
V,
W,
X,
Y,
Z,
bracketleft,
backslash,
bracketright,
asciicircum,
underscore,
grave,
a,
b,
c,
d,
e,
f,
g,
h,
i,
j,
k,
l,
m,
n,
o,
p,
q,
r,
s,
t,
u,
v,
w,
x,
y,
z,
braceleft,
bar,
braceright,
asciitilde,
Adieresis,
Aring,
Ccedilla,
Eacute,
Ntilde,
Odieresis,
Udieresis,
aacute,
agrave,
acircumflex,
adieresis,
atilde,
aring,
ccedilla,
eacute,
egrave,
ecircumflex,
edieresis,
iacute,
igrave,
icircumflex,
idieresis,
ntilde,
oacute,
ograve,
ocircumflex,
odieresis,
otilde,
uacute,
ugrave,
ucircumflex,
udieresis,
dagger,
degree,
cent,
sterling,
section,
bullet,
paragraph,
germandbls,
registered,
copyright,
trademark,
acute,
dieresis,
notequal,
AE,
Oslash,
infinity,
plusminus,
lessequal,
greaterequal,
yen,
uni00B5,
partialdiff,
summation,
product,
integral,
ordfeminine,
ordmasculine,
uni2126,
ae,
oslash,
questiondown,
exclamdown,
logicalnot,
radical,
florin,
approxequal,
uni2206,
guillemotleft,
guillemotright,
ellipsis,
Agrave,
Atilde,
Otilde,
OE,
oe,
endash,
emdash,
quotedblleft,
quotedblright,
quoteleft,
quoteright,
divide,
lozenge,
ydieresis,
Ydieresis,
fraction,
Euro,
guilsinglleft,
guilsinglright,
uniFB01,
uniFB02,
daggerdbl,
periodcentered,
quotesinglbase,
quotedblbase,
perthousand,
Acircumflex,
Ecircumflex,
Aacute,
Edieresis,
Egrave,
Iacute,
Icircumflex,
Idieresis,
Igrave,
Oacute,
Ocircumflex,
Ograve,
Uacute,
Ucircumflex,
Ugrave,
dotlessi,
circumflex,
tilde,
uni02C9,
breve,
dotaccent,
ring,
cedilla,
hungarumlaut,
ogonek,
caron,
Lslash,
lslash,
Scaron,
scaron,
Zcaron,
zcaron,

glyphs = (
{
glyphname = .notdef;
lastChange = "2025-02-05 21:35:20 +0000";
layers = (
{
layerId = "1E4AACC9-6A88-4B03-8BB8-E9E25DEE74AF";
paths = (
{
closed = 1;
nodes = (
"234 0 LINE",
"1359 0 LINE",
"1359 1409 LINE",
"234 1409 LINE"
);
},
{
closed = 1;
nodes = (
"1283 1333 LINE",
"1283 76 LINE",
"310 76 LINE",
"310 1333 LINE"
);
}
);
width = 1593;
}
);
note = .notdef;
},
{
glyphname = exclam;
lastChange = "2025-02-05 21:35:20 +0000";
layers = (
{
layerId = "1E4AACC9-6A88-4B03-8BB8-E9E25DEE74AF";
paths = (
{
closed = 1;
nodes = (
"679 1341 LINE",
"380 1341 LINE",
"320 420 LINE",
"415 420 LINE"
);
},
{
closed = 1;
nodes = (
"415 -29 OFFCURVE",
"488 45 OFFCURVE",
"488 137 CURVE SMOOTH",
"488 230 OFFCURVE",
"414 303 OFFCURVE",
"322 303 CURVE SMOOTH",
"229 303 OFFCURVE",
"156 229 OFFCURVE",
"156 137 CURVE SMOOTH",
"156 44 OFFCURVE",
"230 -29 OFFCURVE",
"322 -29 CURVE SMOOTH"
);
}
);
width = 797;
}
);
note = exclam;
unicode = 0021;
},
{
glyphname = quotedbl;
lastChange = "2025-02-05 21:35:20 +0000";
layers = (
{
layerId = "1E4AACC9-6A88-4B03-8BB8-E9E25DEE74AF";
paths = (
{
closed = 1;
nodes = (
"754 860 LINE",
"838 860 LINE",
"1001 1341 LINE",
"763 1341 LINE"
);
},
{
closed = 1;
nodes = (
"368 860 LINE",
"452 860 LINE",
"615 1341 LINE",
"377 1341 LINE"
);
}
);
width = 1137;
}
);
note = quotedbl;
unicode = 0022;
},
{
glyphname = numbersign;
lastChange = "2025-02-05 21:35:20 +0000";
layers = (
{
layerId = "1E4AACC9-6A88-4B03-8BB8-E9E25DEE74AF";
paths = (
{
closed = 1;
nodes = (
"965 411 LINE",
"987 534 LINE",
"762 534 LINE",
"863 821 LINE",
"1037 821 LINE",
"1059 944 LINE",
"907 944 LINE",
"1051 1341 LINE",
"900 1341 LINE",
"756 944 LINE",
"494 944 LINE",
"638 1341 LINE",
"486 1341 LINE",
"343 944 LINE",
"89 944 LINE",
"67 821 LINE",
"298 821 LINE",
"195 534 LINE",
"17 534 LINE",
"-5 411 LINE",
"148 411 LINE",
"0 0 LINE",
"154 0 LINE",
"300 411 LINE",
"562 411 LINE",
"414 0 LINE",
"565 0 LINE",
"713 411 LINE"
);
},
{
closed = 1;
nodes = (
"712 821 LINE",
"608 534 LINE",
"346 534 LINE",
"449 821 LINE"
);
}
);
width = 1024;
}
);
note = numbersign;
unicode = 0023;
},
{
glyphname = dollar;
lastChange = "2025-02-05 21:35:20 +0000";
layers = (
{
layerId = "1E4AACC9-6A88-4B03-8BB8-E9E25DEE74AF";
paths = (
{
closed = 1;
nodes = (
"738 1483 LINE",
"635 1483 LINE",
"611 1355 LINE",
"310 1344 OFFCURVE",
"159 1219 OFFCURVE",
"159 979 CURVE SMOOTH",
"159 863 OFFCURVE",
"204 781 OFFCURVE",
"277 716 CURVE SMOOTH",
"314 683 OFFCURVE",
"377 643 OFFCURVE",
"468 596 CURVE",
"371 81 LINE",
"250 82 OFFCURVE",
"172 133 OFFCURVE",
"129 196 CURVE",
"128 411 LINE",
"40 411 LINE",
"-24 51 LINE",
"85 6 OFFCURVE",
"211 -18 OFFCURVE",
"352 -20 CURVE",
"327 -156 LINE",
"429 -156 LINE",
"455 -16 LINE",
"771 7 OFFCURVE",
"929 154 OFFCURVE",
"929 423 CURVE SMOOTH",
"929 531 OFFCURVE",
"883 611 OFFCURVE",
"811 678 CURVE SMOOTH",
"774 711 OFFCURVE",
"708 755 OFFCURVE",
"611 810 CURVE",
"693 1247 LINE",
"743 1240 OFFCURVE",
"789 1221 OFFCURVE",
"830 1190 CURVE",
"837 994 LINE",
"926 994 LINE",
"982 1313 LINE",
"899 1335 OFFCURVE",
"809 1349 OFFCURVE",
"713 1354 CURVE"
);
},
{
closed = 1;
nodes = (
"685 217 OFFCURVE",
"605 120 OFFCURVE",
"476 91 CURVE",
"563 553 LINE",
"652 492 OFFCURVE",
"685 430 OFFCURVE",
"685 346 CURVE SMOOTH"
);
},
{
closed = 1;
nodes = (
"399 1164 OFFCURVE",
"468 1238 OFFCURVE",
"592 1250 CURVE",
"517 856 LINE",
"448 904 OFFCURVE",
"399 960 OFFCURVE",
"399 1047 CURVE SMOOTH"
);
}
);
width = 1024;
}
);
note = dollar;
unicode = 0024;
},
{
glyphname = percent;
lastChange = "2025-02-05 21:35:20 +0000";
layers = (
{
layerId = "1E4AACC9-6A88-4B03-8BB8-E9E25DEE74AF";
paths = (
{
closed = 1;
nodes = (
"1545 1362 LINE",
"1394 1362 LINE",
"202 -20 LINE",
"352 -20 LINE"
);
},
{
closed = 1;
nodes = (
"801 1276 OFFCURVE",
"707 1362 OFFCURVE",
"528 1362 CURVE SMOOTH",
"284 1362 OFFCURVE",
"132 1173 OFFCURVE",
"132 882 CURVE SMOOTH",
"132 709 OFFCURVE",
"222 623 OFFCURVE",
"401 623 CURVE SMOOTH",
"616 623 OFFCURVE",
"746 747 OFFCURVE",
"790 995 CURVE SMOOTH",
"797 1039 OFFCURVE",
"801 1076 OFFCURVE",
"801 1105 CURVE SMOOTH"
);
},
{
closed = 1;
nodes = (
"323 1075 OFFCURVE",
"408 1268 OFFCURVE",
"518 1268 CURVE SMOOTH",
"582 1268 OFFCURVE",
"606 1215 OFFCURVE",
"606 1115 CURVE SMOOTH",
"606 902 OFFCURVE",
"515 716 OFFCURVE",
"405 716 CURVE SMOOTH",
"350 716 OFFCURVE",
"323 762 OFFCURVE",
"323 853 CURVE SMOOTH"
);
},
{
closed = 1;
nodes = (
"1601 626 OFFCURVE",
"1507 712 OFFCURVE",
"1328 712 CURVE SMOOTH",
"1084 712 OFFCURVE",
"932 523 OFFCURVE",
"932 232 CURVE SMOOTH",
"932 59 OFFCURVE",
"1022 -27 OFFCURVE",
"1201 -27 CURVE SMOOTH",
"1416 -27 OFFCURVE",
"1546 97 OFFCURVE",
"1590 345 CURVE SMOOTH",
"1597 389 OFFCURVE",
"1601 426 OFFCURVE",
"1601 455 CURVE SMOOTH"
);
},
{
closed = 1;
nodes = (
"1123 425 OFFCURVE",
"1208 618 OFFCURVE",
"1318 618 CURVE SMOOTH",
"1382 618 OFFCURVE",
"1406 565 OFFCURVE",
"1406 465 CURVE SMOOTH",
"1406 252 OFFCURVE",
"1315 66 OFFCURVE",
"1205 66 CURVE SMOOTH",
"1150 66 OFFCURVE",
"1123 112 OFFCURVE",
"1123 203 CURVE SMOOTH"
);
}
);
width = 1706;
}
);
note = percent;
unicode = 0025;
},
{
glyphname = ampersand;
lastChange = "2025-02-05 21:35:20 +0000";
layers = (
{
layerId = "1E4AACC9-6A88-4B03-8BB8-E9E25DEE74AF";
paths = (
{
closed = 1;
nodes = (
"1099 1253 OFFCURVE",
"971 1361 OFFCURVE",
"747 1361 CURVE SMOOTH",
"507 1361 OFFCURVE",
"361 1234 OFFCURVE",
"361 1037 CURVE SMOOTH",
"361 938 OFFCURVE",
"390 844 OFFCURVE",
"447 753 CURVE",
"239 680 OFFCURVE",
"154 616 OFFCURVE",
"95 520 CURVE SMOOTH",
"65 471 OFFCURVE",
"50 414 OFFCURVE",
"50 347 CURVE SMOOTH",
"50 107 OFFCURVE",
"212 -20 OFFCURVE",
"515 -20 CURVE SMOOTH",
"688 -20 OFFCURVE",
"823 15 OFFCURVE",
"980 120 CURVE",
"1081 0 LINE",
"1445 0 LINE",
"1456 63 LINE",
"1334 88 LINE",
"1161 282 LINE",
"1268 399 OFFCURVE",
"1371 572 OFFCURVE",
"1432 717 CURVE",
"1557 743 LINE",
"1568 807 LINE",
"1091 807 LINE",
"1080 743 LINE",
"1196 717 LINE",
"1177 620 OFFCURVE",
"1131 515 OFFCURVE",
"1057 401 CURVE",
"745 752 LINE",
"851 794 OFFCURVE",
"925 830 OFFCURVE",
"967 859 CURVE SMOOTH",
"1050 918 OFFCURVE",
"1099 993 OFFCURVE",
"1099 1102 CURVE SMOOTH"
);
},
{
closed = 1;
nodes = (
"886 228 LINE",
"791 148 OFFCURVE",
"678 108 OFFCURVE",
"547 108 CURVE SMOOTH",
"407 108 OFFCURVE",
"316 204 OFFCURVE",
"316 356 CURVE SMOOTH",
"316 453 OFFCURVE",
"345 523 OFFCURVE",
"394 575 CURVE SMOOTH",
"419 601 OFFCURVE",
"460 629 OFFCURVE",
"517 658 CURVE"
);
},
{
closed = 1;
nodes = (
"595 1190 OFFCURVE",
"648 1264 OFFCURVE",
"747 1264 CURVE SMOOTH",
"823 1264 OFFCURVE",
"879 1200 OFFCURVE",
"879 1088 CURVE SMOOTH",
"879 985 OFFCURVE",
"831 915 OFFCURVE",
"675 843 CURVE",
"622 920 OFFCURVE",
"595 996 OFFCURVE",
"595 1071 CURVE SMOOTH"
);
}
);
width = 1593;
}
);
note = ampersand;
unicode = 0026;
},
{
glyphname = quotesingle;
lastChange = "2025-02-05 21:35:20 +0000";
layers = (
{
layerId = "1E4AACC9-6A88-4B03-8BB8-E9E25DEE74AF";
paths = (
{
closed = 1;
nodes = (
"282 860 LINE",
"366 860 LINE",
"529 1341 LINE",
"291 1341 LINE"
);
}
);
width = 569;
}
);
note = quotesingle;
unicode = 0027;
},
{
glyphname = parenleft;
lastChange = "2025-02-05 21:35:20 +0000";
layers = (
{
layerId = "1E4AACC9-6A88-4B03-8BB8-E9E25DEE74AF";
paths = (
{
closed = 1;
nodes = (
"339 377 OFFCURVE",
"425 806 OFFCURVE",
"553 1035 CURVE SMOOTH",
"616 1150 OFFCURVE",
"693 1237 OFFCURVE",
"783 1297 CURVE",
"805 1421 LINE",
"529 1288 OFFCURVE",
"376 1152 OFFCURVE",
"270 954 CURVE SMOOTH",
"164 756 OFFCURVE",
"101 443 OFFCURVE",
"101 218 CURVE SMOOTH",
"101 -85 OFFCURVE",
"217 -285 OFFCURVE",
"478 -436 CURVE",
"500 -332 LINE",
"393 -237 OFFCURVE",
"339 -86 OFFCURVE",
"339 120 CURVE SMOOTH"
);
}
);
width = 682;
}
);
note = parenleft;
unicode = 0028;
},
{
glyphname = parenright;
lastChange = "2025-02-05 21:35:20 +0000";
layers = (
{
layerId = "1E4AACC9-6A88-4B03-8BB8-E9E25DEE74AF";
paths = (
{
closed = 1;
nodes = (
"126 -299 OFFCURVE",
"278 -163 OFFCURVE",
"383 37 CURVE SMOOTH",
"488 237 OFFCURVE",
"551 549 OFFCURVE",
"551 769 CURVE SMOOTH",
"551 1069 OFFCURVE",
"441 1264 OFFCURVE",
"173 1421 CURVE",
"155 1317 LINE",
"261 1223 OFFCURVE",
"314 1074 OFFCURVE",
"314 870 CURVE SMOOTH",
"314 605 OFFCURVE",
"224 171 OFFCURVE",
"97 -53 CURVE SMOOTH",
"33 -166 OFFCURVE",
"-43 -252 OFFCURVE",
"-132 -312 CURVE",
"-153 -436 LINE"
);
}
);
width = 682;
}
);
note = parenright;
unicode = 0029;
},
{
glyphname = asterisk;
lastChange = "2025-02-05 21:35:20 +0000";
layers = (
{
layerId = "1E4AACC9-6A88-4B03-8BB8-E9E25DEE74AF";
paths = (
{
closed = 1;
nodes = (
"880 619 LINE",
"1007 812 LINE",
"712 946 LINE",
"1034 984 LINE",
"973 1205 LINE",
"653 1026 LINE",
"775 1328 LINE",
"545 1364 LINE",
"564 1040 LINE",
"317 1315 LINE",
"191 1120 LINE",
"480 983 LINE",
"163 944 LINE",
"223 719 LINE",
"543 907 LINE",
"424 602 LINE",
"654 565 LINE",
"632 889 LINE"
);
}
);
width = 1024;
}
);
note = asterisk;
unicode = 002A;
},
{
glyphname = plus;
lastChange = "2025-02-05 21:35:20 +0000";
layers = (
{
layerId = "1E4AACC9-6A88-4B03-8BB8-E9E25DEE74AF";
paths = (
{
closed = 1;
nodes = (
"1077 608 LINE",
"1077 751 LINE",
"672 751 LINE",
"672 1157 LINE",
"529 1157 LINE",
"529 751 LINE",
"125 751 LINE",
"125 608 LINE",
"529 608 LINE",
"529 203 LINE",
"672 203 LINE",
"672 608 LINE"
);
}
);
width = 1167;
}
);
note = plus;
unicode = 002B;
},
{
glyphname = comma;
lastChange = "2025-02-05 21:35:20 +0000";
layers = (
{
layerId = "1E4AACC9-6A88-4B03-8BB8-E9E25DEE74AF";
paths = (
{
closed = 1;
nodes = (
"343 222 OFFCURVE",
"268 301 OFFCURVE",
"156 301 CURVE SMOOTH",
"64 301 OFFCURVE",
"-3 255 OFFCURVE",
"-3 168 CURVE SMOOTH",
"-3 113 OFFCURVE",
"21 71 OFFCURVE",
"68 42 CURVE SMOOTH",
"123 7 OFFCURVE",
"138 -10 OFFCURVE",
"138 -39 CURVE SMOOTH",
"138 -107 OFFCURVE",
"71 -194 OFFCURVE",
"-44 -225 CURVE",
"-44 -317 LINE",
"208 -252 OFFCURVE",
"343 -103 OFFCURVE",
"343 106 CURVE SMOOTH"
);
}
);
width = 512;
}
);
note = comma;
unicode = 002C;
},
{
glyphname = hyphen;
lastChange = "2025-02-05 21:35:20 +0000";
layers = (
{
layerId = "1E4AACC9-6A88-4B03-8BB8-E9E25DEE74AF";
paths = (
{
closed = 1;
nodes = (
"575 395 LINE",
"608 569 LINE",
"76 569 LINE",
"43 395 LINE"
);
}
);
width = 682;
}
);
note = hyphen;
unicode = "002D,00AD";
},
{
glyphname = period;
lastChange = "2025-02-05 21:35:20 +0000";
layers = (
{
layerId = "1E4AACC9-6A88-4B03-8BB8-E9E25DEE74AF";
paths = (
{
closed = 1;
nodes = (
"274 -29 OFFCURVE",
"347 45 OFFCURVE",
"347 137 CURVE SMOOTH",
"347 230 OFFCURVE",
"273 303 OFFCURVE",
"181 303 CURVE SMOOTH",
"88 303 OFFCURVE",
"15 229 OFFCURVE",
"15 137 CURVE SMOOTH",
"15 44 OFFCURVE",
"89 -29 OFFCURVE",
"181 -29 CURVE SMOOTH"
);
}
);
width = 512;
}
);
note = period;
unicode = 002E;
},
{
glyphname = slash;
lastChange = "2025-02-05 21:35:20 +0000";
layers = (
{
layerId = "1E4AACC9-6A88-4B03-8BB8-E9E25DEE74AF";
paths = (
{
closed = 1;
nodes = (
"726 1349 LINE",
"586 1349 LINE",
"-124 -20 LINE",
"16 -20 LINE"
);
}
);
width = 569;
}
);
note = slash;
unicode = 002F;
},
{
glyphname = zero;
lastChange = "2025-02-05 21:35:20 +0000";
layers = (
{
layerId = "1E4AACC9-6A88-4B03-8BB8-E9E25DEE74AF";
paths = (
{
closed = 1;
nodes = (
"988 1225 OFFCURVE",
"873 1362 OFFCURVE",
"643 1362 CURVE SMOOTH",
"407 1362 OFFCURVE",
"240 1204 OFFCURVE",
"144 879 CURVE SMOOTH",
"95 716 OFFCURVE",
"71 556 OFFCURVE",
"71 399 CURVE SMOOTH",
"71 120 OFFCURVE",
"184 -20 OFFCURVE",
"410 -20 CURVE SMOOTH",
"651 -20 OFFCURVE",
"819 140 OFFCURVE",
"916 474 CURVE SMOOTH",
"964 641 OFFCURVE",
"988 800 OFFCURVE",
"988 951 CURVE SMOOTH"
);
},
{
closed = 1;
nodes = (
"736 822 OFFCURVE",
"697 545 OFFCURVE",
"646 363 CURVE SMOOTH",
"595 181 OFFCURVE",
"527 90 OFFCURVE",
"435 90 CURVE SMOOTH",
"356 90 OFFCURVE",
"316 182 OFFCURVE",
"316 367 CURVE SMOOTH",
"316 564 OFFCURVE",
"390 986 OFFCURVE",
"471 1138 CURVE SMOOTH",
"511 1213 OFFCURVE",
"560 1251 OFFCURVE",
"617 1251 CURVE SMOOTH",
"663 1251 OFFCURVE",
"695 1227 OFFCURVE",
"714 1180 CURVE SMOOTH",
"732 1132 OFFCURVE",
"741 1062 OFFCURVE",
"741 970 CURVE SMOOTH"
);
}
);
width = 1024;
}
);
note = zero;
unicode = 0030;
},
{
glyphname = one;
lastChange = "2025-02-05 21:35:20 +0000";
layers = (
{
layerId = "1E4AACC9-6A88-4B03-8BB8-E9E25DEE74AF";
paths = (
{
closed = 1;
nodes = (
"797 1352 LINE",
"665 1352 LINE",
"248 1130 LINE",
"233 1045 LINE",
"486 1116 LINE",
"309 110 LINE",
"63 86 LINE",
"48 0 LINE",
"802 0 LINE",
"817 86 LINE",
"578 110 LINE"
);
}
);
width = 1024;
}
);
note = one;
unicode = 0031;
},
{
glyphname = two;
lastChange = "2025-02-05 21:35:20 +0000";
layers = (
{
layerId = "1E4AACC9-6A88-4B03-8BB8-E9E25DEE74AF";
paths = (
{
closed = 1;
nodes = (
"864 206 LINE",
"192 206 LINE",
"391 335 OFFCURVE",
"534 434 OFFCURVE",
"620 503 CURVE SMOOTH",
"705 571 OFFCURVE",
"773 635 OFFCURVE",
"824 694 CURVE SMOOTH",
"924 813 OFFCURVE",
"977 936 OFFCURVE",
"977 1067 CURVE SMOOTH",
"977 1247 OFFCURVE",
"831 1356 OFFCURVE",
"582 1356 CURVE SMOOTH",
"462 1356 OFFCURVE",
"363 1337 OFFCURVE",
"251 1313 CURVE",
"197 1008 LINE",
"284 1008 LINE",
"361 1202 LINE",
"408 1237 OFFCURVE",
"461 1254 OFFCURVE",
"520 1254 CURVE SMOOTH",
"628 1254 OFFCURVE",
"701 1193 OFFCURVE",
"701 1049 CURVE SMOOTH",
"701 936 OFFCURVE",
"650 815 OFFCURVE",
"548 684 CURVE SMOOTH",
"446 553 OFFCURVE",
"266 388 OFFCURVE",
"8 189 CURVE",
"-25 0 LINE",
"825 0 LINE"
);
}
);
width = 1024;
}
);
note = two;
unicode = 0032;
},
{
glyphname = three;
lastChange = "2025-02-05 21:35:20 +0000";
layers = (
{
layerId = "1E4AACC9-6A88-4B03-8BB8-E9E25DEE74AF";
paths = (
{
closed = 1;
nodes = (
"690 -20 OFFCURVE",
"906 134 OFFCURVE",
"906 397 CURVE SMOOTH",
"906 556 OFFCURVE",
"806 674 OFFCURVE",
"631 702 CURVE",
"852 735 OFFCURVE",
"969 860 OFFCURVE",
"969 1065 CURVE SMOOTH",
"969 1246 OFFCURVE",
"822 1356 OFFCURVE",
"574 1356 CURVE SMOOTH",
"457 1356 OFFCURVE",
"380 1348 OFFCURVE",
"244 1313 CURVE",
"190 1008 LINE",
"277 1008 LINE",
"354 1202 LINE",
"398 1237 OFFCURVE",
"450 1254 OFFCURVE",
"510 1254 CURVE SMOOTH",
"623 1254 OFFCURVE",
"691 1186 OFFCURVE",
"691 1051 CURVE SMOOTH",
"691 873 OFFCURVE",
"611 779 OFFCURVE",
"452 769 CURVE SMOOTH",
"339 761 LINE",
"317 640 LINE",
"432 633 LINE",
"561 618 OFFCURVE",
"628 547 OFFCURVE",
"628 394 CURVE SMOOTH",
"628 187 OFFCURVE",
"520 81 OFFCURVE",
"336 81 CURVE SMOOTH",
"261 81 OFFCURVE",
"160 109 OFFCURVE",
"135 130 CURVE",
"121 345 LINE",
"29 345 LINE",
"-16 20 LINE",
"72 -7 OFFCURVE",
"193 -20 OFFCURVE",
"347 -20 CURVE SMOOTH"
);
}
);
width = 1024;
}
);
note = three;
unicode = 0033;
},
{
glyphname = four;
lastChange = "2025-02-05 21:35:20 +0000";
layers = (
{
layerId = "1E4AACC9-6A88-4B03-8BB8-E9E25DEE74AF";
paths = (
{
closed = 1;
nodes = (
"929 275 LINE",
"962 460 LINE",
"805 460 LINE",
"962 1348 LINE",
"759 1348 LINE",
"-4 428 LINE",
"-32 275 LINE",
"523 275 LINE",
"476 0 LINE",
"725 0 LINE",
"772 275 LINE"
);
},
{
closed = 1;
nodes = (
"652 969 OFFCURVE",
"634 892 OFFCURVE",
"625 846 CURVE SMOOTH",
"556 460 LINE",
"171 460 LINE",
"681 1077 LINE"
);
}
);
width = 1024;
}
);
note = four;
unicode = 0034;
},
{
glyphname = five;
lastChange = "2025-02-05 21:35:20 +0000";
layers = (
{
layerId = "1E4AACC9-6A88-4B03-8BB8-E9E25DEE74AF";
paths = (
{
closed = 1;
nodes = (
"436 798 OFFCURVE",
"366 790 OFFCURVE",
"306 773 CURVE",
"369 1138 LINE",
"935 1138 LINE",
"971 1341 LINE",
"279 1341 LINE",
"157 648 LINE",
"250 648 LINE",
"309 672 OFFCURVE",
"389 687 OFFCURVE",
"442 687 CURVE SMOOTH",
"573 687 OFFCURVE",
"639 606 OFFCURVE",
"639 445 CURVE SMOOTH",
"639 212 OFFCURVE",
"535 81 OFFCURVE",
"354 81 CURVE SMOOTH",
"285 81 OFFCURVE",
"211 99 OFFCURVE",
"174 130 CURVE",
"160 345 LINE",
"68 345 LINE",
"23 20 LINE",
"183 -17 OFFCURVE",
"240 -20 OFFCURVE",
"340 -20 CURVE SMOOTH",
"707 -20 OFFCURVE",
"913 151 OFFCURVE",
"913 450 CURVE SMOOTH",
"913 674 OFFCURVE",
"773 798 OFFCURVE",
"516 798 CURVE SMOOTH"
);
}
);
width = 1024;
}
);
note = five;
unicode = 0035;
},
{
glyphname = six;
lastChange = "2025-02-05 21:35:20 +0000";
layers = (
{
layerId = "1E4AACC9-6A88-4B03-8BB8-E9E25DEE74AF";
paths = (
{
closed = 1;
nodes = (
"757 -20 OFFCURVE",
"944 192 OFFCURVE",
"944 483 CURVE SMOOTH",
"944 694 OFFCURVE",
"828 815 OFFCURVE",
"624 815 CURVE SMOOTH",
"540 815 OFFCURVE",
"452 791 OFFCURVE",
"360 742 CURVE",
"423 1058 OFFCURVE",
"562 1254 OFFCURVE",
"733 1254 CURVE SMOOTH",
"784 1254 OFFCURVE",
"831 1237 OFFCURVE",
"874 1202 CURVE",
"883 1008 LINE",
"970 1008 LINE",
"1024 1313 LINE",
"933 1342 OFFCURVE",
"839 1356 OFFCURVE",
"742 1356 CURVE SMOOTH",
"501 1356 OFFCURVE",
"280 1178 OFFCURVE",
"160 898 CURVE SMOOTH",
"100 757 OFFCURVE",
"70 607 OFFCURVE",
"70 446 CURVE SMOOTH",
"70 150 OFFCURVE",
"208 -20 OFFCURVE",
"459 -20 CURVE SMOOTH"
);
},
{
closed = 1;
nodes = (
"329 495 OFFCURVE",
"334 573 OFFCURVE",
"344 649 CURVE",
"409 676 OFFCURVE",
"466 690 OFFCURVE",
"513 690 CURVE SMOOTH",
"609 690 OFFCURVE",
"677 619 OFFCURVE",
"677 459 CURVE SMOOTH",
"677 232 OFFCURVE",
"599 81 OFFCURVE",
"482 81 CURVE SMOOTH",
"432 81 OFFCURVE",
"394 109 OFFCURVE",
"368 165 CURVE SMOOTH",
"342 221 OFFCURVE",
"329 304 OFFCURVE",
"329 415 CURVE SMOOTH"
);
}
);
width = 1024;
}
);
note = six;
unicode = 0036;
},
{
glyphname = seven;
lastChange = "2025-02-05 21:35:20 +0000";
layers = (
{
layerId = "1E4AACC9-6A88-4B03-8BB8-E9E25DEE74AF";
paths = (
{
closed = 1;
nodes = (
"331 1138 LINE",
"860 1138 LINE",
"86 0 LINE",
"345 0 LINE",
"1078 1262 LINE",
"1092 1341 LINE",
"235 1341 LINE",
"167 958 LINE",
"254 958 LINE"
);
}
);
width = 1024;
}
);
note = seven;
unicode = 0037;
},
{
glyphname = eight;
lastChange = "2025-02-05 21:35:20 +0000";
layers = (
{
layerId = "1E4AACC9-6A88-4B03-8BB8-E9E25DEE74AF";
paths = (
{
closed = 1;
nodes = (
"993 1264 OFFCURVE",
"874 1362 OFFCURVE",
"649 1362 CURVE SMOOTH",
"353 1362 OFFCURVE",
"195 1229 OFFCURVE",
"195 980 CURVE SMOOTH",
"195 861 OFFCURVE",
"252 756 OFFCURVE",
"337 711 CURVE",
"152 668 OFFCURVE",
"37 529 OFFCURVE",
"37 321 CURVE SMOOTH",
"37 108 OFFCURVE",
"172 -20 OFFCURVE",
"419 -20 CURVE SMOOTH",
"752 -20 OFFCURVE",
"919 133 OFFCURVE",
"919 440 CURVE SMOOTH",
"919 576 OFFCURVE",
"852 671 OFFCURVE",
"741 711 CURVE",
"897 758 OFFCURVE",
"993 897 OFFCURVE",
"993 1085 CURVE SMOOTH"
);
},
{
closed = 1;
nodes = (
"447 1137 OFFCURVE",
"512 1261 OFFCURVE",
"625 1261 CURVE SMOOTH",
"702 1261 OFFCURVE",
"740 1210 OFFCURVE",
"740 1109 CURVE SMOOTH",
"740 904 OFFCURVE",
"666 766 OFFCURVE",
"553 766 CURVE SMOOTH",
"482 766 OFFCURVE",
"447 815 OFFCURVE",
"447 914 CURVE SMOOTH"
);
},
{
closed = 1;
nodes = (
"289 508 OFFCURVE",
"368 654 OFFCURVE",
"513 654 CURVE SMOOTH",
"615 654 OFFCURVE",
"666 593 OFFCURVE",
"666 471 CURVE SMOOTH",
"666 220 OFFCURVE",
"590 83 OFFCURVE",
"443 83 CURVE SMOOTH",
"340 83 OFFCURVE",
"289 146 OFFCURVE",
"289 272 CURVE SMOOTH"
);
}
);
width = 1024;
}
);
note = eight;
unicode = 0038;
},
{
glyphname = nine;
lastChange = "2025-02-05 21:35:20 +0000";
layers = (
{
layerId = "1E4AACC9-6A88-4B03-8BB8-E9E25DEE74AF";
paths = (
{
closed = 1;
nodes = (
"404 1355 OFFCURVE",
"253 1267 OFFCURVE",
"174 1119 CURVE SMOOTH",
"134 1045 OFFCURVE",
"114 963 OFFCURVE",
"114 872 CURVE SMOOTH",
"114 652 OFFCURVE",
"235 521 OFFCURVE",
"443 521 CURVE SMOOTH",
"529 521 OFFCURVE",
"616 542 OFFCURVE",
"703 584 CURVE",
"642 264 OFFCURVE",
"506 82 OFFCURVE",
"339 82 CURVE SMOOTH",
"276 82 OFFCURVE",
"223 99 OFFCURVE",
"180 134 CURVE",
"171 328 LINE",
"84 328 LINE",
"30 23 LINE",
"120 -6 OFFCURVE",
"219 -20 OFFCURVE",
"326 -20 CURVE SMOOTH",
"566 -20 OFFCURVE",
"785 151 OFFCURVE",
"901 427 CURVE SMOOTH",
"959 565 OFFCURVE",
"988 716 OFFCURVE",
"988 880 CURVE SMOOTH",
"988 1171 OFFCURVE",
"829 1355 OFFCURVE",
"588 1355 CURVE SMOOTH"
);
},
{
closed = 1;
nodes = (
"730 816 OFFCURVE",
"726 750 OFFCURVE",
"718 685 CURVE",
"647 659 OFFCURVE",
"586 646 OFFCURVE",
"535 646 CURVE SMOOTH",
"436 646 OFFCURVE",
"379 720 OFFCURVE",
"379 872 CURVE SMOOTH",
"379 1101 OFFCURVE",
"459 1255 OFFCURVE",
"576 1255 CURVE SMOOTH",
"623 1255 OFFCURVE",
"661 1222 OFFCURVE",
"689 1156 CURVE SMOOTH",
"716 1089 OFFCURVE",
"730 998 OFFCURVE",
"730 883 CURVE SMOOTH"
);
}
);
width = 1024;
}
);
note = nine;
unicode = 0039;
},
{
glyphname = colon;
lastChange = "2025-02-05 21:35:20 +0000";
layers = (
{
layerId = "1E4AACC9-6A88-4B03-8BB8-E9E25DEE74AF";
paths = (
{
closed = 1;
nodes = (
"467 628 OFFCURVE",
"540 702 OFFCURVE",
"540 794 CURVE SMOOTH",
"540 886 OFFCURVE",
"469 960 OFFCURVE",
"374 960 CURVE SMOOTH",
"278 960 OFFCURVE",
"209 887 OFFCURVE",
"209 794 CURVE SMOOTH",
"209 701 OFFCURVE",
"281 628 OFFCURVE",
"374 628 CURVE SMOOTH"
);
},
{
closed = 1;
nodes = (
"328 -29 OFFCURVE",
"401 45 OFFCURVE",
"401 137 CURVE SMOOTH",
"401 230 OFFCURVE",
"327 303 OFFCURVE",
"235 303 CURVE SMOOTH",
"142 303 OFFCURVE",
"69 229 OFFCURVE",
"69 137 CURVE SMOOTH",
"69 44 OFFCURVE",
"143 -29 OFFCURVE",
"235 -29 CURVE SMOOTH"
);
}
);
width = 682;
}
);
note = colon;
unicode = 003A;
},
{
glyphname = semicolon;
lastChange = "2025-02-05 21:35:20 +0000";
layers = (
{
layerId = "1E4AACC9-6A88-4B03-8BB8-E9E25DEE74AF";
paths = (
{
closed = 1;
nodes = (
"413 222 OFFCURVE",
"338 301 OFFCURVE",
"226 301 CURVE SMOOTH",
"134 301 OFFCURVE",
"67 255 OFFCURVE",
"67 168 CURVE SMOOTH",
"67 113 OFFCURVE",
"91 71 OFFCURVE",
"138 42 CURVE SMOOTH",
"193 7 OFFCURVE",
"208 -10 OFFCURVE",
"208 -39 CURVE SMOOTH",
"208 -107 OFFCURVE",
"141 -194 OFFCURVE",
"26 -225 CURVE",
"26 -317 LINE",
"278 -252 OFFCURVE",
"413 -103 OFFCURVE",
"413 106 CURVE SMOOTH"
);
},
{
closed = 1;
nodes = (
"475 628 OFFCURVE",
"548 702 OFFCURVE",
"548 794 CURVE SMOOTH",
"548 886 OFFCURVE",
"477 960 OFFCURVE",
"382 960 CURVE SMOOTH",
"286 960 OFFCURVE",
"217 887 OFFCURVE",
"217 794 CURVE SMOOTH",
"217 701 OFFCURVE",
"289 628 OFFCURVE",
"382 628 CURVE SMOOTH"
);
}
);
width = 682;
}
);
note = semicolon;
unicode = "003B,037E";
},
{
glyphname = less;
lastChange = "2025-02-05 21:35:20 +0000";
layers = (
{
layerId = "1E4AACC9-6A88-4B03-8BB8-E9E25DEE74AF";
paths = (
{
closed = 1;
nodes = (
"1053 166 LINE",
"1053 309 LINE",
"286 680 LINE",
"1053 1050 LINE",
"1053 1193 LINE",
"101 725 LINE",
"101 635 LINE"
);
}
);
width = 1167;
}
);
note = less;
unicode = 003C;
},
{
glyphname = equal;
lastChange = "2025-02-05 21:35:20 +0000";
layers = (
{
layerId = "1E4AACC9-6A88-4B03-8BB8-E9E25DEE74AF";
paths = (
{
closed = 1;
nodes = (
"118 547 LINE",
"118 403 LINE",
"1070 403 LINE",
"1070 547 LINE"
);
},
{
closed = 1;
nodes = (
"118 956 LINE",
"118 813 LINE",
"1070 813 LINE",
"1070 956 LINE"
);
}
);
width = 1167;
}
);
note = equal;
unicode = 003D;
},
{
glyphname = greater;
lastChange = "2025-02-05 21:35:20 +0000";
layers = (
{
layerId = "1E4AACC9-6A88-4B03-8BB8-E9E25DEE74AF";
paths = (
{
closed = 1;
nodes = (
"1105 635 LINE",
"1105 725 LINE",
"153 1193 LINE",
"153 1050 LINE",
"921 680 LINE",
"153 309 LINE",
"153 166 LINE"
);
}
);
width = 1167;
}
);
note = greater;
unicode = 003E;
},
{
glyphname = question;
lastChange = "2025-02-05 21:35:20 +0000";
layers = (
{
layerId = "1E4AACC9-6A88-4B03-8BB8-E9E25DEE74AF";
paths = (
{
closed = 1;
nodes = (
"950 1246 OFFCURVE",
"802 1356 OFFCURVE",
"542 1356 CURVE SMOOTH",
"439 1356 OFFCURVE",
"335 1340 OFFCURVE",
"230 1308 CURVE",
"190 1013 LINE",
"279 1013 LINE",
"344 1207 LINE",
"379 1234 OFFCURVE",
"440 1254 OFFCURVE",
"491 1254 CURVE SMOOTH",
"617 1254 OFFCURVE",
"680 1186 OFFCURVE",
"680 1051 CURVE SMOOTH",
"680 868 OFFCURVE",
"599 760 OFFCURVE",
"436 726 CURVE SMOOTH",
"329 703 LINE",
"331 390 LINE",
"434 390 LINE",
"497 592 LINE",
"578 614 LINE SMOOTH",
"833 683 OFFCURVE",
"950 815 OFFCURVE",
"950 1043 CURVE SMOOTH"
);
},
{
closed = 1;
nodes = (
"443 -29 OFFCURVE",
"516 45 OFFCURVE",
"516 137 CURVE SMOOTH",
"516 230 OFFCURVE",
"442 303 OFFCURVE",
"350 303 CURVE SMOOTH",
"257 303 OFFCURVE",
"185 230 OFFCURVE",
"185 137 CURVE SMOOTH",
"185 44 OFFCURVE",
"257 -29 OFFCURVE",
"350 -29 CURVE SMOOTH"
);
}
);
width = 1024;
}
);
note = question;
unicode = 003F;
},
{
glyphname = at;
lastChange = "2025-02-05 21:35:20 +0000";
layers = (
{
layerId = "1E4AACC9-6A88-4B03-8BB8-E9E25DEE74AF";
paths = (
{
closed = 1;
nodes = (
"627 1364 OFFCURVE",
"329 1184 OFFCURVE",
"169 877 CURVE SMOOTH",
"88 724 OFFCURVE",
"48 552 OFFCURVE",
"48 362 CURVE SMOOTH",
"48 74 OFFCURVE",
"180 -170 OFFCURVE",
"413 -295 CURVE SMOOTH",
"529 -358 OFFCURVE",
"663 -389 OFFCURVE",
"815 -389 CURVE SMOOTH",
"1050 -389 OFFCURVE",
"1242 -325 OFFCURVE",
"1431 -173 CURVE",
"1379 -97 LINE",
"1251 -190 OFFCURVE",
"1160 -230 OFFCURVE",
"1041 -255 CURVE SMOOTH",
"981 -268 OFFCURVE",
"916 -274 OFFCURVE",
"846 -274 CURVE SMOOTH",
"599 -274 OFFCURVE",
"411 -160 OFFCURVE",
"315 34 CURVE SMOOTH",
"266 131 OFFCURVE",
"242 241 OFFCURVE",
"242 365 CURVE SMOOTH",
"242 702 OFFCURVE",
"373 989 OFFCURVE",
"591 1140 CURVE SMOOTH",
"700 1215 OFFCURVE",
"824 1253 OFFCURVE",
"964 1253 CURVE SMOOTH",
"1271 1253 OFFCURVE",
"1455 1069 OFFCURVE",
"1455 750 CURVE SMOOTH",
"1455 547 OFFCURVE",
"1397 343 OFFCURVE",
"1310 244 CURVE SMOOTH",
"1267 194 OFFCURVE",
"1220 169 OFFCURVE",
"1169 169 CURVE SMOOTH",
"1134 169 OFFCURVE",
"1117 187 OFFCURVE",
"1117 223 CURVE SMOOTH",
"1117 243 OFFCURVE",
"1127 295 OFFCURVE",
"1147 379 CURVE SMOOTH",
"1268 913 LINE",
"1204 920 OFFCURVE",
"1143 924 OFFCURVE",
"1085 924 CURVE SMOOTH",
"846 924 OFFCURVE",
"724 869 OFFCURVE",
"593 747 CURVE SMOOTH",
"462 625 OFFCURVE",
"394 462 OFFCURVE",
"394 267 CURVE SMOOTH",
"394 116 OFFCURVE",
"467 25 OFFCURVE",
"580 25 CURVE SMOOTH",
"651 25 OFFCURVE",
"761 80 OFFCURVE",
"853 156 CURVE",
"864 81 OFFCURVE",
"931 25 OFFCURVE",
"1020 25 CURVE SMOOTH",
"1239 25 OFFCURVE",
"1444 159 OFFCURVE",
"1561 384 CURVE SMOOTH",
"1620 496 OFFCURVE",
"1649 619 OFFCURVE",
"1649 752 CURVE SMOOTH",
"1649 1140 OFFCURVE",
"1403 1364 OFFCURVE",
"972 1364 CURVE SMOOTH"
);
},
{
closed = 1;
nodes = (
"644 472 OFFCURVE",
"701 669 OFFCURVE",
"760 744 CURVE",
"802 788 OFFCURVE",
"858 810 OFFCURVE",
"928 810 CURVE",
"983 805 LINE",
"856 253 LINE",
"805 210 OFFCURVE",
"757 189 OFFCURVE",
"712 189 CURVE SMOOTH",
"693 189 OFFCURVE",
"677 200 OFFCURVE",
"664 222 CURVE SMOOTH",
"651 243 OFFCURVE",
"644 276 OFFCURVE",
"644 320 CURVE SMOOTH"
);
}
);
width = 1704;
}
);
note = at;
unicode = 0040;
},
{
glyphname = A;
lastChange = "2025-02-05 21:35:20 +0000";
layers = (
{
layerId = "1E4AACC9-6A88-4B03-8BB8-E9E25DEE74AF";
paths = (
{
closed = 1;
nodes = (
"154 100 LINE",
"338 447 LINE",
"810 447 LINE",
"871 100 LINE",
"733 73 LINE",
"719 0 LINE",
"1268 0 LINE",
"1282 73 LINE",
"1173 100 LINE",
"919 1352 LINE",
"679 1352 LINE",
"11 100 LINE",
"-92 73 LINE",
"-106 0 LINE",
"288 0 LINE",
"302 73 LINE"
);
},
{
closed = 1;
nodes = (
"790 557 LINE",
"394 557 LINE",
"689 1118 LINE"
);
}
);
width = 1366;
}
);
note = A;
unicode = 0041;
},
{
glyphname = B;
lastChange = "2025-02-05 21:35:20 +0000";
layers = (
{
layerId = "1E4AACC9-6A88-4B03-8BB8-E9E25DEE74AF";
paths = (
{
closed = 1;
nodes = (
"583 764 LINE",
"666 1231 LINE",
"755 1231 LINE SMOOTH",
"911 1231 OFFCURVE",
"993 1162 OFFCURVE",
"993 1035 CURVE SMOOTH",
"993 854 OFFCURVE",
"888 764 OFFCURVE",
"677 764 CURVE SMOOTH"
);
},
{
closed = 1;
nodes = (
"600 104 OFFCURVE",
"538 106 OFFCURVE",
"468 110 CURVE",
"564 654 LINE",
"678 654 LINE SMOOTH",
"879 654 OFFCURVE",
"981 568 OFFCURVE",
"981 405 CURVE SMOOTH",
"981 200 OFFCURVE",
"879 104 OFFCURVE",
"654 104 CURVE SMOOTH"
);
},
{
closed = 1;
nodes = (
"1068 -6 OFFCURVE",
"1278 125 OFFCURVE",
"1278 404 CURVE SMOOTH",
"1278 580 OFFCURVE",
"1156 699 OFFCURVE",
"953 716 CURVE",
"1166 745 OFFCURVE",
"1290 860 OFFCURVE",
"1290 1048 CURVE SMOOTH",
"1290 1243 OFFCURVE",
"1128 1341 OFFCURVE",
"804 1341 CURVE SMOOTH",
"218 1341 LINE",
"204 1268 LINE",
"372 1242 LINE",
"171 100 LINE",
"-7 73 LINE",
"-19 0 LINE",
"303 0 LINE",
"648 -6 LINE SMOOTH"
);
}
);
width = 1366;
}
);
note = B;
unicode = 0042;
},
{
glyphname = C;
lastChange = "2025-02-05 21:35:20 +0000";
layers = (
{
layerId = "1E4AACC9-6A88-4B03-8BB8-E9E25DEE74AF";
paths = (
{
closed = 1;
nodes = (
"843 -20 OFFCURVE",
"1036 15 OFFCURVE",
"1187 64 CURVE",
"1253 404 LINE",
"1168 404 LINE",
"1091 184 LINE",
"1010 125 OFFCURVE",
"865 83 OFFCURVE",
"734 83 CURVE SMOOTH",
"511 83 OFFCURVE",
"383 246 OFFCURVE",
"383 522 CURVE SMOOTH",
"383 802 OFFCURVE",
"485 1036 OFFCURVE",
"661 1159 CURVE SMOOTH",
"748 1220 OFFCURVE",
"847 1251 OFFCURVE",
"957 1251 CURVE SMOOTH",
"1069 1251 OFFCURVE",
"1176 1218 OFFCURVE",
"1248 1161 CURVE",
"1248 967 LINE",
"1332 967 LINE",
"1385 1304 LINE",
"1220 1339 OFFCURVE",
"1063 1356 OFFCURVE",
"912 1356 CURVE SMOOTH",
"581 1356 OFFCURVE",
"313 1215 OFFCURVE",
"174 965 CURVE SMOOTH",
"105 840 OFFCURVE",
"70 695 OFFCURVE",
"70 531 CURVE SMOOTH",
"70 190 OFFCURVE",
"290 -20 OFFCURVE",
"670 -20 CURVE SMOOTH"
);
}
);
width = 1366;
}
);
note = C;
unicode = 0043;
},
{
glyphname = D;
lastChange = "2025-02-05 21:35:20 +0000";
layers = (
{
layerId = "1E4AACC9-6A88-4B03-8BB8-E9E25DEE74AF";
paths = (
{
closed = 1;
nodes = (
"1120 361 OFFCURVE",
"920 106 OFFCURVE",
"595 106 CURVE SMOOTH",
"569 106 OFFCURVE",
"528 109 OFFCURVE",
"471 114 CURVE",
"668 1231 LINE",
"705 1231 LINE SMOOTH",
"982 1231 OFFCURVE",
"1120 1079 OFFCURVE",
"1120 774 CURVE SMOOTH"
);
},
{
closed = 1;
nodes = (
"221 1341 LINE",
"208 1268 LINE",
"375 1242 LINE",
"174 100 LINE",
"-3 73 LINE",
"-15 0 LINE",
"599 -4 LINE SMOOTH",
"1108 -4 OFFCURVE",
"1431 301 OFFCURVE",
"1431 788 CURVE SMOOTH",
"1431 1143 OFFCURVE",
"1191 1341 OFFCURVE",
"742 1341 CURVE SMOOTH"
);
}
);
width = 1479;
}
);
note = D;
unicode = 0044;
},
{
glyphname = E;
lastChange = "2025-02-05 21:35:20 +0000";
layers = (
{
layerId = "1E4AACC9-6A88-4B03-8BB8-E9E25DEE74AF";
paths = (
{
closed = 1;
nodes = (
"174 100 LINE",
"-3 73 LINE",
"-15 0 LINE",
"1102 0 LINE",
"1186 374 LINE",
"1095 374 LINE",
"992 126 LINE",
"935 115 OFFCURVE",
"823 110 OFFCURVE",
"654 110 CURVE SMOOTH",
"471 110 LINE",
"562 627 LINE",
"843 627 LINE",
"847 475 LINE",
"936 475 LINE",
"1009 887 LINE",
"920 887 LINE",
"863 739 LINE",
"582 739 LINE",
"669 1231 LINE",
"807 1231 LINE SMOOTH",
"948 1231 OFFCURVE",
"1055 1226 OFFCURVE",
"1128 1217 CURVE",
"1122 1000 LINE",
"1213 1000 LINE",
"1273 1341 LINE",
"221 1341 LINE",
"208 1268 LINE",
"375 1242 LINE"
);
}
);
width = 1366;
}
);
note = E;
unicode = 0045;
},
{
glyphname = F;
lastChange = "2025-02-05 21:35:20 +0000";
layers = (
{
layerId = "1E4AACC9-6A88-4B03-8BB8-E9E25DEE74AF";
paths = (
{
closed = 1;
nodes = (
"919 592 LINE",
"920 420 LINE",
"1009 420 LINE",
"1089 872 LINE",
"1000 872 LINE",
"939 702 LINE",
"576 702 LINE",
"669 1231 LINE",
"807 1231 LINE SMOOTH",
"904 1231 OFFCURVE",
"1119 1226 OFFCURVE",
"1184 1217 CURVE",
"1174 980 LINE",
"1268 980 LINE",
"1332 1341 LINE",
"221 1341 LINE",
"208 1268 LINE",
"375 1242 LINE",
"174 100 LINE",
"10 73 LINE",
"-2 0 LINE",
"675 0 LINE",
"687 73 LINE",
"469 100 LINE",
"556 592 LINE"
);
}
);
width = 1366;
}
);
note = F;
unicode = 0046;
},
{
glyphname = G;
lastChange = "2025-02-05 21:35:20 +0000";
layers = (
{
layerId = "1E4AACC9-6A88-4B03-8BB8-E9E25DEE74AF";
paths = (
{
closed = 1;
nodes = (
"70 183 OFFCURVE",
"287 -20 OFFCURVE",
"662 -20 CURVE SMOOTH",
"866 -20 OFFCURVE",
"1034 9 OFFCURVE",
"1231 70 CURVE",
"1308 506 LINE",
"1444 538 LINE",
"1456 606 LINE",
"858 606 LINE",
"846 538 LINE",
"1013 506 LINE",
"945 126 LINE",
"874 97 OFFCURVE",
"795 83 OFFCURVE",
"708 83 CURVE SMOOTH",
"500 83 OFFCURVE",
"381 239 OFFCURVE",
"381 503 CURVE SMOOTH",
"381 796 OFFCURVE",
"481 1033 OFFCURVE",
"653 1158 CURVE SMOOTH",
"739 1220 OFFCURVE",
"835 1251 OFFCURVE",
"941 1251 CURVE SMOOTH",
"1074 1251 OFFCURVE",
"1181 1221 OFFCURVE",
"1261 1160 CURVE",
"1260 986 LINE",
"1344 986 LINE",
"1399 1294 LINE",
"1246 1335 OFFCURVE",
"1088 1356 OFFCURVE",
"924 1356 CURVE SMOOTH",
"589 1356 OFFCURVE",
"319 1215 OFFCURVE",
"177 963 CURVE SMOOTH",
"106 837 OFFCURVE",
"70 690 OFFCURVE",
"70 523 CURVE SMOOTH"
);
}
);
width = 1479;
}
);
note = G;
unicode = 0047;
},
{
glyphname = H;
lastChange = "2025-02-05 21:35:20 +0000";
layers = (
{
layerId = "1E4AACC9-6A88-4B03-8BB8-E9E25DEE74AF";
paths = (
{
closed = 1;
nodes = (
"623 0 LINE",
"636 74 LINE",
"469 100 LINE",
"563 635 LINE",
"1051 635 LINE",
"957 100 LINE",
"780 74 LINE",
"767 0 LINE",
"1408 0 LINE",
"1421 74 LINE",
"1253 100 LINE",
"1454 1241 LINE",
"1632 1268 LINE",
"1645 1341 LINE",
"1004 1341 LINE",
"991 1268 LINE",
"1158 1241 LINE",
"1071 745 LINE",
"583 745 LINE",
"670 1241 LINE",
"847 1268 LINE",
"860 1341 LINE",
"221 1341 LINE",
"208 1268 LINE",
"375 1241 LINE",
"174 100 LINE",
"-2 74 LINE",
"-15 0 LINE"
);
}
);
width = 1593;
}
);
note = H;
unicode = 0048;
},
{
glyphname = I;
lastChange = "2025-02-05 21:35:20 +0000";
layers = (
{
layerId = "1E4AACC9-6A88-4B03-8BB8-E9E25DEE74AF";
paths = (
{
closed = 1;
nodes = (
"665 1241 LINE",
"842 1268 LINE",
"855 1341 LINE",
"216 1341 LINE",
"203 1268 LINE",
"370 1241 LINE",
"169 100 LINE",
"-7 74 LINE",
"-20 0 LINE",
"618 0 LINE",
"631 74 LINE",
"464 100 LINE"
);
}
);
width = 797;
}
);
note = I;
unicode = 0049;
},
{
glyphname = J;
lastChange = "2025-02-05 21:35:20 +0000";
layers = (
{
layerId = "1E4AACC9-6A88-4B03-8BB8-E9E25DEE74AF";
paths = (
{
closed = 1;
nodes = (
"443 276 LINE SMOOTH",
"423 159 OFFCURVE",
"349 86 OFFCURVE",
"250 86 CURVE SMOOTH",
"196 86 OFFCURVE",
"158 102 OFFCURVE",
"137 135 CURVE",
"133 314 LINE",
"50 314 LINE",
"-4 10 LINE",
"60 -10 OFFCURVE",
"143 -20 OFFCURVE",
"244 -20 CURVE SMOOTH",
"533 -20 OFFCURVE",
"715 144 OFFCURVE",
"766 432 CURVE SMOOTH",
"908 1242 LINE",
"1065 1268 LINE",
"1078 1341 LINE",
"459 1341 LINE",
"446 1268 LINE",
"613 1242 LINE"
);
}
);
width = 1024;
}
);
note = J;
unicode = 004A;
},
{
glyphname = K;
lastChange = "2025-02-05 21:35:20 +0000";
layers = (
{
layerId = "1E4AACC9-6A88-4B03-8BB8-E9E25DEE74AF";
paths = (
{
closed = 1;
nodes = (
"555 591 LINE",
"648 636 LINE",
"944 0 LINE",
"1330 0 LINE",
"1342 73 LINE",
"1208 100 LINE",
"855 813 LINE",
"1328 1242 LINE",
"1467 1268 LINE",
"1480 1341 LINE",
"1055 1341 LINE",
"1042 1268 LINE",
"1155 1242 LINE",
"579 718 LINE",
"670 1242 LINE",
"837 1268 LINE",
"850 1341 LINE",
"221 1341 LINE",
"208 1268 LINE",
"375 1242 LINE",
"174 100 LINE",
"-3 73 LINE",
"-15 0 LINE",
"635 0 LINE",
"647 73 LINE",
"469 100 LINE"
);
}
);
width = 1366;
}
);
note = K;
unicode = 004B;
},
{
glyphname = L;
lastChange = "2025-02-05 21:35:20 +0000";
layers = (
{
layerId = "1E4AACC9-6A88-4B03-8BB8-E9E25DEE74AF";
paths = (
{
closed = 1;
nodes = (
"670 1242 LINE",
"872 1268 LINE",
"885 1341 LINE",
"222 1341 LINE",
"209 1268 LINE",
"375 1242 LINE",
"174 100 LINE",
"-3 73 LINE",
"-15 0 LINE",
"1070 0 LINE",
"1159 405 LINE",
"1075 405 LINE",
"958 126 LINE",
"907 117 OFFCURVE",
"711 106 OFFCURVE",
"583 106 CURVE SMOOTH",
"470 106 LINE"
);
}
);
width = 1251;
}
);
note = L;
unicode = 004C;
},
{
glyphname = M;
lastChange = "2025-02-05 21:35:20 +0000";
layers = (
{
layerId = "1E4AACC9-6A88-4B03-8BB8-E9E25DEE74AF";
paths = (
{
closed = 1;
nodes = (
"1379 1158 LINE",
"1192 100 LINE",
"997 73 LINE",
"985 0 LINE",
"1642 0 LINE",
"1654 73 LINE",
"1487 100 LINE",
"1688 1242 LINE",
"1865 1268 LINE",
"1878 1341 LINE",
"1343 1341 LINE",
"867 467 LINE",
"702 1341 LINE",
"209 1341 LINE",
"196 1268 LINE",
"363 1242 LINE",
"162 100 LINE",
"-15 73 LINE",
"-27 0 LINE",
"450 0 LINE",
"462 73 LINE",
"287 100 LINE",
"474 1158 LINE",
"695 0 LINE",
"740 0 LINE"
);
}
);
width = 1821;
}
);
note = M;
unicode = 004D;
},
{
glyphname = N;
lastChange = "2025-02-05 21:35:20 +0000";
layers = (
{
layerId = "1E4AACC9-6A88-4B03-8BB8-E9E25DEE74AF";
paths = (
{
closed = 1;
nodes = (
"1085 447 LINE",
"650 1341 LINE",
"217 1341 LINE",
"204 1268 LINE",
"371 1242 LINE",
"170 100 LINE",
"-7 73 LINE",
"-19 0 LINE",
"458 0 LINE",
"470 73 LINE",
"295 100 LINE",
"476 1112 LINE",
"1017 0 LINE",
"1132 0 LINE",
"1350 1242 LINE",
"1527 1268 LINE",
"1540 1341 LINE",
"1063 1341 LINE",
"1050 1268 LINE",
"1225 1242 LINE"
);
}
);
width = 1479;
}
);
note = N;
unicode = 004E;
},
{
glyphname = O;
lastChange = "2025-02-05 21:35:20 +0000";
layers = (
{
layerId = "1E4AACC9-6A88-4B03-8BB8-E9E25DEE74AF";
paths = (
{
closed = 1;
nodes = (
"1120 590 OFFCURVE",
"1022 314 OFFCURVE",
"885 182 CURVE SMOOTH",
"816 116 OFFCURVE",
"740 83 OFFCURVE",
"657 83 CURVE SMOOTH",
"478 83 OFFCURVE",
"375 234 OFFCURVE",
"375 485 CURVE SMOOTH",
"375 734 OFFCURVE",
"471 1018 OFFCURVE",
"608 1151 CURVE SMOOTH",
"676 1218 OFFCURVE",
"751 1251 OFFCURVE",
"832 1251 CURVE SMOOTH",
"1013 1251 OFFCURVE",
"1120 1096 OFFCURVE",
"1120 843 CURVE SMOOTH"
);
},
{
closed = 1;
nodes = (
"948 -20 OFFCURVE",
"1187 114 OFFCURVE",
"1321 376 CURVE SMOOTH",
"1388 507 OFFCURVE",
"1421 652 OFFCURVE",
"1421 812 CURVE SMOOTH",
"1421 1023 OFFCURVE",
"1322 1196 OFFCURVE",
"1151 1288 CURVE SMOOTH",
"1065 1333 OFFCURVE",
"967 1356 OFFCURVE",
"856 1356 CURVE SMOOTH",
"548 1356 OFFCURVE",
"303 1213 OFFCURVE",
"172 958 CURVE SMOOTH",
"107 830 OFFCURVE",
"74 685 OFFCURVE",
"74 524 CURVE SMOOTH",
"74 313 OFFCURVE",
"173 140 OFFCURVE",
"345 49 CURVE SMOOTH",
"430 3 OFFCURVE",
"528 -20 OFFCURVE",
"639 -20 CURVE SMOOTH"
);
}
);
width = 1479;
}
);
note = O;
unicode = 004F;
},
{
glyphname = P;
lastChange = "2025-02-05 21:35:20 +0000";
layers = (
{
layerId = "1E4AACC9-6A88-4B03-8BB8-E9E25DEE74AF";
paths = (
{
closed = 1;
nodes = (
"564 636 LINE",
"669 1230 LINE",
"738 1230 LINE SMOOTH",
"893 1230 OFFCURVE",
"971 1140 OFFCURVE",
"971 980 CURVE SMOOTH",
"971 768 OFFCURVE",
"847 636 OFFCURVE",
"643 636 CURVE SMOOTH"
);
},
{
closed = 1;
nodes = (
"687 526 LINE SMOOTH",
"1059 526 OFFCURVE",
"1264 694 OFFCURVE",
"1264 983 CURVE SMOOTH",
"1264 1220 OFFCURVE",
"1088 1341 OFFCURVE",
"749 1341 CURVE SMOOTH",
"218 1341 LINE",
"206 1268 LINE",
"374 1242 LINE",
"172 100 LINE",
"10 73 LINE",
"-1 0 LINE",
"676 0 LINE",
"687 73 LINE",
"468 100 LINE",
"544 526 LINE"
);
}
);
width = 1251;
}
);
note = P;
unicode = 0050;
},
{
glyphname = Q;
lastChange = "2025-02-05 21:35:20 +0000";
layers = (
{
layerId = "1E4AACC9-6A88-4B03-8BB8-E9E25DEE74AF";
paths = (
{
closed = 1;
nodes = (
"1421 1023 OFFCURVE",
"1322 1196 OFFCURVE",
"1151 1288 CURVE SMOOTH",
"1065 1333 OFFCURVE",
"967 1356 OFFCURVE",
"856 1356 CURVE SMOOTH",
"548 1356 OFFCURVE",
"303 1213 OFFCURVE",
"172 958 CURVE SMOOTH",
"107 830 OFFCURVE",
"74 685 OFFCURVE",
"74 524 CURVE SMOOTH",
"74 225 OFFCURVE",
"274 1 OFFCURVE",
"593 -18 CURVE",
"656 -123 OFFCURVE",
"705 -194 OFFCURVE",
"740 -229 CURVE SMOOTH",
"811 -301 OFFCURVE",
"890 -332 OFFCURVE",
"1007 -332 CURVE SMOOTH",
"1076 -332 OFFCURVE",
"1209 -307 OFFCURVE",
"1268 -283 CURVE",
"1255 -205 LINE",
"1210 -210 OFFCURVE",
"1180 -213 OFFCURVE",
"1166 -213 CURVE SMOOTH",
"1094 -213 OFFCURVE",
"1019 -152 OFFCURVE",
"942 -29 CURVE SMOOTH",
"910 20 LINE",
"1121 88 OFFCURVE",
"1279 248 OFFCURVE",
"1360 465 CURVE SMOOTH",
"1401 573 OFFCURVE",
"1421 689 OFFCURVE",
"1421 812 CURVE SMOOTH"
);
},
{
closed = 1;
nodes = (
"1120 590 OFFCURVE",
"1022 314 OFFCURVE",
"885 182 CURVE SMOOTH",
"816 116 OFFCURVE",
"740 83 OFFCURVE",
"657 83 CURVE SMOOTH",
"478 83 OFFCURVE",
"375 234 OFFCURVE",
"375 485 CURVE SMOOTH",
"375 734 OFFCURVE",
"471 1018 OFFCURVE",
"608 1151 CURVE SMOOTH",
"676 1218 OFFCURVE",
"751 1251 OFFCURVE",
"832 1251 CURVE SMOOTH",
"1013 1251 OFFCURVE",
"1120 1096 OFFCURVE",
"1120 843 CURVE SMOOTH"
);
}
);
width = 1479;
}
);
note = Q;
unicode = 0051;
},
{
glyphname = R;
lastChange = "2025-02-05 21:35:20 +0000";
layers = (
{
layerId = "1E4AACC9-6A88-4B03-8BB8-E9E25DEE74AF";
paths = (
{
closed = 1;
nodes = (
"668 568 LINE",
"876 0 LINE",
"1276 0 LINE",
"1288 73 LINE",
"1141 100 LINE",
"940 596 LINE",
"1153 653 OFFCURVE",
"1269 795 OFFCURVE",
"1269 1003 CURVE SMOOTH",
"1269 1232 OFFCURVE",
"1104 1341 OFFCURVE",
"755 1341 CURVE SMOOTH",
"220 1341 LINE",
"207 1268 LINE",
"374 1242 LINE",
"173 100 LINE",
"9 73 LINE",
"-3 0 LINE",
"624 0 LINE",
"636 73 LINE",
"469 100 LINE",
"552 568 LINE"
);
},
{
closed = 1;
nodes = (
"571 678 LINE",
"669 1231 LINE",
"738 1231 LINE SMOOTH",
"894 1231 OFFCURVE",
"976 1160 OFFCURVE",
"976 987 CURVE SMOOTH",
"976 792 OFFCURVE",
"845 678 OFFCURVE",
"626 678 CURVE SMOOTH"
);
}
);
width = 1366;
}
);
note = R;
unicode = 0052;
},
{
glyphname = S;
lastChange = "2025-02-05 21:35:20 +0000";
layers = (
{
layerId = "1E4AACC9-6A88-4B03-8BB8-E9E25DEE74AF";
paths = (
{
closed = 1;
nodes = (
"808 -20 OFFCURVE",
"1011 135 OFFCURVE",
"1011 423 CURVE SMOOTH",
"1011 524 OFFCURVE",
"976 598 OFFCURVE",
"921 658 CURVE SMOOTH",
"866 718 OFFCURVE",
"806 757 OFFCURVE",
"627 857 CURVE SMOOTH",
"504 925 OFFCURVE",
"448 989 OFFCURVE",
"448 1069 CURVE SMOOTH",
"448 1182 OFFCURVE",
"539 1252 OFFCURVE",
"690 1252 CURVE SMOOTH",
"777 1252 OFFCURVE",
"847 1231 OFFCURVE",
"901 1190 CURVE",
"908 994 LINE",
"997 994 LINE",
"1053 1313 LINE",
"943 1342 OFFCURVE",
"831 1356 OFFCURVE",
"717 1356 CURVE SMOOTH",
"376 1356 OFFCURVE",
"194 1224 OFFCURVE",
"194 979 CURVE SMOOTH",
"194 773 OFFCURVE",
"334 675 OFFCURVE",
"474 597 CURVE SMOOTH",
"614 517 OFFCURVE",
"753 453 OFFCURVE",
"753 311 CURVE SMOOTH",
"753 167 OFFCURVE",
"644 81 OFFCURVE",
"449 81 CURVE SMOOTH",
"341 81 OFFCURVE",
"235 131 OFFCURVE",
"190 196 CURVE",
"189 411 LINE",
"101 411 LINE",
"37 51 LINE",
"156 4 OFFCURVE",
"287 -20 OFFCURVE",
"432 -20 CURVE SMOOTH"
);
}
);
width = 1139;
}
);
note = S;
unicode = 0053;
},
{
glyphname = T;
lastChange = "2025-02-05 21:35:20 +0000";
layers = (
{
layerId = "1E4AACC9-6A88-4B03-8BB8-E9E25DEE74AF";
paths = (
{
closed = 1;
nodes = (
"889 0 LINE",
"901 73 LINE",
"693 100 LINE",
"893 1233 LINE",
"952 1233 LINE SMOOTH",
"1016 1233 OFFCURVE",
"1140 1223 OFFCURVE",
"1177 1215 CURVE",
"1164 966 LINE",
"1252 966 LINE",
"1318 1341 LINE",
"215 1341 LINE",
"149 966 LINE",
"236 966 LINE",
"311 1215 LINE",
"351 1223 OFFCURVE",
"461 1235 OFFCURVE",
"536 1235 CURVE SMOOTH",
"597 1235 LINE",
"397 100 LINE",
"179 73 LINE",
"167 0 LINE"
);
}
);
width = 1251;
}
);
note = T;
unicode = 0054;
},
{
glyphname = U;
lastChange = "2025-02-05 21:35:20 +0000";
layers = (
{
layerId = "1E4AACC9-6A88-4B03-8BB8-E9E25DEE74AF";
paths = (
{
closed = 1;
nodes = (
"314 1242 LINE",
"200 583 LINE SMOOTH",
"187 503 OFFCURVE",
"180 442 OFFCURVE",
"180 399 CURVE SMOOTH",
"180 131 OFFCURVE",
"364 -19 OFFCURVE",
"689 -19 CURVE SMOOTH",
"1013 -19 OFFCURVE",
"1202 134 OFFCURVE",
"1262 471 CURVE SMOOTH",
"1397 1242 LINE",
"1554 1268 LINE",
"1567 1341 LINE",
"1111 1341 LINE",
"1098 1268 LINE",
"1273 1242 LINE",
"1136 463 LINE SMOOTH",
"1096 240 OFFCURVE",
"955 122 OFFCURVE",
"740 122 CURVE SMOOTH",
"562 122 OFFCURVE",
"473 211 OFFCURVE",
"473 389 CURVE SMOOTH",
"473 434 OFFCURVE",
"481 499 OFFCURVE",
"496 586 CURVE SMOOTH",
"609 1242 LINE",
"786 1268 LINE",
"799 1341 LINE",
"180 1341 LINE",
"167 1268 LINE"
);
}
);
width = 1479;
}
);
note = U;
unicode = 0055;
},
{
glyphname = V;
lastChange = "2025-02-05 21:35:20 +0000";
layers = (
{
layerId = "1E4AACC9-6A88-4B03-8BB8-E9E25DEE74AF";
paths = (
{
closed = 1;
nodes = (
"1094 1341 LINE",
"1082 1268 LINE",
"1212 1241 LINE",
"725 362 LINE",
"523 1241 LINE",
"667 1268 LINE",
"679 1341 LINE",
"132 1341 LINE",
"120 1268 LINE",
"225 1241 LINE",
"526 -31 LINE",
"639 -31 LINE",
"1361 1241 LINE",
"1493 1268 LINE",
"1505 1341 LINE"
);
}
);
width = 1366;
}
);
note = V;
unicode = 0056;
},
{
glyphname = W;
lastChange = "2025-02-05 21:35:20 +0000";
layers = (
{
layerId = "1E4AACC9-6A88-4B03-8BB8-E9E25DEE74AF";
paths = (
{
closed = 1;
nodes = (
"1806 1242 LINE",
"1928 1268 LINE",
"1941 1341 LINE",
"1509 1341 LINE",
"1496 1268 LINE",
"1660 1242 LINE",
"1298 423 LINE",
"1146 1257 LINE",
"1046 1257 LINE",
"649 428 LINE",
"543 1242 LINE",
"705 1268 LINE",
"718 1341 LINE",
"154 1341 LINE",
"141 1268 LINE",
"271 1242 LINE",
"459 -31 LINE",
"560 -31 LINE",
"962 817 LINE",
"1120 -31 LINE",
"1214 -31 LINE"
);
}
);
width = 1821;
}
);
note = W;
unicode = 0057;
},
{
glyphname = X;
lastChange = "2025-02-05 21:35:20 +0000";
layers = (
{
layerId = "1E4AACC9-6A88-4B03-8BB8-E9E25DEE74AF";
paths = (
{
closed = 1;
nodes = (
"619 520 LINE",
"784 100 LINE",
"619 73 LINE",
"607 0 LINE",
"1220 0 LINE",
"1232 73 LINE",
"1085 100 LINE",
"826 760 LINE",
"1242 1242 LINE",
"1395 1268 LINE",
"1408 1341 LINE",
"959 1341 LINE",
"946 1268 LINE",
"1097 1242 LINE",
"781 875 LINE",
"638 1242 LINE",
"803 1268 LINE",
"816 1341 LINE",
"203 1341 LINE",
"190 1268 LINE",
"336 1242 LINE",
"574 635 LINE",
"113 100 LINE",
"-40 73 LINE",
"-52 0 LINE",
"396 0 LINE",
"408 73 LINE",
"257 100 LINE"
);
}
);
width = 1366;
}
);
note = X;
unicode = 0058;
},
{
glyphname = Y;
lastChange = "2025-02-05 21:35:20 +0000";
layers = (
{
layerId = "1E4AACC9-6A88-4B03-8BB8-E9E25DEE74AF";
paths = (
{
closed = 1;
nodes = (
"782 548 LINE",
"1248 1242 LINE",
"1395 1268 LINE",
"1408 1341 LINE",
"952 1341 LINE",
"939 1268 LINE",
"1098 1242 LINE",
"734 686 LINE",
"556 1242 LINE",
"741 1268 LINE",
"754 1341 LINE",
"118 1341 LINE",
"105 1268 LINE",
"251 1242 LINE",
"485 542 LINE",
"406 100 LINE",
"188 73 LINE",
"176 0 LINE",
"898 0 LINE",
"910 73 LINE",
"702 100 LINE"
);
}
);
width = 1251;
}
);
note = Y;
unicode = 0059;
},
{
glyphname = Z;
lastChange = "2025-02-05 21:35:20 +0000";
layers = (
{
layerId = "1E4AACC9-6A88-4B03-8BB8-E9E25DEE74AF";
paths = (
{
closed = 1;
nodes = (
"15 114 LINE",
"-5 0 LINE",
"1032 0 LINE",
"1128 393 LINE",
"1038 393 LINE",
"934 137 LINE",
"875 124 OFFCURVE",
"689 104 OFFCURVE",
"544 104 CURVE SMOOTH",
"357 104 LINE",
"1180 1235 LINE",
"1199 1341 LINE",
"258 1341 LINE",
"199 1004 LINE",
"288 1004 LINE",
"356 1215 LINE",
"399 1224 OFFCURVE",
"517 1235 OFFCURVE",
"649 1235 CURVE SMOOTH",
"841 1235 LINE"
);
}
);
width = 1251;
}
);
note = Z;
unicode = 005A;
},
{
glyphname = bracketleft;
lastChange = "2025-02-05 21:35:20 +0000";
layers = (
{
layerId = "1E4AACC9-6A88-4B03-8BB8-E9E25DEE74AF";
paths = (
{
closed = 1;
nodes = (
"487 -274 LINE",
"499 -207 LINE",
"303 -166 LINE",
"564 1313 LINE",
"774 1354 LINE",
"786 1421 LINE",
"350 1421 LINE",
"51 -274 LINE"
);
}
);
width = 682;
}
);
note = bracketleft;
unicode = 005B;
},
{
glyphname = backslash;
lastChange = "2025-02-05 21:35:20 +0000";
layers = (
{
layerId = "1E4AACC9-6A88-4B03-8BB8-E9E25DEE74AF";
paths = (
{
closed = 1;
nodes = (
"469 -20 LINE",
"257 1349 LINE",
"130 1349 LINE",
"339 -20 LINE"
);
}
);
width = 569;
}
);
note = backslash;
unicode = 005C;
},
{
glyphname = bracketright;
lastChange = "2025-02-05 21:35:20 +0000";
layers = (
{
layerId = "1E4AACC9-6A88-4B03-8BB8-E9E25DEE74AF";
paths = (
{
closed = 1;
nodes = (
"330 -274 LINE",
"629 1421 LINE",
"193 1421 LINE",
"181 1354 LINE",
"377 1313 LINE",
"116 -166 LINE",
"-94 -207 LINE",
"-106 -274 LINE"
);
}
);
width = 682;
}
);
note = bracketright;
unicode = 005D;
},
{
glyphname = asciicircum;
lastChange = "2025-02-05 21:35:20 +0000";
layers = (
{
layerId = "1E4AACC9-6A88-4B03-8BB8-E9E25DEE74AF";
paths = (
{
closed = 1;
nodes = (
"1077 389 LINE",
"649 1341 LINE",
"559 1341 LINE",
"131 389 LINE",
"274 389 LINE",
"604 1150 LINE",
"934 389 LINE"
);
}
);
width = 1167;
}
);
note = asciicircum;
unicode = 005E;
},
{
glyphname = underscore;
lastChange = "2025-02-05 21:35:20 +0000";
layers = (
{
layerId = "1E4AACC9-6A88-4B03-8BB8-E9E25DEE74AF";
paths = (
{
closed = 1;
nodes = (
"903 -285 LINE",
"903 -141 LINE",
"-153 -141 LINE",
"-153 -285 LINE"
);
}
);
width = 1024;
}
);
note = underscore;
unicode = 005F;
},
{
glyphname = grave;
lastChange = "2025-02-05 21:35:20 +0000";
layers = (
{
layerId = "1E4AACC9-6A88-4B03-8BB8-E9E25DEE74AF";
paths = (
{
closed = 1;
nodes = (
"633 1118 LINE",
"639 1150 LINE",
"502 1423 LINE",
"237 1423 LINE",
"230 1386 LINE",
"547 1118 LINE"
);
}
);
width = 682;
}
);
note = grave;
unicode = 0060;
},
{
glyphname = a;
lastChange = "2025-02-05 21:35:20 +0000";
layers = (
{
layerId = "1E4AACC9-6A88-4B03-8BB8-E9E25DEE74AF";
paths = (
{
closed = 1;
nodes = (
"975 956 LINE",
"921 956 LINE",
"839 919 LINE",
"764 949 OFFCURVE",
"680 964 OFFCURVE",
"588 964 CURVE SMOOTH",
"379 964 OFFCURVE",
"194 843 OFFCURVE",
"97 644 CURVE SMOOTH",
"48 544 OFFCURVE",
"24 436 OFFCURVE",
"24 319 CURVE SMOOTH",
"24 106 OFFCURVE",
"121 -21 OFFCURVE",
"288 -21 CURVE SMOOTH",
"391 -21 OFFCURVE",
"494 39 OFFCURVE",
"573 138 CURVE",
"577 0 LINE",
"924 0 LINE",
"932 58 LINE",
"823 90 LINE"
);
},
{
closed = 1;
nodes = (
"287 524 OFFCURVE",
"339 699 OFFCURVE",
"423 793 CURVE SMOOTH",
"465 840 OFFCURVE",
"511 863 OFFCURVE",
"560 863 CURVE SMOOTH",
"613 863 OFFCURVE",
"654 852 OFFCURVE",
"684 829 CURVE",
"585 266 LINE",
"533 187 OFFCURVE",
"461 127 OFFCURVE",
"408 127 CURVE SMOOTH",
"339 127 OFFCURVE",
"287 214 OFFCURVE",
"287 351 CURVE SMOOTH"
);
}
);
width = 1024;
}
);
note = a;
unicode = 0061;
},
{
glyphname = b;
lastChange = "2025-02-05 21:35:20 +0000";
layers = (
{
layerId = "1E4AACC9-6A88-4B03-8BB8-E9E25DEE74AF";
paths = (
{
closed = 1;
nodes = (
"700 419 OFFCURVE",
"648 244 OFFCURVE",
"567 148 CURVE SMOOTH",
"526 100 OFFCURVE",
"483 76 OFFCURVE",
"437 76 CURVE SMOOTH",
"396 76 OFFCURVE",
"335 99 OFFCURVE",
"308 124 CURVE",
"405 674 LINE",
"462 757 OFFCURVE",
"531 813 OFFCURVE",
"579 813 CURVE SMOOTH",
"651 813 OFFCURVE",
"700 727 OFFCURVE",
"700 587 CURVE SMOOTH"
);
},
{
closed = 1;
nodes = (
"641 -23 OFFCURVE",
"803 97 OFFCURVE",
"895 302 CURVE SMOOTH",
"940 404 OFFCURVE",
"963 514 OFFCURVE",
"963 631 CURVE SMOOTH",
"963 838 OFFCURVE",
"861 965 OFFCURVE",
"701 965 CURVE SMOOTH",
"601 965 OFFCURVE",
"501 905 OFFCURVE",
"420 797 CURVE",
"435 848 OFFCURVE",
"449 913 OFFCURVE",
"462 991 CURVE SMOOTH",
"538 1421 LINE",
"173 1421 LINE",
"162 1356 LINE",
"254 1333 LINE",
"27 48 LINE",
"142 1 OFFCURVE",
"304 -23 OFFCURVE",
"449 -23 CURVE SMOOTH"
);
}
);
width = 1024;
}
);
note = b;
unicode = 0062;
},
{
glyphname = c;
lastChange = "2025-02-05 21:35:20 +0000";
layers = (
{
layerId = "1E4AACC9-6A88-4B03-8BB8-E9E25DEE74AF";
paths = (
{
closed = 1;
nodes = (
"519 -20 OFFCURVE",
"661 38 OFFCURVE",
"770 135 CURVE",
"726 198 LINE",
"650 145 OFFCURVE",
"571 104 OFFCURVE",
"471 104 CURVE SMOOTH",
"358 104 OFFCURVE",
"298 191 OFFCURVE",
"298 340 CURVE SMOOTH",
"298 528 OFFCURVE",
"355 699 OFFCURVE",
"449 793 CURVE SMOOTH",
"496 840 OFFCURVE",
"545 863 OFFCURVE",
"598 863 CURVE SMOOTH",
"659 863 OFFCURVE",
"708 843 OFFCURVE",
"744 803 CURVE",
"758 632 LINE",
"830 632 LINE",
"879 920 LINE",
"808 944 OFFCURVE",
"681 965 OFFCURVE",
"585 965 CURVE SMOOTH",
"385 965 OFFCURVE",
"202 853 OFFCURVE",
"104 660 CURVE SMOOTH",
"55 563 OFFCURVE",
"30 453 OFFCURVE",
"30 330 CURVE SMOOTH",
"30 111 OFFCURVE",
"162 -20 OFFCURVE",
"391 -20 CURVE SMOOTH"
);
}
);
width = 909;
}
);
note = c;
unicode = 0063;
},
{
glyphname = d;
lastChange = "2025-02-05 21:35:20 +0000";
layers = (
{
layerId = "1E4AACC9-6A88-4B03-8BB8-E9E25DEE74AF";
paths = (
{
closed = 1;
nodes = (
"373 -20 OFFCURVE",
"481 39 OFFCURVE",
"560 144 CURVE",
"567 0 LINE",
"899 0 LINE",
"911 60 LINE",
"812 85 LINE",
"1049 1421 LINE",
"614 1421 LINE",
"602 1356 LINE",
"762 1332 LINE",
"716 1060 LINE",
"705 966 LINE",
"702 936 LINE",
"659 955 OFFCURVE",
"601 964 OFFCURVE",
"528 964 CURVE SMOOTH",
"339 964 OFFCURVE",
"175 839 OFFCURVE",
"89 638 CURVE SMOOTH",
"46 537 OFFCURVE",
"24 428 OFFCURVE",
"24 310 CURVE SMOOTH",
"24 105 OFFCURVE",
"124 -20 OFFCURVE",
"276 -20 CURVE SMOOTH"
);
},
{
closed = 1;
nodes = (
"287 523 OFFCURVE",
"336 699 OFFCURVE",
"414 794 CURVE SMOOTH",
"453 841 OFFCURVE",
"495 865 OFFCURVE",
"540 865 CURVE SMOOTH",
"581 865 OFFCURVE",
"647 844 OFFCURVE",
"674 817 CURVE",
"577 267 LINE",
"521 188 OFFCURVE",
"441 128 OFFCURVE",
"390 128 CURVE SMOOTH",
"359 128 OFFCURVE",
"335 148 OFFCURVE",
"316 187 CURVE SMOOTH",
"297 226 OFFCURVE",
"287 282 OFFCURVE",
"287 354 CURVE SMOOTH"
);
}
);
width = 1024;
}
);
note = d;
unicode = 0064;
},
{
glyphname = e;
lastChange = "2025-02-05 21:35:20 +0000";
layers = (
{
layerId = "1E4AACC9-6A88-4B03-8BB8-E9E25DEE74AF";
paths = (
{
closed = 1;
nodes = (
"864 885 OFFCURVE",
"747 965 OFFCURVE",
"563 965 CURVE SMOOTH",
"391 965 OFFCURVE",
"218 845 OFFCURVE",
"121 649 CURVE SMOOTH",
"72 551 OFFCURVE",
"48 445 OFFCURVE",
"48 330 CURVE SMOOTH",
"48 101 OFFCURVE",
"175 -20 OFFCURVE",
"411 -20 CURVE SMOOTH",
"538 -20 OFFCURVE",
"683 36 OFFCURVE",
"800 135 CURVE",
"756 198 LINE",
"683 149 OFFCURVE",
"600 104 OFFCURVE",
"501 104 CURVE SMOOTH",
"380 104 OFFCURVE",
"320 183 OFFCURVE",
"320 340 CURVE SMOOTH",
"320 372 OFFCURVE",
"322 395 OFFCURVE",
"325 408 CURVE",
"536 424 OFFCURVE",
"710 493 OFFCURVE",
"798 594 CURVE SMOOTH",
"842 645 OFFCURVE",
"864 700 OFFCURVE",
"864 760 CURVE SMOOTH"
);
},
{
closed = 1;
nodes = (
"370 701 OFFCURVE",
"459 857 OFFCURVE",
"551 857 CURVE SMOOTH",
"588 857 OFFCURVE",
"620 829 OFFCURVE",
"620 773 CURVE SMOOTH",
"620 638 OFFCURVE",
"504 525 OFFCURVE",
"341 508 CURVE"
);
}
);
width = 909;
}
);
note = e;
unicode = 0065;
},
{
glyphname = f;
lastChange = "2025-02-05 21:35:20 +0000";
layers = (
{
layerId = "1E4AACC9-6A88-4B03-8BB8-E9E25DEE74AF";
paths = (
{
closed = 1;
nodes = (
"0 -436 LINE",
"269 -436 LINE",
"491 836 LINE",
"697 836 LINE",
"715 940 LINE",
"509 940 LINE",
"538 1098 LINE SMOOTH",
"554 1183 OFFCURVE",
"573 1243 OFFCURVE",
"595 1279 CURVE SMOOTH",
"617 1314 OFFCURVE",
"646 1332 OFFCURVE",
"681 1332 CURVE SMOOTH",
"704 1332 OFFCURVE",
"723 1325 OFFCURVE",
"737 1311 CURVE",
"749 1199 LINE",
"813 1199 LINE",
"852 1421 LINE",
"807 1435 OFFCURVE",
"754 1442 OFFCURVE",
"693 1442 CURVE SMOOTH",
"456 1442 OFFCURVE",
"313 1330 OFFCURVE",
"264 1066 CURVE SMOOTH",
"241 944 LINE",
"72 905 LINE",
"60 836 LINE",
"222 836 LINE"
);
}
);
width = 682;
}
);
note = f;
unicode = 0066;
},
{
glyphname = g;
lastChange = "2025-02-05 21:35:20 +0000";
layers = (
{
layerId = "1E4AACC9-6A88-4B03-8BB8-E9E25DEE74AF";
paths = (
{
closed = 1;
nodes = (
"292 527 OFFCURVE",
"344 705 OFFCURVE",
"425 797 CURVE SMOOTH",
"466 843 OFFCURVE",
"511 866 OFFCURVE",
"560 866 CURVE SMOOTH",
"607 866 OFFCURVE",
"650 858 OFFCURVE",
"689 841 CURVE",
"582 259 LINE",
"522 179 OFFCURVE",
"454 129 OFFCURVE",
"407 129 CURVE SMOOTH",
"340 129 OFFCURVE",
"292 214 OFFCURVE",
"292 355 CURVE SMOOTH"
);
},
{
closed = 1;
nodes = (
"29 106 OFFCURVE",
"132 -23 OFFCURVE",
"288 -23 CURVE SMOOTH",
"384 -23 OFFCURVE",
"491 40 OFFCURVE",
"572 145 CURVE",
"557 96 OFFCURVE",
"541 23 OFFCURVE",
"525 -75 CURVE SMOOTH",
"494 -254 OFFCURVE",
"434 -327 OFFCURVE",
"295 -327 CURVE SMOOTH",
"203 -327 OFFCURVE",
"124 -292 OFFCURVE",
"76 -243 CURVE",
"40 -112 LINE",
"-16 -112 LINE",
"-38 -365 LINE",
"34 -406 OFFCURVE",
"170 -436 OFFCURVE",
"294 -436 CURVE SMOOTH",
"587 -436 OFFCURVE",
"747 -311 OFFCURVE",
"798 -35 CURVE SMOOTH",
"970 923 LINE",
"802 951 OFFCURVE",
"664 965 OFFCURVE",
"555 965 CURVE SMOOTH",
"354 965 OFFCURVE",
"188 847 OFFCURVE",
"97 643 CURVE SMOOTH",
"52 541 OFFCURVE",
"29 430 OFFCURVE",
"29 311 CURVE SMOOTH"
);
}
);
width = 1024;
}
);
note = g;
unicode = 0067;
},
{
glyphname = h;
lastChange = "2025-02-05 21:35:20 +0000";
layers = (
{
layerId = "1E4AACC9-6A88-4B03-8BB8-E9E25DEE74AF";
paths = (
{
closed = 1;
nodes = (
"443 798 LINE",
"475 958 LINE",
"559 1421 LINE",
"194 1421 LINE",
"183 1355 LINE",
"274 1331 LINE",
"40 0 LINE",
"306 0 LINE",
"412 594 LINE",
"463 711 OFFCURVE",
"587 822 OFFCURVE",
"671 822 CURVE SMOOTH",
"732 822 OFFCURVE",
"762 790 OFFCURVE",
"762 725 CURVE SMOOTH",
"762 698 OFFCURVE",
"755 646 OFFCURVE",
"740 569 CURVE SMOOTH",
"638 0 LINE",
"1024 0 LINE",
"1037 66 LINE",
"921 90 LINE",
"1016 621 LINE SMOOTH",
"1027 683 OFFCURVE",
"1033 731 OFFCURVE",
"1033 766 CURVE SMOOTH",
"1033 889 OFFCURVE",
"947 965 OFFCURVE",
"818 965 CURVE SMOOTH",
"666 965 OFFCURVE",
"539 900 OFFCURVE",
"436 769 CURVE"
);
}
);
width = 1139;
}
);
note = h;
unicode = 0068;
},
{
glyphname = i;
lastChange = "2025-02-05 21:35:20 +0000";
layers = (
{
layerId = "1E4AACC9-6A88-4B03-8BB8-E9E25DEE74AF";
paths = (
{
closed = 1;
nodes = (
"487 940 LINE",
"122 940 LINE",
"111 874 LINE",
"202 850 LINE",
"52 0 LINE",
"445 0 LINE",
"456 66 LINE",
"337 90 LINE"
);
},
{
closed = 1;
nodes = (
"253 1181 OFFCURVE",
"322 1114 OFFCURVE",
"407 1114 CURVE SMOOTH",
"494 1114 OFFCURVE",
"560 1184 OFFCURVE",
"560 1268 CURVE SMOOTH",
"560 1353 OFFCURVE",
"492 1421 OFFCURVE",
"407 1421 CURVE SMOOTH",
"323 1421 OFFCURVE",
"253 1355 OFFCURVE",
"253 1268 CURVE SMOOTH"
);
}
);
width = 569;
}
);
note = i;
unicode = 0069;
},
{
glyphname = j;
lastChange = "2025-02-05 21:35:20 +0000";
layers = (
{
layerId = "1E4AACC9-6A88-4B03-8BB8-E9E25DEE74AF";
paths = (
{
closed = 1;
nodes = (
"136 -436 OFFCURVE",
"281 -300 OFFCURVE",
"328 -39 CURVE SMOOTH",
"500 940 LINE",
"65 940 LINE",
"54 874 LINE",
"214 840 LINE",
"53 -71 LINE SMOOTH",
"39 -152 OFFCURVE",
"19 -214 OFFCURVE",
"-6 -259 CURVE SMOOTH",
"-32 -304 OFFCURVE",
"-62 -326 OFFCURVE",
"-97 -326 CURVE SMOOTH",
"-114 -326 OFFCURVE",
"-129 -321 OFFCURVE",
"-142 -311 CURVE",
"-166 -193 LINE",
"-229 -193 LINE",
"-268 -418 LINE",
"-215 -430 OFFCURVE",
"-159 -436 OFFCURVE",
"-100 -436 CURVE SMOOTH"
);
},
{
closed = 1;
nodes = (
"268 1181 OFFCURVE",
"337 1114 OFFCURVE",
"422 1114 CURVE SMOOTH",
"509 1114 OFFCURVE",
"575 1184 OFFCURVE",
"575 1268 CURVE SMOOTH",
"575 1353 OFFCURVE",
"507 1421 OFFCURVE",
"422 1421 CURVE SMOOTH",
"338 1421 OFFCURVE",
"268 1355 OFFCURVE",
"268 1268 CURVE SMOOTH"
);
}
);
width = 569;
}
);
note = j;
unicode = 006A;
},
{
glyphname = k;
lastChange = "2025-02-05 21:35:20 +0000";
layers = (
{
layerId = "1E4AACC9-6A88-4B03-8BB8-E9E25DEE74AF";
paths = (
{
closed = 1;
nodes = (
"548 1421 LINE",
"183 1421 LINE",
"171 1355 LINE",
"263 1331 LINE",
"28 0 LINE",
"297 0 LINE",
"365 383 LINE",
"473 453 LINE",
"639 0 LINE",
"953 0 LINE",
"964 66 LINE",
"884 90 LINE",
"662 628 LINE",
"905 852 LINE",
"997 874 LINE",
"1008 940 LINE",
"664 940 LINE",
"653 874 LINE",
"739 851 LINE",
"388 507 LINE"
);
}
);
width = 1024;
}
);
note = k;
unicode = 006B;
},
{
glyphname = l;
lastChange = "2025-02-05 21:35:20 +0000";
layers = (
{
layerId = "1E4AACC9-6A88-4B03-8BB8-E9E25DEE74AF";
paths = (
{
closed = 1;
nodes = (
"566 1421 LINE",
"201 1421 LINE",
"190 1355 LINE",
"281 1331 LINE",
"45 0 LINE",
"438 0 LINE",
"449 66 LINE",
"330 90 LINE"
);
}
);
width = 569;
}
);
note = l;
unicode = 006C;
},
{
glyphname = m;
lastChange = "2025-02-05 21:35:20 +0000";
layers = (
{
layerId = "1E4AACC9-6A88-4B03-8BB8-E9E25DEE74AF";
paths = (
{
closed = 1;
nodes = (
"1220 698 OFFCURVE",
"1213 646 OFFCURVE",
"1198 569 CURVE SMOOTH",
"1096 0 LINE",
"1482 0 LINE",
"1495 66 LINE",
"1379 90 LINE",
"1474 622 LINE SMOOTH",
"1485 685 OFFCURVE",
"1491 729 OFFCURVE",
"1491 754 CURVE SMOOTH",
"1491 887 OFFCURVE",
"1416 965 OFFCURVE",
"1299 965 CURVE SMOOTH",
"1168 965 OFFCURVE",
"1055 899 OFFCURVE",
"961 767 CURVE",
"960 891 OFFCURVE",
"889 965 OFFCURVE",
"770 965 CURVE SMOOTH",
"637 965 OFFCURVE",
"532 903 OFFCURVE",
"436 772 CURVE",
"439 940 LINE",
"111 940 LINE",
"98 874 LINE",
"187 849 LINE",
"39 0 LINE",
"305 0 LINE",
"411 594 LINE",
"459 721 OFFCURVE",
"553 822 OFFCURVE",
"617 822 CURVE SMOOTH",
"666 822 OFFCURVE",
"691 790 OFFCURVE",
"691 725 CURVE SMOOTH",
"691 698 OFFCURVE",
"684 646 OFFCURVE",
"669 569 CURVE SMOOTH",
"567 0 LINE",
"834 0 LINE",
"933 563 LINE SMOOTH",
"956 690 OFFCURVE",
"1079 822 OFFCURVE",
"1148 822 CURVE SMOOTH",
"1196 822 OFFCURVE",
"1220 790 OFFCURVE",
"1220 725 CURVE SMOOTH"
);
}
);
width = 1593;
}
);
note = m;
unicode = 006D;
},
{
glyphname = n;
lastChange = "2025-02-05 21:35:20 +0000";
layers = (
{
layerId = "1E4AACC9-6A88-4B03-8BB8-E9E25DEE74AF";
paths = (
{
closed = 1;
nodes = (
"764 698 OFFCURVE",
"757 646 OFFCURVE",
"742 569 CURVE SMOOTH",
"640 0 LINE",
"1026 0 LINE",
"1039 66 LINE",
"923 90 LINE",
"1010 580 LINE SMOOTH",
"1027 667 OFFCURVE",
"1035 728 OFFCURVE",
"1035 763 CURVE SMOOTH",
"1035 891 OFFCURVE",
"952 965 OFFCURVE",
"820 965 CURVE SMOOTH",
"670 965 OFFCURVE",
"543 898 OFFCURVE",
"440 765 CURVE",
"448 940 LINE",
"114 940 LINE",
"101 874 LINE",
"190 849 LINE",
"42 0 LINE",
"308 0 LINE",
"414 594 LINE",
"465 711 OFFCURVE",
"589 822 OFFCURVE",
"673 822 CURVE SMOOTH",
"734 822 OFFCURVE",
"764 790 OFFCURVE",
"764 725 CURVE SMOOTH"
);
}
);
width = 1139;
}
);
note = n;
unicode = 006E;
},
{
glyphname = o;
lastChange = "2025-02-05 21:35:20 +0000";
layers = (
{
layerId = "1E4AACC9-6A88-4B03-8BB8-E9E25DEE74AF";
paths = (
{
closed = 1;
nodes = (
"683 430 OFFCURVE",
"633 252 OFFCURVE",
"553 153 CURVE SMOOTH",
"513 104 OFFCURVE",
"472 79 OFFCURVE",
"429 79 CURVE SMOOTH",
"352 79 OFFCURVE",
"297 166 OFFCURVE",
"297 319 CURVE SMOOTH",
"297 504 OFFCURVE",
"352 689 OFFCURVE",
"434 790 CURVE SMOOTH",
"475 841 OFFCURVE",
"516 866 OFFCURVE",
"558 866 CURVE SMOOTH",
"641 866 OFFCURVE",
"683 786 OFFCURVE",
"683 625 CURVE SMOOTH"
);
},
{
closed = 1;
nodes = (
"615 -20 OFFCURVE",
"791 92 OFFCURVE",
"884 273 CURVE SMOOTH",
"931 364 OFFCURVE",
"954 463 OFFCURVE",
"954 571 CURVE SMOOTH",
"954 811 OFFCURVE",
"807 965 OFFCURVE",
"580 965 CURVE SMOOTH",
"371 965 OFFCURVE",
"195 853 OFFCURVE",
"102 672 CURVE SMOOTH",
"55 581 OFFCURVE",
"32 482 OFFCURVE",
"32 374 CURVE SMOOTH",
"32 134 OFFCURVE",
"179 -20 OFFCURVE",
"406 -20 CURVE SMOOTH"
);
}
);
width = 1024;
}
);
note = o;
unicode = 006F;
},
{
glyphname = p;
lastChange = "2025-02-05 21:35:20 +0000";
layers = (
{
layerId = "1E4AACC9-6A88-4B03-8BB8-E9E25DEE74AF";
paths = (
{
closed = 1;
nodes = (
"962 836 OFFCURVE",
"859 965 OFFCURVE",
"703 965 CURVE SMOOTH",
"608 965 OFFCURVE",
"519 911 OFFCURVE",
"436 802 CURVE",
"442 940 LINE",
"97 940 LINE",
"85 880 LINE",
"184 855 LINE",
"-30 -347 LINE",
"-134 -371 LINE",
"-146 -436 LINE",
"390 -436 LINE",
"402 -371 LINE",
"242 -347 LINE",
"280 -111 LINE",
"292 -16 LINE",
"294 13 LINE",
"340 -9 OFFCURVE",
"392 -20 OFFCURVE",
"449 -20 CURVE SMOOTH",
"645 -20 OFFCURVE",
"810 104 OFFCURVE",
"897 304 CURVE SMOOTH",
"940 403 OFFCURVE",
"962 512 OFFCURVE",
"962 631 CURVE SMOOTH"
);
},
{
closed = 1;
nodes = (
"699 416 OFFCURVE",
"651 244 OFFCURVE",
"571 150 CURVE SMOOTH",
"530 103 OFFCURVE",
"486 79 OFFCURVE",
"438 79 CURVE SMOOTH",
"405 79 OFFCURVE",
"354 95 OFFCURVE",
"322 127 CURVE",
"420 680 LINE",
"487 769 OFFCURVE",
"543 813 OFFCURVE",
"588 813 CURVE SMOOTH",
"655 813 OFFCURVE",
"699 727 OFFCURVE",
"699 587 CURVE SMOOTH"
);
}
);
width = 1024;
}
);
note = p;
unicode = 0070;
},
{
glyphname = q;
lastChange = "2025-02-05 21:35:20 +0000";
layers = (
{
layerId = "1E4AACC9-6A88-4B03-8BB8-E9E25DEE74AF";
paths = (
{
closed = 1;
nodes = (
"289 631 OFFCURVE",
"405 866 OFFCURVE",
"554 866 CURVE SMOOTH",
"606 866 OFFCURVE",
"652 858 OFFCURVE",
"691 841 CURVE",
"586 268 LINE",
"527 188 OFFCURVE",
"448 129 OFFCURVE",
"403 129 CURVE SMOOTH",
"338 129 OFFCURVE",
"289 214 OFFCURVE",
"289 355 CURVE SMOOTH"
);
},
{
closed = 1;
nodes = (
"340 965 OFFCURVE",
"177 843 OFFCURVE",
"91 643 CURVE SMOOTH",
"48 542 OFFCURVE",
"26 432 OFFCURVE",
"26 311 CURVE SMOOTH",
"26 107 OFFCURVE",
"127 -23 OFFCURVE",
"284 -23 CURVE SMOOTH",
"380 -23 OFFCURVE",
"498 44 OFFCURVE",
"574 145 CURVE",
"559 94 OFFCURVE",
"545 29 OFFCURVE",
"532 -49 CURVE SMOOTH",
"459 -436 LINE",
"824 -436 LINE",
"835 -371 LINE",
"743 -348 LINE",
"972 923 LINE",
"826 951 OFFCURVE",
"682 965 OFFCURVE",
"540 965 CURVE SMOOTH"
);
}
);
width = 1024;
}
);
note = q;
unicode = 0071;
},
{
glyphname = r;
lastChange = "2025-02-05 21:35:20 +0000";
layers = (
{
layerId = "1E4AACC9-6A88-4B03-8BB8-E9E25DEE74AF";
paths = (
{
closed = 1;
nodes = (
"461 940 LINE",
"86 940 LINE",
"75 874 LINE",
"192 850 LINE",
"42 0 LINE",
"311 0 LINE",
"416 596 LINE",
"485 707 OFFCURVE",
"555 755 OFFCURVE",
"655 755 CURVE",
"699 618 LINE",
"754 618 LINE",
"812 955 LINE",
"789 962 OFFCURVE",
"761 965 OFFCURVE",
"729 965 CURVE SMOOTH",
"624 965 OFFCURVE",
"511 881 OFFCURVE",
"438 738 CURVE"
);
}
);
width = 797;
}
);
note = r;
unicode = 0072;
},
{
glyphname = s;
lastChange = "2025-02-05 21:35:20 +0000";
layers = (
{
layerId = "1E4AACC9-6A88-4B03-8BB8-E9E25DEE74AF";
paths = (
{
closed = 1;
nodes = (
"693 382 OFFCURVE",
"662 442 OFFCURVE",
"607 494 CURVE SMOOTH",
"579 519 OFFCURVE",
"533 550 OFFCURVE",
"470 585 CURVE SMOOTH",
"403 622 OFFCURVE",
"360 652 OFFCURVE",
"341 675 CURVE SMOOTH",
"321 698 OFFCURVE",
"311 722 OFFCURVE",
"311 748 CURVE SMOOTH",
"311 821 OFFCURVE",
"357 871 OFFCURVE",
"458 871 CURVE SMOOTH",
"526 871 OFFCURVE",
"584 837 OFFCURVE",
"612 802 CURVE",
"625 692 LINE",
"691 692 LINE",
"734 933 LINE",
"638 954 OFFCURVE",
"551 965 OFFCURVE",
"472 965 CURVE SMOOTH",
"221 965 OFFCURVE",
"95 870 OFFCURVE",
"95 680 CURVE SMOOTH",
"95 568 OFFCURVE",
"150 482 OFFCURVE",
"298 399 CURVE SMOOTH",
"364 361 LINE SMOOTH",
"439 318 OFFCURVE",
"473 277 OFFCURVE",
"473 225 CURVE SMOOTH",
"473 138 OFFCURVE",
"402 73 OFFCURVE",
"293 73 CURVE SMOOTH",
"218 73 OFFCURVE",
"159 103 OFFCURVE",
"116 163 CURVE",
"101 295 LINE",
"35 295 LINE",
"-11 34 LINE",
"46 9 OFFCURVE",
"183 -20 OFFCURVE",
"286 -20 CURVE SMOOTH",
"557 -20 OFFCURVE",
"693 94 OFFCURVE",
"693 297 CURVE SMOOTH"
);
}
);
width = 797;
}
);
note = s;
unicode = 0073;
},
{
glyphname = t;
lastChange = "2025-02-05 21:35:20 +0000";
layers = (
{
layerId = "1E4AACC9-6A88-4B03-8BB8-E9E25DEE74AF";
paths = (
{
closed = 1;
nodes = (
"377 106 OFFCURVE",
"337 136 OFFCURVE",
"337 207 CURVE SMOOTH",
"337 232 OFFCURVE",
"342 272 OFFCURVE",
"353 327 CURVE SMOOTH",
"444 836 LINE",
"602 836 LINE",
"620 940 LINE",
"462 940 LINE",
"500 1153 LINE",
"354 1153 LINE",
"215 940 LINE",
"73 901 LINE",
"62 836 LINE",
"177 836 LINE",
"85 329 LINE SMOOTH",
"73 264 OFFCURVE",
"67 216 OFFCURVE",
"67 185 CURVE SMOOTH",
"67 52 OFFCURVE",
"149 -20 OFFCURVE",
"296 -20 CURVE SMOOTH",
"387 -20 OFFCURVE",
"499 15 OFFCURVE",
"564 62 CURVE",
"538 132 LINE",
"487 115 OFFCURVE",
"451 106 OFFCURVE",
"428 106 CURVE SMOOTH"
);
}
);
width = 569;
}
);
note = t;
unicode = 0074;
},
{
glyphname = u;
lastChange = "2025-02-05 21:35:20 +0000";
layers = (
{
layerId = "1E4AACC9-6A88-4B03-8BB8-E9E25DEE74AF";
paths = (
{
closed = 1;
nodes = (
"350 243 OFFCURVE",
"357 295 OFFCURVE",
"372 372 CURVE SMOOTH",
"474 940 LINE",
"88 940 LINE",
"75 874 LINE",
"191 850 LINE",
"125 482 OFFCURVE",
"90 283 OFFCURVE",
"86 252 CURVE SMOOTH",
"81 221 OFFCURVE",
"79 200 OFFCURVE",
"79 187 CURVE SMOOTH",
"79 51 OFFCURVE",
"159 -24 OFFCURVE",
"294 -24 CURVE SMOOTH",
"444 -24 OFFCURVE",
"571 43 OFFCURVE",
"674 176 CURVE",
"666 0 LINE",
"1020 0 LINE",
"1033 66 LINE",
"924 91 LINE",
"1072 940 LINE",
"806 940 LINE",
"700 347 LINE",
"653 234 OFFCURVE",
"526 119 OFFCURVE",
"441 119 CURVE SMOOTH",
"380 119 OFFCURVE",
"350 151 OFFCURVE",
"350 216 CURVE SMOOTH"
);
}
);
width = 1139;
}
);
note = u;
unicode = 0075;
},
{
glyphname = v;
lastChange = "2025-02-05 21:35:20 +0000";
layers = (
{
layerId = "1E4AACC9-6A88-4B03-8BB8-E9E25DEE74AF";
paths = (
{
closed = 1;
nodes = (
"30 941 LINE",
"19 875 LINE",
"80 851 LINE",
"284 -20 LINE",
"407 -20 LINE",
"844 657 LINE SMOOTH",
"899 742 OFFCURVE",
"927 816 OFFCURVE",
"927 877 CURVE SMOOTH",
"927 904 OFFCURVE",
"918 925 OFFCURVE",
"901 940 CURVE",
"670 940 LINE",
"658 875 LINE",
"708 861 OFFCURVE",
"726 851 OFFCURVE",
"740 824 CURVE SMOOTH",
"745 813 OFFCURVE",
"748 798 OFFCURVE",
"748 781 CURVE SMOOTH",
"748 738 OFFCURVE",
"725 668 OFFCURVE",
"682 601 CURVE SMOOTH",
"479 287 LINE",
"330 941 LINE"
);
}
);
width = 909;
}
);
note = v;
unicode = 0076;
},
{
glyphname = w;
lastChange = "2025-02-05 21:35:20 +0000";
layers = (
{
layerId = "1E4AACC9-6A88-4B03-8BB8-E9E25DEE74AF";
paths = (
{
closed = 1;
nodes = (
"1185 726 OFFCURVE",
"1156 629 OFFCURVE",
"1129 580 CURVE SMOOTH",
"964 282 LINE",
"852 846 LINE",
"752 846 LINE",
"443 282 LINE",
"317 940 LINE",
"13 940 LINE",
"2 874 LINE",
"82 850 LINE",
"253 -20 LINE",
"386 -20 LINE",
"682 518 LINE",
"785 -20 LINE",
"904 -20 LINE",
"1306 657 LINE SMOOTH",
"1351 732 OFFCURVE",
"1373 800 OFFCURVE",
"1373 859 CURVE SMOOTH",
"1373 897 OFFCURVE",
"1363 924 OFFCURVE",
"1342 940 CURVE",
"1097 940 LINE",
"1085 875 LINE",
"1121 865 LINE SMOOTH",
"1164 852 OFFCURVE",
"1185 822 OFFCURVE",
"1185 775 CURVE SMOOTH"
);
}
);
width = 1366;
}
);
note = w;
unicode = 0077;
},
{
glyphname = x;
lastChange = "2025-02-05 21:35:20 +0000";
layers = (
{
layerId = "1E4AACC9-6A88-4B03-8BB8-E9E25DEE74AF";
paths = (
{
closed = 1;
nodes = (
"629 0 LINE",
"931 0 LINE",
"942 65 LINE",
"856 86 LINE",
"628 533 LINE",
"836 707 LINE SMOOTH",
"928 784 OFFCURVE",
"974 847 OFFCURVE",
"974 897 CURVE SMOOTH",
"974 915 OFFCURVE",
"967 929 OFFCURVE",
"953 940 CURVE",
"740 940 LINE",
"728 875 LINE",
"765 868 OFFCURVE",
"783 855 OFFCURVE",
"783 836 CURVE SMOOTH",
"783 795 OFFCURVE",
"750 753 OFFCURVE",
"685 700 CURVE SMOOTH",
"583 615 LINE",
"418 940 LINE",
"119 940 LINE",
"108 875 LINE",
"194 850 LINE",
"396 460 LINE",
"112 221 LINE SMOOTH",
"64 181 OFFCURVE",
"29 147 OFFCURVE",
"8 120 CURVE SMOOTH",
"-14 92 OFFCURVE",
"-25 66 OFFCURVE",
"-25 43 CURVE SMOOTH",
"-25 23 OFFCURVE",
"-20 9 OFFCURVE",
"-9 0 CURVE",
"212 0 LINE",
"224 65 LINE",
"196 71 OFFCURVE",
"182 84 OFFCURVE",
"182 104 CURVE SMOOTH",
"182 137 OFFCURVE",
"193 155 OFFCURVE",
"219 184 CURVE SMOOTH",
"232 198 OFFCURVE",
"250 215 OFFCURVE",
"274 236 CURVE SMOOTH",
"439 374 LINE"
);
}
);
width = 1024;
}
);
note = x;
unicode = 0078;
},
{
glyphname = y;
lastChange = "2025-02-05 21:35:20 +0000";
layers = (
{
layerId = "1E4AACC9-6A88-4B03-8BB8-E9E25DEE74AF";
paths = (
{
closed = 1;
nodes = (
"915 904 OFFCURVE",
"906 925 OFFCURVE",
"889 940 CURVE",
"658 940 LINE",
"646 875 LINE",
"696 861 OFFCURVE",
"714 851 OFFCURVE",
"728 824 CURVE SMOOTH",
"733 813 OFFCURVE",
"736 798 OFFCURVE",
"736 781 CURVE SMOOTH",
"736 740 OFFCURVE",
"708 660 OFFCURVE",
"672 601 CURVE SMOOTH",
"491 301 LINE",
"339 940 LINE",
"36 940 LINE",
"25 874 LINE",
"86 850 LINE",
"300 -5 LINE",
"226 -130 OFFCURVE",
"165 -215 OFFCURVE",
"118 -261 CURVE SMOOTH",
"71 -307 OFFCURVE",
"27 -330 OFFCURVE",
"-13 -330 CURVE SMOOTH",
"-43 -330 OFFCURVE",
"-66 -322 OFFCURVE",
"-83 -307 CURVE",
"-103 -181 LINE",
"-163 -181 LINE",
"-205 -423 LINE",
"-140 -439 OFFCURVE",
"-112 -442 OFFCURVE",
"-44 -442 CURVE SMOOTH",
"57 -442 OFFCURVE",
"146 -390 OFFCURVE",
"234 -290 CURVE SMOOTH",
"277 -241 OFFCURVE",
"331 -164 OFFCURVE",
"395 -59 CURVE SMOOTH",
"834 657 LINE SMOOTH",
"888 744 OFFCURVE",
"915 817 OFFCURVE",
"915 877 CURVE SMOOTH"
);
}
);
width = 909;
}
);
note = y;
unicode = 0079;
},
{
glyphname = z;
lastChange = "2025-02-05 21:35:20 +0000";
layers = (
{
layerId = "1E4AACC9-6A88-4B03-8BB8-E9E25DEE74AF";
paths = (
{
closed = 1;
nodes = (
"639 0 LINE",
"713 315 LINE",
"641 315 LINE",
"559 137 LINE",
"516 110 OFFCURVE",
"422 90 OFFCURVE",
"347 90 CURVE SMOOTH",
"264 90 LINE",
"780 886 LINE",
"789 940 LINE",
"129 940 LINE",
"80 660 LINE",
"152 660 LINE",
"212 815 LINE",
"245 836 OFFCURVE",
"324 850 OFFCURVE",
"396 850 CURVE SMOOTH",
"466 850 LINE",
"-50 50 LINE",
"-58 0 LINE"
);
}
);
width = 797;
}
);
note = z;
unicode = 007A;
},
{
glyphname = braceleft;
lastChange = "2025-02-05 21:35:20 +0000";
layers = (
{
layerId = "1E4AACC9-6A88-4B03-8BB8-E9E25DEE74AF";
paths = (
{
closed = 1;
nodes = (
"537 -274 LINE",
"553 -187 LINE",
"491 -187 LINE SMOOTH",
"415 -187 OFFCURVE",
"381 -134 OFFCURVE",
"381 -53 CURVE SMOOTH",
"381 -34 OFFCURVE",
"383 -14 OFFCURVE",
"387 8 CURVE SMOOTH",
"440 312 LINE",
"445 365 LINE",
"445 472 OFFCURVE",
"383 542 OFFCURVE",
"283 565 CURVE",
"283 568 LINE",
"410 593 OFFCURVE",
"507 691 OFFCURVE",
"530 819 CURVE SMOOTH",
"594 1179 LINE SMOOTH",
"614 1294 OFFCURVE",
"667 1334 OFFCURVE",
"759 1334 CURVE SMOOTH",
"821 1334 LINE",
"836 1421 LINE",
"701 1421 LINE SMOOTH",
"494 1421 OFFCURVE",
"385 1336 OFFCURVE",
"352 1148 CURVE SMOOTH",
"297 834 LINE SMOOTH",
"270 682 OFFCURVE",
"180 622 OFFCURVE",
"43 618 CURVE",
"28 533 LINE",
"145 529 OFFCURVE",
"211 485 OFFCURVE",
"211 376 CURVE SMOOTH",
"211 357 OFFCURVE",
"209 337 OFFCURVE",
"205 315 CURVE SMOOTH",
"157 40 LINE SMOOTH",
"152 15 OFFCURVE",
"150 -11 OFFCURVE",
"150 -38 CURVE SMOOTH",
"150 -189 OFFCURVE",
"239 -274 OFFCURVE",
"402 -274 CURVE SMOOTH"
);
}
);
width = 713;
}
);
note = braceleft;
unicode = 007B;
},
{
glyphname = bar;
lastChange = "2025-02-05 21:35:20 +0000";
layers = (
{
layerId = "1E4AACC9-6A88-4B03-8BB8-E9E25DEE74AF";
paths = (
{
closed = 1;
nodes = (
"282 -442 LINE",
"282 1421 LINE",
"139 1421 LINE",
"139 -442 LINE"
);
}
);
width = 451;
}
);
note = bar;
unicode = 007C;
},
{
glyphname = braceright;
lastChange = "2025-02-05 21:35:20 +0000";
layers = (
{
layerId = "1E4AACC9-6A88-4B03-8BB8-E9E25DEE74AF";
paths = (
{
closed = 1;
nodes = (
"15 -274 LINE SMOOTH",
"222 -274 OFFCURVE",
"332 -181 OFFCURVE",
"364 0 CURVE SMOOTH",
"420 315 LINE SMOOTH",
"445 459 OFFCURVE",
"525 528 OFFCURVE",
"673 533 CURVE",
"688 618 LINE",
"567 621 OFFCURVE",
"506 672 OFFCURVE",
"506 773 CURVE SMOOTH",
"506 792 OFFCURVE",
"508 812 OFFCURVE",
"512 834 CURVE SMOOTH",
"559 1108 LINE SMOOTH",
"564 1137 OFFCURVE",
"567 1165 OFFCURVE",
"567 1190 CURVE SMOOTH",
"567 1331 OFFCURVE",
"487 1421 OFFCURVE",
"314 1421 CURVE SMOOTH",
"179 1421 LINE",
"164 1334 LINE",
"226 1334 LINE SMOOTH",
"301 1334 OFFCURVE",
"335 1282 OFFCURVE",
"335 1201 CURVE SMOOTH",
"335 1182 OFFCURVE",
"333 1161 OFFCURVE",
"329 1139 CURVE SMOOTH",
"277 839 LINE",
"272 788 LINE",
"272 681 OFFCURVE",
"338 609 OFFCURVE",
"434 588 CURVE",
"434 585 LINE",
"303 557 OFFCURVE",
"210 463 OFFCURVE",
"187 332 CURVE SMOOTH",
"122 -32 LINE SMOOTH",
"102 -147 OFFCURVE",
"50 -187 OFFCURVE",
"-42 -187 CURVE SMOOTH",
"-104 -187 LINE",
"-120 -274 LINE"
);
}
);
width = 713;
}
);
note = braceright;
unicode = 007D;
},
{
glyphname = asciitilde;
lastChange = "2025-02-05 21:35:20 +0000";
layers = (
{
layerId = "1E4AACC9-6A88-4B03-8BB8-E9E25DEE74AF";
paths = (
{
closed = 1;
nodes = (
"1011 481 OFFCURVE",
"1087 605 OFFCURVE",
"1122 866 CURVE",
"978 866 LINE",
"958 697 OFFCURVE",
"919 624 OFFCURVE",
"831 624 CURVE SMOOTH",
"792 624 OFFCURVE",
"741 652 OFFCURVE",
"677 709 CURVE SMOOTH",
"526 838 OFFCURVE",
"453 866 OFFCURVE",
"376 866 CURVE SMOOTH",
"189 866 OFFCURVE",
"112 739 OFFCURVE",
"86 481 CURVE",
"227 481 LINE",
"244 656 OFFCURVE",
"281 723 OFFCURVE",
"376 723 CURVE SMOOTH",
"398 723 OFFCURVE",
"423 715 OFFCURVE",
"451 699 CURVE SMOOTH",
"478 682 OFFCURVE",
"521 650 OFFCURVE",
"578 602 CURVE SMOOTH",
"677 519 OFFCURVE",
"755 481 OFFCURVE",
"831 481 CURVE SMOOTH"
);
}
);
width = 1167;
}
);
note = asciitilde;
unicode = 007E;
},
{
glyphname = dagger;
lastChange = "2025-02-05 21:35:20 +0000";
layers = (
{
layerId = "1E4AACC9-6A88-4B03-8BB8-E9E25DEE74AF";
paths = (
{
closed = 1;
nodes = (
"624 920 LINE",
"1018 854 LINE",
"1060 1090 LINE",
"642 1026 LINE",
"778 1421 LINE",
"540 1421 LINE",
"536 1026 LINE",
"142 1090 LINE",
"100 854 LINE",
"518 920 LINE",
"410 760 LINE",
"333 -240 LINE",
"399 -240 LINE",
"676 760 LINE"
);
}
);
width = 1024;
}
);
note = dagger;
unicode = 2020;
},
{
glyphname = degree;
lastChange = "2025-02-05 21:35:20 +0000";
layers = (
{
layerId = "1E4AACC9-6A88-4B03-8BB8-E9E25DEE74AF";
paths = (
{
closed = 1;
nodes = (
"184 878 OFFCURVE",
"321 741 OFFCURVE",
"494 741 CURVE SMOOTH",
"603 741 OFFCURVE",
"706 798 OFFCURVE",
"763 895 CURVE SMOOTH",
"791 943 OFFCURVE",
"805 995 OFFCURVE",
"805 1051 CURVE SMOOTH",
"805 1163 OFFCURVE",
"745 1265 OFFCURVE",
"649 1321 CURVE SMOOTH",
"601 1348 OFFCURVE",
"549 1362 OFFCURVE",
"494 1362 CURVE SMOOTH",
"383 1362 OFFCURVE",
"280 1302 OFFCURVE",
"225 1206 CURVE SMOOTH",
"198 1158 OFFCURVE",
"184 1106 OFFCURVE",
"184 1051 CURVE SMOOTH"
);
},
{
closed = 1;
nodes = (
"602 1250 OFFCURVE",
"685 1164 OFFCURVE",
"685 1049 CURVE SMOOTH",
"685 938 OFFCURVE",
"601 850 OFFCURVE",
"493 850 CURVE SMOOTH",
"388 850 OFFCURVE",
"303 938 OFFCURVE",
"303 1049 CURVE SMOOTH",
"303 1164 OFFCURVE",
"386 1250 OFFCURVE",
"493 1250 CURVE SMOOTH"
);
}
);
width = 819;
}
);
note = degree;
unicode = 00B0;
},
{
glyphname = cent;
lastChange = "2025-02-05 21:35:20 +0000";
layers = (
{
layerId = "1E4AACC9-6A88-4B03-8BB8-E9E25DEE74AF";
paths = (
{
closed = 1;
nodes = (
"839 411 LINE",
"754 353 OFFCURVE",
"678 320 OFFCURVE",
"611 311 CURVE",
"743 1065 LINE",
"792 1057 OFFCURVE",
"830 1038 OFFCURVE",
"857 1008 CURVE",
"871 837 LINE",
"943 837 LINE",
"992 1125 LINE",
"934 1144 OFFCURVE",
"857 1158 OFFCURVE",
"761 1167 CURVE",
"792 1341 LINE",
"700 1341 LINE",
"670 1169 LINE",
"474 1164 OFFCURVE",
"292 1049 OFFCURVE",
"196 859 CURVE SMOOTH",
"147 764 OFFCURVE",
"123 656 OFFCURVE",
"123 535 CURVE SMOOTH",
"123 320 OFFCURVE",
"264 185 OFFCURVE",
"496 185 CURVE",
"464 0 LINE",
"556 0 LINE",
"590 195 LINE",
"692 216 OFFCURVE",
"790 267 OFFCURVE",
"883 348 CURVE"
);
},
{
closed = 1;
nodes = (
"391 710 OFFCURVE",
"439 869 OFFCURVE",
"520 969 CURVE SMOOTH",
"560 1019 OFFCURVE",
"604 1051 OFFCURVE",
"651 1065 CURVE",
"518 312 LINE",
"446 333 OFFCURVE",
"391 409 OFFCURVE",
"391 545 CURVE SMOOTH"
);
}
);
width = 1024;
}
);
note = cent;
unicode = 00A2;
},
{
glyphname = sterling;
lastChange = "2025-02-05 21:35:20 +0000";
layers = (
{
layerId = "1E4AACC9-6A88-4B03-8BB8-E9E25DEE74AF";
paths = (
{
closed = 1;
nodes = (
"295 203 LINE",
"390 291 OFFCURVE",
"447 422 OFFCURVE",
"447 551 CURVE SMOOTH",
"447 587 LINE",
"446 620 LINE",
"689 620 LINE",
"707 721 LINE",
"445 721 LINE",
"442 822 LINE SMOOTH",
"442 1091 OFFCURVE",
"535 1255 OFFCURVE",
"710 1255 CURVE SMOOTH",
"769 1255 OFFCURVE",
"825 1237 OFFCURVE",
"876 1202 CURVE",
"885 1008 LINE",
"972 1008 LINE",
"1026 1313 LINE",
"870 1350 OFFCURVE",
"804 1356 OFFCURVE",
"723 1356 CURVE SMOOTH",
"374 1356 OFFCURVE",
"189 1197 OFFCURVE",
"189 902 CURVE SMOOTH",
"189 847 OFFCURVE",
"198 787 OFFCURVE",
"215 721 CURVE",
"127 721 LINE",
"109 620 LINE",
"270 620 LINE",
"283 571 OFFCURVE",
"289 527 OFFCURVE",
"289 489 CURVE SMOOTH",
"289 380 OFFCURVE",
"229 284 OFFCURVE",
"110 195 CURVE SMOOTH",
"16 123 LINE",
"-5 0 LINE",
"868 0 LINE",
"905 203 LINE"
);
}
);
width = 1024;
}
);
note = sterling;
unicode = 00A3;
},
{
glyphname = section;
lastChange = "2025-02-05 21:35:20 +0000";
layers = (
{
layerId = "1E4AACC9-6A88-4B03-8BB8-E9E25DEE74AF";
paths = (
{
closed = 1;
nodes = (
"768 161 OFFCURVE",
"722 245 OFFCURVE",
"611 329 CURVE",
"806 381 OFFCURVE",
"914 499 OFFCURVE",
"914 663 CURVE SMOOTH",
"914 791 OFFCURVE",
"839 866 OFFCURVE",
"694 947 CURVE SMOOTH",
"613 992 LINE SMOOTH",
"520 1043 OFFCURVE",
"473 1096 OFFCURVE",
"473 1159 CURVE SMOOTH",
"473 1243 OFFCURVE",
"531 1296 OFFCURVE",
"636 1296 CURVE SMOOTH",
"697 1296 OFFCURVE",
"773 1269 OFFCURVE",
"805 1230 CURVE",
"818 1120 LINE",
"884 1120 LINE",
"926 1361 LINE",
"815 1380 OFFCURVE",
"724 1390 OFFCURVE",
"653 1390 CURVE SMOOTH",
"402 1390 OFFCURVE",
"261 1284 OFFCURVE",
"261 1096 CURVE SMOOTH",
"261 995 OFFCURVE",
"316 910 OFFCURVE",
"411 854 CURVE",
"228 807 OFFCURVE",
"123 691 OFFCURVE",
"123 538 CURVE SMOOTH",
"123 419 OFFCURVE",
"193 325 OFFCURVE",
"337 236 CURVE SMOOTH",
"420 184 OFFCURVE",
"476 141 OFFCURVE",
"506 108 CURVE SMOOTH",
"536 75 OFFCURVE",
"551 39 OFFCURVE",
"551 0 CURVE SMOOTH",
"551 -97 OFFCURVE",
"473 -162 OFFCURVE",
"356 -162 CURVE SMOOTH",
"284 -162 OFFCURVE",
"210 -130 OFFCURVE",
"163 -75 CURVE",
"149 57 LINE",
"83 57 LINE",
"37 -204 LINE",
"93 -228 OFFCURVE",
"233 -255 OFFCURVE",
"334 -255 CURVE SMOOTH",
"625 -255 OFFCURVE",
"768 -142 OFFCURVE",
"768 57 CURVE SMOOTH"
);
},
{
closed = 1;
nodes = (
"379 484 OFFCURVE",
"337 540 OFFCURVE",
"337 608 CURVE SMOOTH",
"337 692 OFFCURVE",
"419 765 OFFCURVE",
"518 781 CURVE",
"658 716 OFFCURVE",
"696 667 OFFCURVE",
"696 599 CURVE SMOOTH",
"696 511 OFFCURVE",
"613 428 OFFCURVE",
"514 407 CURVE"
);
}
);
width = 1024;
}
);
note = section;
unicode = 00A7;
},
{
glyphname = bullet;
lastChange = "2025-02-05 21:35:20 +0000";
layers = (
{
layerId = "1E4AACC9-6A88-4B03-8BB8-E9E25DEE74AF";
paths = (
{
closed = 1;
nodes = (
"525 401 OFFCURVE",
"650 523 OFFCURVE",
"650 678 CURVE SMOOTH",
"650 833 OFFCURVE",
"525 955 OFFCURVE",
"373 955 CURVE SMOOTH",
"221 955 OFFCURVE",
"96 833 OFFCURVE",
"96 678 CURVE SMOOTH",
"96 523 OFFCURVE",
"221 401 OFFCURVE",
"373 401 CURVE SMOOTH"
);
}
);
width = 717;
}
);
note = bullet;
unicode = 2022;
},
{
glyphname = paragraph;
lastChange = "2025-02-05 21:35:20 +0000";
layers = (
{
layerId = "1E4AACC9-6A88-4B03-8BB8-E9E25DEE74AF";
paths = (
{
closed = 1;
nodes = (
"957 1268 LINE",
"957 1341 LINE",
"469 1341 LINE SMOOTH",
"192 1341 OFFCURVE",
"35 1200 OFFCURVE",
"35 952 CURVE SMOOTH",
"35 705 OFFCURVE",
"200 554 OFFCURVE",
"459 545 CURVE",
"459 -258 LINE",
"599 -258 LINE",
"599 1245 LINE",
"734 1245 LINE",
"734 -258 LINE",
"874 -258 LINE",
"874 1245 LINE"
);
}
);
width = 1024;
}
);
note = paragraph;
unicode = 00B6;
},
{
glyphname = germandbls;
lastChange = "2025-02-05 21:35:20 +0000";
layers = (
{
layerId = "1E4AACC9-6A88-4B03-8BB8-E9E25DEE74AF";
paths = (
{
closed = 1;
nodes = (
"753 919 OFFCURVE",
"834 985 OFFCURVE",
"990 985 CURVE",
"997 1038 OFFCURVE",
"1001 1082 OFFCURVE",
"1001 1117 CURVE SMOOTH",
"1001 1332 OFFCURVE",
"897 1442 OFFCURVE",
"664 1442 CURVE SMOOTH",
"388 1442 OFFCURVE",
"234 1293 OFFCURVE",
"174 952 CURVE SMOOTH",
"22 90 LINE",
"-64 66 LINE",
"-75 0 LINE",
"276 0 LINE",
"443 952 LINE SMOOTH",
"468 1098 OFFCURVE",
"496 1199 OFFCURVE",
"525 1256 CURVE SMOOTH",
"554 1313 OFFCURVE",
"592 1341 OFFCURVE",
"640 1341 CURVE SMOOTH",
"712 1341 OFFCURVE",
"743 1287 OFFCURVE",
"743 1176 CURVE SMOOTH",
"743 1141 OFFCURVE",
"739 1094 OFFCURVE",
"731 1033 CURVE",
"598 994 OFFCURVE",
"510 869 OFFCURVE",
"510 721 CURVE SMOOTH",
"510 645 OFFCURVE",
"534 579 OFFCURVE",
"581 522 CURVE SMOOTH",
"625 471 OFFCURVE",
"655 433 OFFCURVE",
"670 408 CURVE SMOOTH",
"700 359 OFFCURVE",
"717 311 OFFCURVE",
"717 252 CURVE SMOOTH",
"717 140 OFFCURVE",
"662 73 OFFCURVE",
"575 73 CURVE SMOOTH",
"538 73 OFFCURVE",
"506 85 OFFCURVE",
"478 110 CURVE",
"461 244 LINE",
"395 244 LINE",
"360 21 LINE",
"395 2 OFFCURVE",
"471 -20 OFFCURVE",
"578 -20 CURVE SMOOTH",
"822 -20 OFFCURVE",
"965 117 OFFCURVE",
"965 336 CURVE SMOOTH",
"965 423 OFFCURVE",
"941 486 OFFCURVE",
"848 599 CURVE SMOOTH",
"783 678 OFFCURVE",
"753 739 OFFCURVE",
"753 802 CURVE SMOOTH"
);
}
);
width = 1024;
}
);
note = germandbls;
unicode = 00DF;
},
{
glyphname = registered;
lastChange = "2025-02-05 21:35:20 +0000";
layers = (
{
layerId = "1E4AACC9-6A88-4B03-8BB8-E9E25DEE74AF";
paths = (
{
closed = 1;
nodes = (
"1469 922 OFFCURVE",
"1337 1147 OFFCURVE",
"1124 1270 CURVE SMOOTH",
"1017 1331 OFFCURVE",
"902 1362 OFFCURVE",
"777 1362 CURVE SMOOTH",
"529 1362 OFFCURVE",
"305 1234 OFFCURVE",
"181 1020 CURVE SMOOTH",
"118 913 OFFCURVE",
"87 796 OFFCURVE",
"87 670 CURVE SMOOTH",
"87 422 OFFCURVE",
"218 195 OFFCURVE",
"431 72 CURVE SMOOTH",
"538 11 OFFCURVE",
"653 -20 OFFCURVE",
"777 -20 CURVE SMOOTH",
"1030 -20 OFFCURVE",
"1258 115 OFFCURVE",
"1379 327 CURVE SMOOTH",
"1439 432 OFFCURVE",
"1469 547 OFFCURVE",
"1469 670 CURVE SMOOTH"
);
},
{
closed = 1;
nodes = (
"1191 276 LINE",
"1191 334 LINE",
"1121 350 LINE",
"914 639 LINE",
"1031 676 OFFCURVE",
"1093 757 OFFCURVE",
"1093 860 CURVE SMOOTH",
"1093 1001 OFFCURVE",
"985 1081 OFFCURVE",
"777 1081 CURVE SMOOTH",
"427 1081 LINE",
"427 1026 LINE",
"511 1010 LINE",
"511 350 LINE",
"435 334 LINE",
"435 276 LINE",
"781 276 LINE",
"781 334 LINE",
"687 350 LINE",
"687 619 LINE",
"736 619 LINE",
"966 276 LINE"
);
},
{
closed = 1;
nodes = (
"910 735 OFFCURVE",
"849 694 OFFCURVE",
"710 694 CURVE SMOOTH",
"687 694 LINE",
"687 1006 LINE",
"706 1006 LINE SMOOTH",
"866 1006 OFFCURVE",
"910 967 OFFCURVE",
"910 858 CURVE SMOOTH"
);
},
{
closed = 1;
nodes = (
"997 1278 OFFCURVE",
"1192 1160 OFFCURVE",
"1299 973 CURVE SMOOTH",
"1352 879 OFFCURVE",
"1379 778 OFFCURVE",
"1379 670 CURVE SMOOTH",
"1379 454 OFFCURVE",
"1263 251 OFFCURVE",
"1077 144 CURVE SMOOTH",
"984 90 OFFCURVE",
"884 63 OFFCURVE",
"777 63 CURVE SMOOTH",
"561 63 OFFCURVE",
"365 177 OFFCURVE",
"258 366 CURVE SMOOTH",
"204 460 OFFCURVE",
"177 561 OFFCURVE",
"177 670 CURVE SMOOTH",
"177 889 OFFCURVE",
"292 1089 OFFCURVE",
"477 1197 CURVE SMOOTH",
"570 1251 OFFCURVE",
"670 1278 OFFCURVE",
"777 1278 CURVE SMOOTH"
);
}
);
width = 1530;
}
);
note = registered;
unicode = 00AE;
},
{
glyphname = copyright;
lastChange = "2025-02-05 21:35:20 +0000";
layers = (
{
layerId = "1E4AACC9-6A88-4B03-8BB8-E9E25DEE74AF";
paths = (
{
closed = 1;
nodes = (
"87 422 OFFCURVE",
"218 195 OFFCURVE",
"431 72 CURVE SMOOTH",
"538 11 OFFCURVE",
"653 -20 OFFCURVE",
"777 -20 CURVE SMOOTH",
"1030 -20 OFFCURVE",
"1258 115 OFFCURVE",
"1379 327 CURVE SMOOTH",
"1439 432 OFFCURVE",
"1469 547 OFFCURVE",
"1469 670 CURVE SMOOTH",
"1469 922 OFFCURVE",
"1337 1147 OFFCURVE",
"1124 1270 CURVE SMOOTH",
"1017 1331 OFFCURVE",
"902 1362 OFFCURVE",
"777 1362 CURVE SMOOTH",
"529 1362 OFFCURVE",
"305 1234 OFFCURVE",
"181 1020 CURVE SMOOTH",
"118 913 OFFCURVE",
"87 796 OFFCURVE",
"87 670 CURVE SMOOTH"
);
},
{
closed = 1;
nodes = (
"916 254 OFFCURVE",
"1010 267 OFFCURVE",
"1095 293 CURVE",
"1099 512 LINE",
"1029 512 LINE",
"1007 393 LINE",
"958 354 OFFCURVE",
"893 334 OFFCURVE",
"812 334 CURVE SMOOTH",
"640 334 OFFCURVE",
"576 446 OFFCURVE",
"576 666 CURVE SMOOTH",
"576 919 OFFCURVE",
"645 1008 OFFCURVE",
"818 1008 CURVE SMOOTH",
"894 1008 OFFCURVE",
"943 990 OFFCURVE",
"998 957 CURVE",
"1017 852 LINE",
"1086 852 LINE",
"1082 1059 LINE",
"982 1079 OFFCURVE",
"893 1089 OFFCURVE",
"814 1089 CURVE SMOOTH",
"538 1089 OFFCURVE",
"386 941 OFFCURVE",
"386 664 CURVE SMOOTH",
"386 413 OFFCURVE",
"547 254 OFFCURVE",
"812 254 CURVE SMOOTH"
);
},
{
closed = 1;
nodes = (
"997 1278 OFFCURVE",
"1192 1160 OFFCURVE",
"1299 973 CURVE SMOOTH",
"1352 879 OFFCURVE",
"1379 778 OFFCURVE",
"1379 670 CURVE SMOOTH",
"1379 454 OFFCURVE",
"1263 251 OFFCURVE",
"1077 144 CURVE SMOOTH",
"984 90 OFFCURVE",
"884 63 OFFCURVE",
"777 63 CURVE SMOOTH",
"561 63 OFFCURVE",
"365 177 OFFCURVE",
"258 366 CURVE SMOOTH",
"204 460 OFFCURVE",
"177 561 OFFCURVE",
"177 670 CURVE SMOOTH",
"177 889 OFFCURVE",
"292 1089 OFFCURVE",
"477 1197 CURVE SMOOTH",
"570 1251 OFFCURVE",
"670 1278 OFFCURVE",
"777 1278 CURVE SMOOTH"
);
}
);
width = 1530;
}
);
note = copyright;
unicode = 00A9;
},
{
glyphname = trademark;
lastChange = "2025-02-05 21:35:20 +0000";
layers = (
{
layerId = "1E4AACC9-6A88-4B03-8BB8-E9E25DEE74AF";
paths = (
{
closed = 1;
nodes = (
"738 538 LINE",
"738 598 LINE",
"610 614 LINE",
"610 1274 LINE",
"640 1274 LINE SMOOTH",
"700 1274 OFFCURVE",
"754 1270 OFFCURVE",
"801 1261 CURVE",
"817 1112 LINE",
"888 1112 LINE",
"888 1343 LINE",
"146 1343 LINE",
"146 1112 LINE",
"217 1112 LINE",
"233 1261 LINE",
"302 1274 OFFCURVE",
"333 1275 OFFCURVE",
"390 1275 CURVE SMOOTH",
"421 1275 LINE",
"421 614 LINE",
"293 598 LINE",
"293 538 LINE"
);
},
{
closed = 1;
nodes = (
"1742 1200 LINE",
"1742 614 LINE",
"1634 598 LINE",
"1634 538 LINE",
"2034 538 LINE",
"2034 598 LINE",
"1931 614 LINE",
"1931 1267 LINE",
"2034 1283 LINE",
"2034 1343 LINE",
"1712 1343 LINE",
"1494 848 LINE",
"1280 1343 LINE",
"945 1343 LINE",
"945 1283 LINE",
"1048 1267 LINE",
"1048 614 LINE",
"945 598 LINE",
"945 538 LINE",
"1241 538 LINE",
"1241 598 LINE",
"1138 614 LINE",
"1138 1183 LINE",
"1416 538 LINE",
"1449 538 LINE"
);
}
);
width = 2048;
}
);
note = trademark;
unicode = 2122;
},
{
glyphname = acute;
lastChange = "2025-02-05 21:35:20 +0000";
layers = (
{
layerId = "1E4AACC9-6A88-4B03-8BB8-E9E25DEE74AF";
paths = (
{
closed = 1;
nodes = (
"339 1118 LINE",
"736 1386 LINE",
"740 1423 LINE",
"455 1423 LINE",
"259 1151 LINE",
"253 1118 LINE"
);
}
);
width = 682;
}
);
note = acute;
unicode = 00B4;
},
{
glyphname = dieresis;
lastChange = "2025-02-05 21:35:20 +0000";
layers = (
{
layerId = "1E4AACC9-6A88-4B03-8BB8-E9E25DEE74AF";
paths = (
{
closed = 1;
nodes = (
"705 1130 OFFCURVE",
"759 1184 OFFCURVE",
"759 1251 CURVE SMOOTH",
"759 1319 OFFCURVE",
"705 1370 OFFCURVE",
"640 1370 CURVE SMOOTH",
"576 1370 OFFCURVE",
"519 1318 OFFCURVE",
"519 1251 CURVE SMOOTH",
"519 1184 OFFCURVE",
"576 1130 OFFCURVE",
"640 1130 CURVE SMOOTH"
);
},
{
closed = 1;
nodes = (
"349 1130 OFFCURVE",
"403 1184 OFFCURVE",
"403 1251 CURVE SMOOTH",
"403 1315 OFFCURVE",
"349 1370 OFFCURVE",
"284 1370 CURVE SMOOTH",
"219 1370 OFFCURVE",
"163 1315 OFFCURVE",
"163 1251 CURVE SMOOTH",
"163 1188 OFFCURVE",
"220 1130 OFFCURVE",
"284 1130 CURVE SMOOTH"
);
}
);
width = 682;
}
);
note = dieresis;
unicode = 00A8;
},
{
glyphname = notequal;
lastChange = "2025-02-05 21:35:20 +0000";
layers = (
{
layerId = "1E4AACC9-6A88-4B03-8BB8-E9E25DEE74AF";
paths = (
{
closed = 1;
nodes = (
"876 1220 LINE",
"691 956 LINE",
"106 956 LINE",
"106 813 LINE",
"591 813 LINE",
"405 547 LINE",
"106 547 LINE",
"106 403 LINE",
"305 403 LINE",
"121 140 LINE",
"274 140 LINE",
"458 403 LINE",
"1058 403 LINE",
"1058 547 LINE",
"558 547 LINE",
"744 813 LINE",
"1058 813 LINE",
"1058 956 LINE",
"844 956 LINE",
"1029 1220 LINE"
);
}
);
width = 1124;
}
);
note = notequal;
unicode = 2260;
},
{
glyphname = AE;
lastChange = "2025-02-05 21:35:20 +0000";
layers = (
{
layerId = "1E4AACC9-6A88-4B03-8BB8-E9E25DEE74AF";
paths = (
{
closed = 1;
nodes = (
"-24 100 LINE",
"-149 73 LINE",
"-161 0 LINE",
"271 0 LINE",
"283 73 LINE",
"134 100 LINE",
"388 447 LINE",
"800 447 LINE",
"739 100 LINE",
"562 73 LINE",
"550 0 LINE",
"1669 0 LINE",
"1753 374 LINE",
"1662 374 LINE",
"1562 126 LINE",
"1505 115 OFFCURVE",
"1412 110 OFFCURVE",
"1281 110 CURVE SMOOTH",
"1036 110 LINE",
"1127 627 LINE",
"1410 627 LINE",
"1414 475 LINE",
"1503 475 LINE",
"1576 887 LINE",
"1487 887 LINE",
"1430 739 LINE",
"1147 739 LINE",
"1234 1231 LINE",
"1434 1231 LINE SMOOTH",
"1536 1231 OFFCURVE",
"1623 1226 OFFCURVE",
"1695 1217 CURVE",
"1689 1000 LINE",
"1780 1000 LINE",
"1840 1341 LINE",
"699 1341 LINE",
"687 1270 LINE",
"828 1252 LINE"
);
},
{
closed = 1;
nodes = (
"469 557 LINE",
"932 1198 LINE",
"820 557 LINE"
);
}
);
width = 1933;
}
);
note = AE;
unicode = 00C6;
},
{
glyphname = Oslash;
lastChange = "2025-02-05 21:35:20 +0000";
layers = (
{
layerId = "1E4AACC9-6A88-4B03-8BB8-E9E25DEE74AF";
paths = (
{
closed = 1;
nodes = (
"948 -20 OFFCURVE",
"1187 114 OFFCURVE",
"1321 376 CURVE SMOOTH",
"1388 507 OFFCURVE",
"1421 652 OFFCURVE",
"1421 812 CURVE SMOOTH",
"1421 943 OFFCURVE",
"1385 1056 OFFCURVE",
"1314 1149 CURVE",
"1555 1391 LINE",
"1410 1391 LINE",
"1243 1224 LINE",
"1141 1312 OFFCURVE",
"1012 1356 OFFCURVE",
"856 1356 CURVE SMOOTH",
"548 1356 OFFCURVE",
"303 1213 OFFCURVE",
"172 958 CURVE SMOOTH",
"107 830 OFFCURVE",
"74 685 OFFCURVE",
"74 524 CURVE SMOOTH",
"74 385 OFFCURVE",
"113 269 OFFCURVE",
"190 174 CURVE",
"-39 -55 LINE",
"110 -55 LINE",
"265 100 LINE",
"366 20 OFFCURVE",
"491 -20 OFFCURVE",
"639 -20 CURVE SMOOTH"
);
},
{
closed = 1;
nodes = (
"375 734 OFFCURVE",
"471 1018 OFFCURVE",
"608 1151 CURVE SMOOTH",
"676 1218 OFFCURVE",
"751 1251 OFFCURVE",
"832 1251 CURVE SMOOTH",
"951 1251 OFFCURVE",
"1035 1189 OFFCURVE",
"1083 1065 CURVE",
"383 367 LINE",
"378 396 OFFCURVE",
"375 435 OFFCURVE",
"375 485 CURVE SMOOTH"
);
},
{
closed = 1;
nodes = (
"1120 590 OFFCURVE",
"1022 314 OFFCURVE",
"885 182 CURVE SMOOTH",
"816 116 OFFCURVE",
"740 83 OFFCURVE",
"657 83 CURVE SMOOTH",
"544 83 OFFCURVE",
"463 139 OFFCURVE",
"416 251 CURVE",
"1113 948 LINE",
"1118 909 OFFCURVE",
"1120 874 OFFCURVE",
"1120 843 CURVE SMOOTH"
);
}
);
width = 1479;
}
);
note = Oslash;
unicode = 00D8;
},
{
glyphname = infinity;
lastChange = "2025-02-05 21:35:20 +0000";
layers = (
{
layerId = "1E4AACC9-6A88-4B03-8BB8-E9E25DEE74AF";
paths = (
{
closed = 1;
nodes = (
"1402 819 OFFCURVE",
"1278 977 OFFCURVE",
"1089 977 CURVE SMOOTH",
"949 977 OFFCURVE",
"848 892 OFFCURVE",
"763 725 CURVE",
"676 898 OFFCURVE",
"555 983 OFFCURVE",
"415 983 CURVE SMOOTH",
"228 983 OFFCURVE",
"97 821 OFFCURVE",
"97 596 CURVE SMOOTH",
"97 363 OFFCURVE",
"226 209 OFFCURVE",
"415 209 CURVE SMOOTH",
"539 209 OFFCURVE",
"651 298 OFFCURVE",
"736 467 CURVE",
"830 291 OFFCURVE",
"947 203 OFFCURVE",
"1087 203 CURVE SMOOTH",
"1268 203 OFFCURVE",
"1402 370 OFFCURVE",
"1402 590 CURVE SMOOTH"
);
},
{
closed = 1;
nodes = (
"1237 872 OFFCURVE",
"1327 752 OFFCURVE",
"1327 592 CURVE SMOOTH",
"1327 425 OFFCURVE",
"1238 307 OFFCURVE",
"1110 307 CURVE SMOOTH",
"995 307 OFFCURVE",
"911 402 OFFCURVE",
"831 590 CURVE",
"916 779 OFFCURVE",
"1001 872 OFFCURVE",
"1108 872 CURVE SMOOTH"
);
},
{
closed = 1;
nodes = (
"584 407 OFFCURVE",
"497 313 OFFCURVE",
"389 313 CURVE SMOOTH",
"257 313 OFFCURVE",
"173 426 OFFCURVE",
"173 594 CURVE SMOOTH",
"173 759 OFFCURVE",
"261 879 OFFCURVE",
"385 879 CURVE SMOOTH",
"505 879 OFFCURVE",
"589 783 OFFCURVE",
"665 596 CURVE"
);
}
);
width = 1460;
}
);
note = infinity;
unicode = 221E;
},
{
glyphname = plusminus;
lastChange = "2025-02-05 21:35:20 +0000";
layers = (
{
layerId = "1E4AACC9-6A88-4B03-8BB8-E9E25DEE74AF";
paths = (
{
closed = 1;
nodes = (
"1038 608 LINE",
"1038 752 LINE",
"632 752 LINE",
"632 1157 LINE",
"489 1157 LINE",
"489 752 LINE",
"85 752 LINE",
"85 608 LINE",
"489 608 LINE",
"489 203 LINE",
"632 203 LINE",
"632 608 LINE"
);
},
{
closed = 1;
nodes = (
"85 141 LINE",
"85 0 LINE",
"1038 0 LINE",
"1038 141 LINE"
);
}
);
width = 1124;
}
);
note = plusminus;
unicode = 00B1;
},
{
glyphname = lessequal;
lastChange = "2025-02-05 21:35:20 +0000";
layers = (
{
layerId = "1E4AACC9-6A88-4B03-8BB8-E9E25DEE74AF";
paths = (
{
closed = 1;
nodes = (
"1058 216 LINE",
"1058 359 LINE",
"291 730 LINE",
"1058 1100 LINE",
"1058 1243 LINE",
"106 775 LINE",
"106 685 LINE"
);
},
{
closed = 1;
nodes = (
"106 144 LINE",
"106 0 LINE",
"1058 0 LINE",
"1058 144 LINE"
);
}
);
width = 1124;
}
);
note = lessequal;
unicode = 2264;
},
{
glyphname = greaterequal;
lastChange = "2025-02-05 21:35:20 +0000";
layers = (
{
layerId = "1E4AACC9-6A88-4B03-8BB8-E9E25DEE74AF";
paths = (
{
closed = 1;
nodes = (
"106 144 LINE",
"106 0 LINE",
"1058 0 LINE",
"1058 144 LINE"
);
},
{
closed = 1;
nodes = (
"1060 685 LINE",
"1060 775 LINE",
"108 1243 LINE",
"108 1100 LINE",
"876 730 LINE",
"108 359 LINE",
"108 216 LINE"
);
}
);
width = 1124;
}
);
note = greaterequal;
unicode = 2265;
},
{
glyphname = yen;
lastChange = "2025-02-05 21:35:20 +0000";
layers = (
{
layerId = "1E4AACC9-6A88-4B03-8BB8-E9E25DEE74AF";
paths = (
{
closed = 1;
nodes = (
"211 1251 LINE",
"365 639 LINE",
"132 639 LINE",
"114 537 LINE",
"371 537 LINE",
"347 399 LINE",
"90 399 LINE",
"72 297 LINE",
"329 297 LINE",
"292 90 LINE",
"146 66 LINE",
"135 0 LINE",
"689 0 LINE",
"700 66 LINE",
"561 90 LINE",
"598 297 LINE",
"852 297 LINE",
"870 399 LINE",
"616 399 LINE",
"640 537 LINE",
"894 537 LINE",
"912 639 LINE",
"679 639 LINE",
"1052 1255 LINE",
"1141 1275 LINE",
"1153 1341 LINE",
"822 1341 LINE",
"810 1275 LINE",
"916 1251 LINE",
"597 702 LINE",
"488 1249 LINE",
"604 1275 LINE",
"616 1341 LINE",
"143 1341 LINE",
"131 1275 LINE"
);
}
);
width = 1024;
}
);
note = yen;
unicode = 00A5;
},
{
glyphname = uni00B5;
lastChange = "2025-02-05 21:35:20 +0000";
layers = (
{
layerId = "1E4AACC9-6A88-4B03-8BB8-E9E25DEE74AF";
paths = (
{
closed = 1;
nodes = (
"221 850 LINE",
"83 69 LINE SMOOTH",
"54 -96 OFFCURVE",
"-4 -296 OFFCURVE",
"-49 -391 CURVE",
"-57 -436 LINE",
"217 -436 LINE",
"265 -293 OFFCURVE",
"304 -138 OFFCURVE",
"333 29 CURVE",
"354 -4 OFFCURVE",
"391 -20 OFFCURVE",
"444 -20 CURVE SMOOTH",
"521 -20 OFFCURVE",
"629 66 OFFCURVE",
"704 175 CURVE",
"701 0 LINE",
"1030 0 LINE",
"1043 66 LINE",
"954 91 LINE",
"1102 940 LINE",
"836 940 LINE",
"730 346 LINE",
"683 233 OFFCURVE",
"556 118 OFFCURVE",
"471 118 CURVE SMOOTH",
"410 118 OFFCURVE",
"380 150 OFFCURVE",
"380 215 CURVE SMOOTH",
"380 242 OFFCURVE",
"387 294 OFFCURVE",
"402 371 CURVE SMOOTH",
"504 940 LINE",
"118 940 LINE",
"105 874 LINE"
);
}
);
width = 1180;
}
);
note = uni00B5;
unicode = 00B5;
},
{
glyphname = partialdiff;
lastChange = "2025-02-05 21:35:20 +0000";
layers = (
{
layerId = "1E4AACC9-6A88-4B03-8BB8-E9E25DEE74AF";
paths = (
{
closed = 1;
nodes = (
"928 1287 OFFCURVE",
"793 1477 OFFCURVE",
"549 1477 CURVE SMOOTH",
"497 1477 OFFCURVE",
"445 1465 OFFCURVE",
"392 1442 CURVE",
"287 1292 LINE",
"323 1259 LINE",
"404 1315 OFFCURVE",
"480 1343 OFFCURVE",
"551 1343 CURVE SMOOTH",
"740 1343 OFFCURVE",
"842 1177 OFFCURVE",
"842 874 CURVE",
"838 758 LINE",
"834 758 LINE",
"789 869 OFFCURVE",
"688 940 OFFCURVE",
"564 940 CURVE SMOOTH",
"383 940 OFFCURVE",
"231 839 OFFCURVE",
"138 638 CURVE SMOOTH",
"91 537 OFFCURVE",
"68 435 OFFCURVE",
"68 332 CURVE SMOOTH",
"68 103 OFFCURVE",
"185 -27 OFFCURVE",
"388 -27 CURVE SMOOTH",
"553 -27 OFFCURVE",
"689 69 OFFCURVE",
"785 253 CURVE SMOOTH",
"880 436 OFFCURVE",
"928 711 OFFCURVE",
"928 938 CURVE SMOOTH"
);
},
{
closed = 1;
nodes = (
"784 407 OFFCURVE",
"704 208 OFFCURVE",
"606 114 CURVE SMOOTH",
"557 67 OFFCURVE",
"505 43 OFFCURVE",
"451 43 CURVE SMOOTH",
"332 43 OFFCURVE",
"258 140 OFFCURVE",
"258 305 CURVE SMOOTH",
"258 490 OFFCURVE",
"330 695 OFFCURVE",
"430 787 CURVE SMOOTH",
"480 833 OFFCURVE",
"535 856 OFFCURVE",
"596 856 CURVE SMOOTH",
"700 856 OFFCURVE",
"789 766 OFFCURVE",
"813 643 CURVE"
);
}
);
width = 1012;
}
);
note = partialdiff;
unicode = 2202;
},
{
glyphname = summation;
lastChange = "2025-02-05 21:35:20 +0000";
layers = (
{
layerId = "1E4AACC9-6A88-4B03-8BB8-E9E25DEE74AF";
paths = (
{
closed = 1;
nodes = (
"458 1232 LINE",
"802 1232 LINE SMOOTH",
"900 1232 OFFCURVE",
"1004 1227 OFFCURVE",
"1114 1217 CURVE",
"1176 970 LINE",
"1262 970 LINE",
"1262 1341 LINE",
"137 1341 LINE",
"137 1232 LINE",
"665 480 LINE",
"92 -329 LINE",
"92 -436 LINE",
"1318 -436 LINE",
"1337 128 LINE",
"1251 128 LINE",
"1174 -160 LINE",
"1130 -169 OFFCURVE",
"876 -176 OFFCURVE",
"739 -176 CURVE SMOOTH",
"357 -176 LINE",
"868 544 LINE",
"868 647 LINE"
);
}
);
width = 1460;
}
);
note = summation;
unicode = 2211;
},
{
glyphname = product;
lastChange = "2025-02-05 21:35:20 +0000";
layers = (
{
layerId = "1E4AACC9-6A88-4B03-8BB8-E9E25DEE74AF";
paths = (
{
closed = 1;
nodes = (
"747 -436 LINE",
"747 -362 LINE",
"575 -336 LINE",
"575 1231 LINE",
"1112 1231 LINE",
"1112 -336 LINE",
"940 -362 LINE",
"940 -436 LINE",
"1601 -436 LINE",
"1601 -362 LINE",
"1428 -336 LINE",
"1428 1241 LINE",
"1601 1268 LINE",
"1601 1341 LINE",
"88 1341 LINE",
"88 1268 LINE",
"260 1241 LINE",
"260 -336 LINE",
"88 -362 LINE",
"88 -436 LINE"
);
}
);
width = 1686;
}
);
note = product;
unicode = 220F;
},
{
glyphname = integral;
lastChange = "2025-02-05 21:35:20 +0000";
layers = (
{
layerId = "1E4AACC9-6A88-4B03-8BB8-E9E25DEE74AF";
paths = (
{
closed = 1;
nodes = (
"212 -166 LINE SMOOTH",
"212 -248 OFFCURVE",
"200 -315 OFFCURVE",
"177 -367 CURVE SMOOTH",
"154 -420 OFFCURVE",
"124 -446 OFFCURVE",
"89 -446 CURVE SMOOTH",
"50 -446 OFFCURVE",
"8 -423 OFFCURVE",
"-38 -377 CURVE",
"-58 -377 LINE",
"-63 -408 OFFCURVE",
"-82 -491 OFFCURVE",
"-87 -508 CURVE",
"-87 -516 LINE",
"-71 -529 OFFCURVE",
"-3 -549 OFFCURVE",
"36 -549 CURVE SMOOTH",
"129 -549 OFFCURVE",
"244 -466 OFFCURVE",
"312 -341 CURVE SMOOTH",
"345 -278 OFFCURVE",
"364 -210 OFFCURVE",
"368 -137 CURVE SMOOTH",
"381 307 LINE",
"384 541 LINE",
"380 1079 LINE SMOOTH",
"380 1162 OFFCURVE",
"392 1229 OFFCURVE",
"415 1282 CURVE SMOOTH",
"438 1334 OFFCURVE",
"468 1360 OFFCURVE",
"503 1360 CURVE SMOOTH",
"541 1360 OFFCURVE",
"583 1337 OFFCURVE",
"630 1290 CURVE",
"651 1290 LINE",
"667 1355 LINE",
"685 1421 LINE",
"685 1430 LINE",
"665 1446 OFFCURVE",
"589 1462 OFFCURVE",
"556 1462 CURVE SMOOTH",
"463 1462 OFFCURVE",
"343 1374 OFFCURVE",
"277 1248 CURVE SMOOTH",
"244 1185 OFFCURVE",
"225 1118 OFFCURVE",
"220 1047 CURVE SMOOTH",
"211 865 OFFCURVE",
"206 685 OFFCURVE",
"206 506 CURVE SMOOTH"
);
}
);
width = 561;
}
);
note = integral;
unicode = 222B;
},
{
glyphname = ordfeminine;
lastChange = "2025-02-05 21:35:20 +0000";
layers = (
{
layerId = "1E4AACC9-6A88-4B03-8BB8-E9E25DEE74AF";
paths = (
{
closed = 1;
nodes = (
"675 1357 LINE",
"625 1357 LINE",
"593 1339 LINE",
"587 1336 LINE",
"542 1353 OFFCURVE",
"499 1362 OFFCURVE",
"457 1362 CURVE SMOOTH",
"230 1362 OFFCURVE",
"88 1192 OFFCURVE",
"88 983 CURVE SMOOTH",
"88 852 OFFCURVE",
"157 767 OFFCURVE",
"254 767 CURVE SMOOTH",
"316 767 OFFCURVE",
"374 787 OFFCURVE",
"427 826 CURVE",
"425 782 LINE",
"628 782 LINE",
"638 831 LINE",
"584 846 LINE"
);
},
{
closed = 1;
nodes = (
"427 890 LINE",
"388 865 OFFCURVE",
"352 853 OFFCURVE",
"320 853 CURVE SMOOTH",
"272 853 OFFCURVE",
"248 899 OFFCURVE",
"248 992 CURVE SMOOTH",
"248 1163 OFFCURVE",
"320 1293 OFFCURVE",
"423 1293 CURVE SMOOTH",
"448 1293 OFFCURVE",
"472 1288 OFFCURVE",
"495 1278 CURVE"
);
}
);
width = 545;
}
);
note = ordfeminine;
unicode = 00AA;
},
{
glyphname = ordmasculine;
lastChange = "2025-02-05 21:35:20 +0000";
layers = (
{
layerId = "1E4AACC9-6A88-4B03-8BB8-E9E25DEE74AF";
paths = (
{
closed = 1;
nodes = (
"311 840 OFFCURVE",
"284 880 OFFCURVE",
"284 959 CURVE SMOOTH",
"284 1135 OFFCURVE",
"348 1290 OFFCURVE",
"439 1290 CURVE SMOOTH",
"496 1290 OFFCURVE",
"524 1249 OFFCURVE",
"524 1167 CURVE SMOOTH",
"524 1062 OFFCURVE",
"494 947 OFFCURVE",
"447 886 CURVE SMOOTH",
"423 855 OFFCURVE",
"395 840 OFFCURVE",
"364 840 CURVE SMOOTH"
);
},
{
closed = 1;
nodes = (
"544 770 OFFCURVE",
"683 924 OFFCURVE",
"683 1125 CURVE SMOOTH",
"683 1272 OFFCURVE",
"592 1362 OFFCURVE",
"457 1362 CURVE SMOOTH",
"258 1362 OFFCURVE",
"125 1202 OFFCURVE",
"125 1007 CURVE SMOOTH",
"125 860 OFFCURVE",
"216 770 OFFCURVE",
"351 770 CURVE SMOOTH"
);
}
);
width = 614;
}
);
note = ordmasculine;
unicode = 00BA;
},
{
glyphname = uni2126;
lastChange = "2025-02-05 21:35:20 +0000";
layers = (
{
layerId = "1E4AACC9-6A88-4B03-8BB8-E9E25DEE74AF";
paths = (
{
closed = 1;
nodes = (
"1042 1255 OFFCURVE",
"1182 1105 OFFCURVE",
"1182 837 CURVE SMOOTH",
"1182 602 OFFCURVE",
"1081 461 OFFCURVE",
"890 432 CURVE",
"867 0 LINE",
"1492 0 LINE",
"1515 384 LINE",
"1429 384 LINE",
"1368 256 LINE",
"1315 245 OFFCURVE",
"1229 240 OFFCURVE",
"1110 240 CURVE SMOOTH",
"1001 240 LINE",
"1006 345 LINE",
"1326 390 OFFCURVE",
"1514 568 OFFCURVE",
"1514 837 CURVE SMOOTH",
"1514 1169 OFFCURVE",
"1251 1356 OFFCURVE",
"787 1356 CURVE SMOOTH",
"322 1356 OFFCURVE",
"60 1168 OFFCURVE",
"60 837 CURVE SMOOTH",
"60 568 OFFCURVE",
"248 390 OFFCURVE",
"568 345 CURVE",
"573 240 LINE",
"464 240 LINE SMOOTH",
"345 240 OFFCURVE",
"259 245 OFFCURVE",
"206 256 CURVE",
"145 384 LINE",
"59 384 LINE",
"82 0 LINE",
"707 0 LINE",
"684 432 LINE",
"495 461 OFFCURVE",
"392 601 OFFCURVE",
"392 837 CURVE SMOOTH",
"392 1106 OFFCURVE",
"534 1255 OFFCURVE",
"787 1255 CURVE SMOOTH"
);
}
);
width = 1573;
}
);
note = uni2126;
unicode = 2126;
},
{
glyphname = ae;
lastChange = "2025-02-05 21:35:20 +0000";
layers = (
{
layerId = "1E4AACC9-6A88-4B03-8BB8-E9E25DEE74AF";
paths = (
{
closed = 1;
nodes = (
"929 693 OFFCURVE",
"1028 857 OFFCURVE",
"1123 857 CURVE SMOOTH",
"1160 857 OFFCURVE",
"1200 829 OFFCURVE",
"1200 773 CURVE SMOOTH",
"1200 692 OFFCURVE",
"1146 609 OFFCURVE",
"1054 557 CURVE SMOOTH",
"1007 530 OFFCURVE",
"956 514 OFFCURVE",
"901 508 CURVE"
);
},
{
closed = 1;
nodes = (
"799 938 OFFCURVE",
"685 964 OFFCURVE",
"610 964 CURVE SMOOTH",
"397 964 OFFCURVE",
"205 840 OFFCURVE",
"103 641 CURVE SMOOTH",
"52 541 OFFCURVE",
"26 434 OFFCURVE",
"26 319 CURVE SMOOTH",
"26 110 OFFCURVE",
"139 -21 OFFCURVE",
"310 -21 CURVE SMOOTH",
"435 -21 OFFCURVE",
"540 35 OFFCURVE",
"644 158 CURVE",
"692 39 OFFCURVE",
"801 -20 OFFCURVE",
"971 -20 CURVE SMOOTH",
"1099 -20 OFFCURVE",
"1244 38 OFFCURVE",
"1360 135 CURVE",
"1316 198 LINE",
"1197 119 OFFCURVE",
"1141 104 OFFCURVE",
"1073 104 CURVE SMOOTH",
"950 104 OFFCURVE",
"882 189 OFFCURVE",
"882 340 CURVE SMOOTH",
"882 372 OFFCURVE",
"884 395 OFFCURVE",
"887 408 CURVE",
"1103 425 OFFCURVE",
"1278 494 OFFCURVE",
"1367 595 CURVE SMOOTH",
"1412 646 OFFCURVE",
"1434 701 OFFCURVE",
"1434 760 CURVE SMOOTH",
"1434 884 OFFCURVE",
"1322 965 OFFCURVE",
"1135 965 CURVE SMOOTH",
"1052 965 OFFCURVE",
"955 940 OFFCURVE",
"887 895 CURVE"
);
},
{
closed = 1;
nodes = (
"578 196 OFFCURVE",
"481 127 OFFCURVE",
"422 127 CURVE SMOOTH",
"338 127 OFFCURVE",
"289 208 OFFCURVE",
"289 351 CURVE SMOOTH",
"289 519 OFFCURVE",
"350 696 OFFCURVE",
"440 792 CURVE SMOOTH",
"485 839 OFFCURVE",
"532 863 OFFCURVE",
"582 863 CURVE SMOOTH",
"631 863 OFFCURVE",
"708 839 OFFCURVE",
"777 788 CURVE",
"680 667 OFFCURVE",
"620 497 OFFCURVE",
"620 330 CURVE",
"623 264 LINE"
);
}
);
width = 1479;
}
);
note = ae;
unicode = 00E6;
},
{
glyphname = oslash;
lastChange = "2025-02-05 21:35:20 +0000";
layers = (
{
layerId = "1E4AACC9-6A88-4B03-8BB8-E9E25DEE74AF";
paths = (
{
closed = 1;
nodes = (
"615 -20 OFFCURVE",
"791 92 OFFCURVE",
"884 273 CURVE SMOOTH",
"931 364 OFFCURVE",
"954 463 OFFCURVE",
"954 571 CURVE SMOOTH",
"954 677 OFFCURVE",
"926 766 OFFCURVE",
"870 837 CURVE",
"1029 1022 LINE",
"905 1022 LINE",
"801 901 LINE",
"740 944 OFFCURVE",
"667 965 OFFCURVE",
"580 965 CURVE SMOOTH",
"371 965 OFFCURVE",
"195 853 OFFCURVE",
"102 672 CURVE SMOOTH",
"55 581 OFFCURVE",
"32 482 OFFCURVE",
"32 374 CURVE SMOOTH",
"32 266 OFFCURVE",
"60 177 OFFCURVE",
"117 106 CURVE",
"-47 -84 LINE",
"80 -84 LINE",
"187 41 LINE",
"248 0 OFFCURVE",
"321 -20 OFFCURVE",
"406 -20 CURVE SMOOTH"
);
},
{
closed = 1;
nodes = (
"297 319 LINE SMOOTH",
"297 504 OFFCURVE",
"352 689 OFFCURVE",
"434 790 CURVE SMOOTH",
"475 841 OFFCURVE",
"516 866 OFFCURVE",
"558 866 CURVE SMOOTH",
"613 866 OFFCURVE",
"651 827 OFFCURVE",
"670 749 CURVE",
"297 315 LINE"
);
},
{
closed = 1;
nodes = (
"376 79 OFFCURVE",
"337 116 OFFCURVE",
"314 189 CURVE",
"683 619 LINE",
"682 423 OFFCURVE",
"632 249 OFFCURVE",
"552 152 CURVE SMOOTH",
"512 103 OFFCURVE",
"471 79 OFFCURVE",
"429 79 CURVE SMOOTH"
);
}
);
width = 1024;
}
);
note = oslash;
unicode = 00F8;
},
{
glyphname = questiondown;
lastChange = "2025-02-05 21:35:20 +0000";
layers = (
{
layerId = "1E4AACC9-6A88-4B03-8BB8-E9E25DEE74AF";
paths = (
{
closed = 1;
nodes = (
"318 61 OFFCURVE",
"390 155 OFFCURVE",
"569 200 CURVE SMOOTH",
"669 225 LINE",
"667 538 LINE",
"564 538 LINE",
"501 336 LINE",
"410 312 LINE SMOOTH",
"154 245 OFFCURVE",
"48 101 OFFCURVE",
"48 -127 CURVE SMOOTH",
"48 -319 OFFCURVE",
"181 -428 OFFCURVE",
"456 -428 CURVE SMOOTH",
"559 -428 OFFCURVE",
"663 -412 OFFCURVE",
"768 -380 CURVE",
"808 -85 LINE",
"719 -85 LINE",
"654 -279 LINE",
"619 -306 OFFCURVE",
"558 -326 OFFCURVE",
"507 -326 CURVE SMOOTH",
"381 -326 OFFCURVE",
"318 -258 OFFCURVE",
"318 -123 CURVE SMOOTH"
);
},
{
closed = 1;
nodes = (
"555 957 OFFCURVE",
"482 883 OFFCURVE",
"482 791 CURVE SMOOTH",
"482 698 OFFCURVE",
"556 625 OFFCURVE",
"648 625 CURVE SMOOTH",
"741 625 OFFCURVE",
"813 698 OFFCURVE",
"813 791 CURVE SMOOTH",
"813 884 OFFCURVE",
"741 957 OFFCURVE",
"648 957 CURVE SMOOTH"
);
}
);
width = 1024;
}
);
note = questiondown;
unicode = 00BF;
},
{
glyphname = exclamdown;
lastChange = "2025-02-05 21:35:20 +0000";
layers = (
{
layerId = "1E4AACC9-6A88-4B03-8BB8-E9E25DEE74AF";
paths = (
{
closed = 1;
nodes = (
"76 -409 LINE",
"375 -409 LINE",
"435 512 LINE",
"340 512 LINE"
);
},
{
closed = 1;
nodes = (
"340 961 OFFCURVE",
"267 887 OFFCURVE",
"267 795 CURVE SMOOTH",
"267 702 OFFCURVE",
"341 629 OFFCURVE",
"433 629 CURVE SMOOTH",
"526 629 OFFCURVE",
"599 703 OFFCURVE",
"599 795 CURVE SMOOTH",
"599 888 OFFCURVE",
"525 961 OFFCURVE",
"433 961 CURVE SMOOTH"
);
}
);
width = 797;
}
);
note = exclamdown;
unicode = 00A1;
},
{
glyphname = logicalnot;
lastChange = "2025-02-05 21:35:20 +0000";
layers = (
{
layerId = "1E4AACC9-6A88-4B03-8BB8-E9E25DEE74AF";
paths = (
{
closed = 1;
nodes = (
"114 752 LINE",
"114 608 LINE",
"925 608 LINE",
"925 203 LINE",
"1067 203 LINE",
"1067 752 LINE"
);
}
);
width = 1241;
}
);
note = logicalnot;
unicode = 00AC;
},
{
glyphname = radical;
lastChange = "2025-02-05 21:35:20 +0000";
layers = (
{
layerId = "1E4AACC9-6A88-4B03-8BB8-E9E25DEE74AF";
paths = (
{
closed = 1;
nodes = (
"1142 1620 LINE",
"1052 1620 LINE",
"600 158 LINE",
"342 895 LINE",
"71 895 LINE",
"71 815 LINE",
"239 815 LINE",
"536 -14 LINE",
"643 -14 LINE"
);
}
);
width = 1124;
}
);
note = radical;
unicode = 221A;
},
{
glyphname = florin;
lastChange = "2025-02-05 21:35:20 +0000";
layers = (
{
layerId = "1E4AACC9-6A88-4B03-8BB8-E9E25DEE74AF";
paths = (
{
closed = 1;
nodes = (
"481 -285 LINE",
"652 692 LINE",
"849 692 LINE",
"868 796 LINE",
"671 796 LINE",
"711 1021 LINE SMOOTH",
"728 1112 OFFCURVE",
"744 1173 OFFCURVE",
"760 1205 CURVE SMOOTH",
"776 1236 OFFCURVE",
"798 1252 OFFCURVE",
"826 1252 CURVE SMOOTH",
"854 1252 OFFCURVE",
"874 1243 OFFCURVE",
"889 1232 CURVE",
"917 1119 LINE",
"981 1119 LINE",
"991 1343 LINE",
"936 1356 OFFCURVE",
"864 1362 OFFCURVE",
"785 1362 CURVE SMOOTH",
"596 1362 OFFCURVE",
"463 1231 OFFCURVE",
"428 1022 CURVE SMOOTH",
"389 795 LINE",
"215 761 LINE",
"200 692 LINE",
"370 692 LINE",
"199 -285 LINE"
);
}
);
width = 1024;
}
);
note = florin;
unicode = 0192;
},
{
glyphname = uni2206;
lastChange = "2025-02-05 21:35:20 +0000";
layers = (
{
layerId = "1E4AACC9-6A88-4B03-8BB8-E9E25DEE74AF";
paths = (
{
closed = 1;
nodes = (
"1237 97 LINE",
"766 1352 LINE",
"476 1352 LINE",
"16 97 LINE",
"16 0 LINE",
"1237 0 LINE"
);
},
{
closed = 1;
nodes = (
"521 1148 LINE",
"905 119 LINE",
"152 119 LINE"
);
}
);
width = 1253;
}
);
note = uni2206;
unicode = 2206;
},
{
glyphname = guillemotleft;
lastChange = "2025-02-05 21:35:20 +0000";
layers = (
{
layerId = "1E4AACC9-6A88-4B03-8BB8-E9E25DEE74AF";
paths = (
{
closed = 1;
nodes = (
"92 496 LINE",
"80 430 LINE",
"338 74 LINE",
"439 74 LINE",
"314 463 LINE",
"576 852 LINE",
"475 852 LINE"
);
},
{
closed = 1;
nodes = (
"502 496 LINE",
"490 430 LINE",
"748 74 LINE",
"848 74 LINE",
"724 463 LINE",
"985 852 LINE",
"885 852 LINE"
);
}
);
width = 1024;
}
);
note = guillemotleft;
unicode = 00AB;
},
{
glyphname = guillemotright;
lastChange = "2025-02-05 21:35:20 +0000";
layers = (
{
layerId = "1E4AACC9-6A88-4B03-8BB8-E9E25DEE74AF";
paths = (
{
closed = 1;
nodes = (
"890 430 LINE",
"902 496 LINE",
"645 852 LINE",
"544 852 LINE",
"668 463 LINE",
"407 74 LINE",
"508 74 LINE"
);
},
{
closed = 1;
nodes = (
"480 430 LINE",
"492 496 LINE",
"235 852 LINE",
"135 852 LINE",
"258 463 LINE",
"-2 74 LINE",
"98 74 LINE"
);
}
);
width = 1024;
}
);
note = guillemotright;
unicode = 00BB;
},
{
glyphname = ellipsis;
lastChange = "2025-02-05 21:35:20 +0000";
layers = (
{
layerId = "1E4AACC9-6A88-4B03-8BB8-E9E25DEE74AF";
paths = (
{
closed = 1;
nodes = (
"356 -29 OFFCURVE",
"429 45 OFFCURVE",
"429 137 CURVE SMOOTH",
"429 230 OFFCURVE",
"355 303 OFFCURVE",
"263 303 CURVE SMOOTH",
"170 303 OFFCURVE",
"97 229 OFFCURVE",
"97 137 CURVE SMOOTH",
"97 44 OFFCURVE",
"171 -29 OFFCURVE",
"263 -29 CURVE SMOOTH"
);
},
{
closed = 1;
nodes = (
"1046 -29 OFFCURVE",
"1119 45 OFFCURVE",
"1119 137 CURVE SMOOTH",
"1119 230 OFFCURVE",
"1045 303 OFFCURVE",
"953 303 CURVE SMOOTH",
"860 303 OFFCURVE",
"787 229 OFFCURVE",
"787 137 CURVE SMOOTH",
"787 44 OFFCURVE",
"861 -29 OFFCURVE",
"953 -29 CURVE SMOOTH"
);
},
{
closed = 1;
nodes = (
"1736 -29 OFFCURVE",
"1809 45 OFFCURVE",
"1809 137 CURVE SMOOTH",
"1809 230 OFFCURVE",
"1735 303 OFFCURVE",
"1643 303 CURVE SMOOTH",
"1550 303 OFFCURVE",
"1477 229 OFFCURVE",
"1477 137 CURVE SMOOTH",
"1477 44 OFFCURVE",
"1551 -29 OFFCURVE",
"1643 -29 CURVE SMOOTH"
);
}
);
width = 2048;
}
);
note = ellipsis;
unicode = 2026;
},
{
glyphname = OE;
lastChange = "2025-02-05 21:35:20 +0000";
layers = (
{
layerId = "1E4AACC9-6A88-4B03-8BB8-E9E25DEE74AF";
paths = (
{
closed = 1;
nodes = (
"665 -7 OFFCURVE",
"720 -5 OFFCURVE",
"801 0 CURVE",
"1676 0 LINE",
"1760 374 LINE",
"1669 374 LINE",
"1569 126 LINE",
"1512 115 OFFCURVE",
"1395 110 OFFCURVE",
"1216 110 CURVE SMOOTH",
"1113 110 LINE",
"1204 627 LINE",
"1417 627 LINE",
"1421 475 LINE",
"1510 475 LINE",
"1583 887 LINE",
"1494 887 LINE",
"1437 739 LINE",
"1224 739 LINE",
"1311 1231 LINE",
"1369 1231 LINE SMOOTH",
"1518 1231 OFFCURVE",
"1629 1226 OFFCURVE",
"1702 1217 CURVE",
"1696 1000 LINE",
"1787 1000 LINE",
"1847 1341 LINE",
"1054 1341 LINE",
"981 1346 OFFCURVE",
"914 1349 OFFCURVE",
"853 1349 CURVE SMOOTH",
"538 1349 OFFCURVE",
"294 1203 OFFCURVE",
"167 951 CURVE SMOOTH",
"103 825 OFFCURVE",
"71 683 OFFCURVE",
"71 524 CURVE SMOOTH",
"71 204 OFFCURVE",
"297 -7 OFFCURVE",
"636 -7 CURVE SMOOTH"
);
},
{
closed = 1;
nodes = (
"473 93 OFFCURVE",
"372 238 OFFCURVE",
"372 485 CURVE SMOOTH",
"372 736 OFFCURVE",
"466 1015 OFFCURVE",
"606 1148 CURVE SMOOTH",
"676 1215 OFFCURVE",
"754 1248 OFFCURVE",
"839 1248 CURVE SMOOTH",
"886 1248 OFFCURVE",
"929 1244 OFFCURVE",
"1013 1219 CURVE",
"819 117 LINE",
"774 101 OFFCURVE",
"719 93 OFFCURVE",
"654 93 CURVE SMOOTH"
);
}
);
width = 1933;
}
);
note = OE;
unicode = 0152;
},
{
glyphname = oe;
lastChange = "2025-02-05 21:35:20 +0000";
layers = (
{
layerId = "1E4AACC9-6A88-4B03-8BB8-E9E25DEE74AF";
paths = (
{
closed = 1;
nodes = (
"1436 889 OFFCURVE",
"1331 965 OFFCURVE",
"1135 965 CURVE SMOOTH",
"1022 965 OFFCURVE",
"923 921 OFFCURVE",
"838 833 CURVE",
"785 921 OFFCURVE",
"697 965 OFFCURVE",
"573 965 CURVE SMOOTH",
"344 965 OFFCURVE",
"189 860 OFFCURVE",
"107 649 CURVE SMOOTH",
"66 544 OFFCURVE",
"45 434 OFFCURVE",
"45 320 CURVE SMOOTH",
"45 93 OFFCURVE",
"160 -20 OFFCURVE",
"391 -20 CURVE SMOOTH",
"517 -20 OFFCURVE",
"622 22 OFFCURVE",
"707 107 CURVE",
"762 22 OFFCURVE",
"858 -20 OFFCURVE",
"994 -20 CURVE SMOOTH",
"1118 -20 OFFCURVE",
"1259 40 OFFCURVE",
"1372 135 CURVE",
"1328 198 LINE",
"1255 149 OFFCURVE",
"1172 104 OFFCURVE",
"1073 104 CURVE SMOOTH",
"952 104 OFFCURVE",
"892 183 OFFCURVE",
"892 340 CURVE SMOOTH",
"892 372 OFFCURVE",
"894 395 OFFCURVE",
"897 408 CURVE",
"1108 424 OFFCURVE",
"1282 493 OFFCURVE",
"1370 594 CURVE SMOOTH",
"1414 645 OFFCURVE",
"1436 700 OFFCURVE",
"1436 760 CURVE SMOOTH"
);
},
{
closed = 1;
nodes = (
"660 563 OFFCURVE",
"606 264 OFFCURVE",
"539 159 CURVE SMOOTH",
"505 106 OFFCURVE",
"462 80 OFFCURVE",
"411 80 CURVE SMOOTH",
"335 80 OFFCURVE",
"307 134 OFFCURVE",
"307 242 CURVE SMOOTH",
"307 385 OFFCURVE",
"363 688 OFFCURVE",
"427 789 CURVE SMOOTH",
"458 839 OFFCURVE",
"499 864 OFFCURVE",
"549 864 CURVE SMOOTH",
"628 864 OFFCURVE",
"660 809 OFFCURVE",
"660 696 CURVE SMOOTH"
);
},
{
closed = 1;
nodes = (
"942 701 OFFCURVE",
"1031 857 OFFCURVE",
"1123 857 CURVE SMOOTH",
"1160 857 OFFCURVE",
"1192 829 OFFCURVE",
"1192 773 CURVE SMOOTH",
"1192 638 OFFCURVE",
"1076 525 OFFCURVE",
"913 508 CURVE"
);
}
);
width = 1479;
}
);
note = oe;
unicode = 0153;
},
{
glyphname = endash;
lastChange = "2025-02-05 21:35:20 +0000";
layers = (
{
layerId = "1E4AACC9-6A88-4B03-8BB8-E9E25DEE74AF";
paths = (
{
closed = 1;
nodes = (
"-33 549 LINE",
"-33 406 LINE",
"1019 406 LINE",
"1019 549 LINE"
);
}
);
width = 1024;
}
);
note = endash;
unicode = 2013;
},
{
glyphname = emdash;
lastChange = "2025-02-05 21:35:20 +0000";
layers = (
{
layerId = "1E4AACC9-6A88-4B03-8BB8-E9E25DEE74AF";
paths = (
{
closed = 1;
nodes = (
"-31 549 LINE",
"-31 406 LINE",
"2045 406 LINE",
"2045 549 LINE"
);
}
);
width = 2048;
}
);
note = emdash;
unicode = 2014;
},
{
glyphname = quotedblleft;
lastChange = "2025-02-05 21:35:20 +0000";
layers = (
{
layerId = "1E4AACC9-6A88-4B03-8BB8-E9E25DEE74AF";
paths = (
{
closed = 1;
nodes = (
"194 822 OFFCURVE",
"269 743 OFFCURVE",
"381 743 CURVE SMOOTH",
"473 743 OFFCURVE",
"540 789 OFFCURVE",
"540 876 CURVE SMOOTH",
"540 931 OFFCURVE",
"517 974 OFFCURVE",
"470 1003 CURVE SMOOTH",
"414 1036 OFFCURVE",
"399 1054 OFFCURVE",
"399 1083 CURVE SMOOTH",
"399 1151 OFFCURVE",
"466 1238 OFFCURVE",
"581 1269 CURVE",
"581 1361 LINE",
"329 1296 OFFCURVE",
"194 1147 OFFCURVE",
"194 938 CURVE SMOOTH"
);
},
{
closed = 1;
nodes = (
"614 822 OFFCURVE",
"689 743 OFFCURVE",
"801 743 CURVE SMOOTH",
"893 743 OFFCURVE",
"960 789 OFFCURVE",
"960 876 CURVE SMOOTH",
"960 931 OFFCURVE",
"937 974 OFFCURVE",
"890 1003 CURVE SMOOTH",
"834 1036 OFFCURVE",
"819 1054 OFFCURVE",
"819 1083 CURVE SMOOTH",
"819 1151 OFFCURVE",
"886 1238 OFFCURVE",
"1001 1269 CURVE",
"1001 1361 LINE",
"749 1296 OFFCURVE",
"614 1147 OFFCURVE",
"614 938 CURVE SMOOTH"
);
}
);
width = 1024;
}
);
note = quotedblleft;
unicode = 201C;
},
{
glyphname = quotedblright;
lastChange = "2025-02-05 21:35:20 +0000";
layers = (
{
layerId = "1E4AACC9-6A88-4B03-8BB8-E9E25DEE74AF";
paths = (
{
closed = 1;
nodes = (
"990 1282 OFFCURVE",
"915 1361 OFFCURVE",
"803 1361 CURVE SMOOTH",
"711 1361 OFFCURVE",
"644 1315 OFFCURVE",
"644 1228 CURVE SMOOTH",
"644 1173 OFFCURVE",
"668 1131 OFFCURVE",
"715 1102 CURVE SMOOTH",
"770 1067 OFFCURVE",
"785 1050 OFFCURVE",
"785 1021 CURVE SMOOTH",
"785 953 OFFCURVE",
"718 866 OFFCURVE",
"603 835 CURVE",
"603 743 LINE",
"855 808 OFFCURVE",
"990 957 OFFCURVE",
"990 1166 CURVE SMOOTH"
);
},
{
closed = 1;
nodes = (
"570 1282 OFFCURVE",
"495 1361 OFFCURVE",
"383 1361 CURVE SMOOTH",
"291 1361 OFFCURVE",
"224 1315 OFFCURVE",
"224 1228 CURVE SMOOTH",
"224 1173 OFFCURVE",
"248 1131 OFFCURVE",
"295 1102 CURVE SMOOTH",
"350 1067 OFFCURVE",
"365 1050 OFFCURVE",
"365 1021 CURVE SMOOTH",
"365 953 OFFCURVE",
"298 866 OFFCURVE",
"183 835 CURVE",
"183 743 LINE",
"435 808 OFFCURVE",
"570 957 OFFCURVE",
"570 1166 CURVE SMOOTH"
);
}
);
width = 1024;
}
);
note = quotedblright;
unicode = 201D;
},
{
glyphname = quoteleft;
lastChange = "2025-02-05 21:35:20 +0000";
layers = (
{
layerId = "1E4AACC9-6A88-4B03-8BB8-E9E25DEE74AF";
paths = (
{
closed = 1;
nodes = (
"232 822 OFFCURVE",
"307 743 OFFCURVE",
"419 743 CURVE SMOOTH",
"511 743 OFFCURVE",
"578 789 OFFCURVE",
"578 876 CURVE SMOOTH",
"578 931 OFFCURVE",
"555 974 OFFCURVE",
"508 1003 CURVE SMOOTH",
"452 1036 OFFCURVE",
"437 1054 OFFCURVE",
"437 1083 CURVE SMOOTH",
"437 1151 OFFCURVE",
"504 1238 OFFCURVE",
"619 1269 CURVE",
"619 1361 LINE",
"367 1296 OFFCURVE",
"232 1147 OFFCURVE",
"232 938 CURVE SMOOTH"
);
}
);
width = 682;
}
);
note = quoteleft;
unicode = 2018;
},
{
glyphname = quoteright;
lastChange = "2025-02-05 21:35:20 +0000";
layers = (
{
layerId = "1E4AACC9-6A88-4B03-8BB8-E9E25DEE74AF";
paths = (
{
closed = 1;
nodes = (
"609 1282 OFFCURVE",
"534 1361 OFFCURVE",
"422 1361 CURVE SMOOTH",
"330 1361 OFFCURVE",
"263 1315 OFFCURVE",
"263 1228 CURVE SMOOTH",
"263 1173 OFFCURVE",
"287 1131 OFFCURVE",
"334 1102 CURVE SMOOTH",
"389 1067 OFFCURVE",
"404 1050 OFFCURVE",
"404 1021 CURVE SMOOTH",
"404 953 OFFCURVE",
"337 866 OFFCURVE",
"222 835 CURVE",
"222 743 LINE",
"474 808 OFFCURVE",
"609 957 OFFCURVE",
"609 1166 CURVE SMOOTH"
);
}
);
width = 682;
}
);
note = quoteright;
unicode = 2019;
},
{
glyphname = divide;
lastChange = "2025-02-05 21:35:20 +0000";
layers = (
{
layerId = "1E4AACC9-6A88-4B03-8BB8-E9E25DEE74AF";
paths = (
{
closed = 1;
nodes = (
"100 751 LINE",
"100 608 LINE",
"1052 608 LINE",
"1052 751 LINE"
);
},
{
closed = 1;
nodes = (
"650 183 OFFCURVE",
"709 242 OFFCURVE",
"709 317 CURVE SMOOTH",
"709 392 OFFCURVE",
"650 451 OFFCURVE",
"575 451 CURVE SMOOTH",
"500 451 OFFCURVE",
"441 392 OFFCURVE",
"441 317 CURVE SMOOTH",
"441 242 OFFCURVE",
"500 183 OFFCURVE",
"575 183 CURVE SMOOTH"
);
},
{
closed = 1;
nodes = (
"650 909 OFFCURVE",
"709 968 OFFCURVE",
"709 1043 CURVE SMOOTH",
"709 1118 OFFCURVE",
"650 1177 OFFCURVE",
"575 1177 CURVE SMOOTH",
"500 1177 OFFCURVE",
"441 1118 OFFCURVE",
"441 1043 CURVE SMOOTH",
"441 968 OFFCURVE",
"500 909 OFFCURVE",
"575 909 CURVE SMOOTH"
);
}
);
width = 1124;
}
);
note = divide;
unicode = 00F7;
},
{
glyphname = lozenge;
lastChange = "2025-02-05 21:35:20 +0000";
layers = (
{
layerId = "1E4AACC9-6A88-4B03-8BB8-E9E25DEE74AF";
paths = (
{
closed = 1;
nodes = (
"1026 721 LINE",
"567 1440 LINE",
"485 1440 LINE",
"28 719 LINE",
"485 0 LINE",
"567 0 LINE"
);
},
{
closed = 1;
nodes = (
"880 721 LINE",
"528 147 LINE",
"174 721 LINE",
"528 1286 LINE"
);
}
);
width = 1012;
}
);
note = lozenge;
unicode = 25CA;
},
{
glyphname = fraction;
lastChange = "2025-02-05 21:35:20 +0000";
layers = (
{
layerId = "1E4AACC9-6A88-4B03-8BB8-E9E25DEE74AF";
paths = (
{
closed = 1;
nodes = (
"720 1341 LINE",
"600 1341 LINE",
"-365 0 LINE",
"-242 0 LINE"
);
}
);
width = 342;
}
);
note = fraction;
unicode = "2044,2215";
},
{
glyphname = Euro;
lastChange = "2025-02-05 21:35:20 +0000";
layers = (
{
layerId = "1E4AACC9-6A88-4B03-8BB8-E9E25DEE74AF";
paths = (
{
closed = 1;
nodes = (
"-11 493 LINE",
"107 493 LINE",
"106 468 LINE",
"106 442 LINE SMOOTH",
"106 138 OFFCURVE",
"251 -20 OFFCURVE",
"524 -20 CURVE SMOOTH",
"639 -20 OFFCURVE",
"754 -3 OFFCURVE",
"869 30 CURVE",
"925 328 LINE",
"836 328 LINE",
"779 163 LINE",
"722 110 OFFCURVE",
"652 83 OFFCURVE",
"567 83 CURVE SMOOTH",
"447 83 OFFCURVE",
"369 185 OFFCURVE",
"369 400 CURVE",
"373 493 LINE",
"657 493 LINE",
"675 594 LINE",
"388 594 LINE",
"391 631 OFFCURVE",
"405 710 OFFCURVE",
"414 738 CURVE",
"701 738 LINE",
"718 839 LINE",
"434 839 LINE",
"498 1100 OFFCURVE",
"612 1253 OFFCURVE",
"765 1253 CURVE SMOOTH",
"834 1253 OFFCURVE",
"893 1231 OFFCURVE",
"942 1188 CURVE",
"944 1038 LINE",
"1033 1038 LINE",
"1079 1323 LINE",
"968 1346 OFFCURVE",
"891 1356 OFFCURVE",
"759 1356 CURVE SMOOTH",
"466 1356 OFFCURVE",
"273 1192 OFFCURVE",
"168 839 CURVE",
"50 839 LINE",
"33 738 LINE",
"143 738 LINE",
"133 695 OFFCURVE",
"124 647 OFFCURVE",
"117 594 CURVE",
"7 594 LINE"
);
}
);
width = 1024;
}
);
note = Euro;
unicode = 20AC;
},
{
glyphname = guilsinglleft;
lastChange = "2025-02-05 21:35:20 +0000";
layers = (
{
layerId = "1E4AACC9-6A88-4B03-8BB8-E9E25DEE74AF";
paths = (
{
closed = 1;
nodes = (
"124 495 LINE",
"112 429 LINE",
"370 74 LINE",
"470 74 LINE",
"346 462 LINE",
"607 851 LINE",
"507 851 LINE"
);
}
);
width = 682;
}
);
note = guilsinglleft;
unicode = 2039;
},
{
glyphname = guilsinglright;
lastChange = "2025-02-05 21:35:20 +0000";
layers = (
{
layerId = "1E4AACC9-6A88-4B03-8BB8-E9E25DEE74AF";
paths = (
{
closed = 1;
nodes = (
"511 430 LINE",
"523 496 LINE",
"266 852 LINE",
"166 852 LINE",
"289 463 LINE",
"29 74 LINE",
"129 74 LINE"
);
}
);
width = 682;
}
);
note = guilsinglright;
unicode = 203A;
},
{
glyphname = uniFB01;
lastChange = "2025-02-05 21:35:20 +0000";
layers = (
{
layerId = "1E4AACC9-6A88-4B03-8BB8-E9E25DEE74AF";
paths = (
{
closed = 1;
nodes = (
"1056 940 LINE",
"496 940 LINE",
"517 1057 LINE SMOOTH",
"553 1261 OFFCURVE",
"615 1332 OFFCURVE",
"740 1332 CURVE SMOOTH",
"799 1332 OFFCURVE",
"844 1307 OFFCURVE",
"863 1286 CURVE",
"882 1172 LINE",
"946 1172 LINE",
"987 1406 LINE",
"951 1421 OFFCURVE",
"830 1442 OFFCURVE",
"745 1442 CURVE SMOOTH",
"460 1442 OFFCURVE",
"293 1303 OFFCURVE",
"242 1025 CURVE SMOOTH",
"228 944 LINE",
"79 905 LINE",
"67 836 LINE",
"209 836 LINE",
"-15 -436 LINE",
"254 -436 LINE",
"478 836 LINE",
"769 836 LINE",
"621 0 LINE",
"994 0 LINE",
"1005 66 LINE",
"906 90 LINE"
);
}
);
width = 1139;
}
);
note = uniFB01;
unicode = "F001,FB01";
},
{
glyphname = uniFB02;
lastChange = "2025-02-05 21:35:20 +0000";
layers = (
{
layerId = "1E4AACC9-6A88-4B03-8BB8-E9E25DEE74AF";
paths = (
{
closed = 1;
nodes = (
"-15 -436 LINE",
"254 -436 LINE",
"478 836 LINE",
"669 836 LINE",
"687 940 LINE",
"496 940 LINE",
"522 1087 LINE SMOOTH",
"551 1250 OFFCURVE",
"610 1332 OFFCURVE",
"699 1332 CURVE SMOOTH",
"755 1332 OFFCURVE",
"805 1319 OFFCURVE",
"848 1294 CURVE",
"623 0 LINE",
"995 0 LINE",
"1006 66 LINE",
"907 90 LINE",
"1142 1421 LINE",
"937 1421 LINE",
"811 1435 OFFCURVE",
"730 1442 OFFCURVE",
"695 1442 CURVE SMOOTH",
"452 1442 OFFCURVE",
"290 1302 OFFCURVE",
"246 1045 CURVE SMOOTH",
"228 944 LINE",
"79 905 LINE",
"67 836 LINE",
"209 836 LINE"
);
}
);
width = 1139;
}
);
note = uniFB02;
unicode = "F002,FB02";
},
{
glyphname = daggerdbl;
lastChange = "2025-02-05 21:35:20 +0000";
layers = (
{
layerId = "1E4AACC9-6A88-4B03-8BB8-E9E25DEE74AF";
paths = (
{
closed = 1;
nodes = (
"885 92 LINE",
"927 330 LINE",
"509 262 LINE",
"621 412 LINE",
"557 590 LINE",
"684 770 LINE",
"625 920 LINE",
"1019 854 LINE",
"1061 1090 LINE",
"643 1026 LINE",
"781 1421 LINE",
"543 1421 LINE",
"537 1026 LINE",
"143 1090 LINE",
"101 854 LINE",
"519 920 LINE",
"410 770 LINE",
"471 590 LINE",
"347 412 LINE",
"403 262 LINE",
"9 330 LINE",
"-33 92 LINE",
"384 156 LINE",
"250 -240 LINE",
"488 -240 LINE",
"490 156 LINE"
);
}
);
width = 1024;
}
);
note = daggerdbl;
unicode = 2021;
},
{
glyphname = periodcentered;
lastChange = "2025-02-05 21:35:20 +0000";
layers = (
{
layerId = "1E4AACC9-6A88-4B03-8BB8-E9E25DEE74AF";
paths = (
{
closed = 1;
nodes = (
"363 511 OFFCURVE",
"436 585 OFFCURVE",
"436 677 CURVE SMOOTH",
"436 770 OFFCURVE",
"362 843 OFFCURVE",
"270 843 CURVE SMOOTH",
"177 843 OFFCURVE",
"104 769 OFFCURVE",
"104 677 CURVE SMOOTH",
"104 584 OFFCURVE",
"178 511 OFFCURVE",
"270 511 CURVE SMOOTH"
);
}
);
width = 512;
}
);
note = periodcentered;
unicode = 2219;
},
{
glyphname = quotesinglbase;
lastChange = "2025-02-05 21:35:20 +0000";
layers = (
{
layerId = "1E4AACC9-6A88-4B03-8BB8-E9E25DEE74AF";
paths = (
{
closed = 1;
nodes = (
"422 222 OFFCURVE",
"347 301 OFFCURVE",
"235 301 CURVE SMOOTH",
"143 301 OFFCURVE",
"76 255 OFFCURVE",
"76 168 CURVE SMOOTH",
"76 113 OFFCURVE",
"100 71 OFFCURVE",
"147 42 CURVE SMOOTH",
"202 7 OFFCURVE",
"217 -10 OFFCURVE",
"217 -39 CURVE SMOOTH",
"217 -107 OFFCURVE",
"150 -194 OFFCURVE",
"35 -225 CURVE",
"35 -317 LINE",
"287 -252 OFFCURVE",
"422 -103 OFFCURVE",
"422 106 CURVE SMOOTH"
);
}
);
width = 682;
}
);
note = quotesinglbase;
unicode = 201A;
},
{
glyphname = quotedblbase;
lastChange = "2025-02-05 21:35:20 +0000";
layers = (
{
layerId = "1E4AACC9-6A88-4B03-8BB8-E9E25DEE74AF";
paths = (
{
closed = 1;
nodes = (
"811 222 OFFCURVE",
"736 301 OFFCURVE",
"624 301 CURVE SMOOTH",
"532 301 OFFCURVE",
"465 255 OFFCURVE",
"465 168 CURVE SMOOTH",
"465 113 OFFCURVE",
"489 71 OFFCURVE",
"536 42 CURVE SMOOTH",
"591 7 OFFCURVE",
"606 -10 OFFCURVE",
"606 -39 CURVE SMOOTH",
"606 -107 OFFCURVE",
"539 -194 OFFCURVE",
"424 -225 CURVE",
"424 -317 LINE",
"676 -252 OFFCURVE",
"811 -103 OFFCURVE",
"811 106 CURVE SMOOTH"
);
},
{
closed = 1;
nodes = (
"391 222 OFFCURVE",
"316 301 OFFCURVE",
"204 301 CURVE SMOOTH",
"112 301 OFFCURVE",
"45 255 OFFCURVE",
"45 168 CURVE SMOOTH",
"45 113 OFFCURVE",
"69 71 OFFCURVE",
"116 42 CURVE SMOOTH",
"171 7 OFFCURVE",
"186 -10 OFFCURVE",
"186 -39 CURVE SMOOTH",
"186 -107 OFFCURVE",
"119 -194 OFFCURVE",
"4 -225 CURVE",
"4 -317 LINE",
"256 -252 OFFCURVE",
"391 -103 OFFCURVE",
"391 106 CURVE SMOOTH"
);
}
);
width = 1024;
}
);
note = quotedblbase;
unicode = 201E;
},
{
glyphname = perthousand;
lastChange = "2025-02-05 21:35:20 +0000";
layers = (
{
layerId = "1E4AACC9-6A88-4B03-8BB8-E9E25DEE74AF";
paths = (
{
closed = 1;
nodes = (
"1389 1362 LINE",
"1238 1362 LINE",
"46 -20 LINE",
"196 -20 LINE"
);
},
{
closed = 1;
nodes = (
"748 1280 OFFCURVE",
"659 1362 OFFCURVE",
"491 1362 CURVE SMOOTH",
"262 1362 OFFCURVE",
"119 1184 OFFCURVE",
"119 908 CURVE SMOOTH",
"119 745 OFFCURVE",
"203 663 OFFCURVE",
"372 663 CURVE SMOOTH",
"575 663 OFFCURVE",
"697 780 OFFCURVE",
"738 1015 CURVE SMOOTH",
"745 1054 OFFCURVE",
"748 1088 OFFCURVE",
"748 1119 CURVE SMOOTH"
);
},
{
closed = 1;
nodes = (
"310 1090 OFFCURVE",
"384 1268 OFFCURVE",
"477 1268 CURVE SMOOTH",
"533 1268 OFFCURVE",
"553 1218 OFFCURVE",
"553 1126 CURVE SMOOTH",
"553 958 OFFCURVE",
"487 757 OFFCURVE",
"380 757 CURVE SMOOTH",
"333 757 OFFCURVE",
"310 799 OFFCURVE",
"310 884 CURVE SMOOTH"
);
},
{
closed = 1;
nodes = (
"1310 590 OFFCURVE",
"1221 672 OFFCURVE",
"1053 672 CURVE SMOOTH",
"824 672 OFFCURVE",
"681 494 OFFCURVE",
"681 218 CURVE SMOOTH",
"681 55 OFFCURVE",
"765 -27 OFFCURVE",
"934 -27 CURVE SMOOTH",
"1162 -27 OFFCURVE",
"1310 153 OFFCURVE",
"1310 429 CURVE SMOOTH"
);
},
{
closed = 1;
nodes = (
"872 400 OFFCURVE",
"946 578 OFFCURVE",
"1039 578 CURVE SMOOTH",
"1095 578 OFFCURVE",
"1115 528 OFFCURVE",
"1115 436 CURVE SMOOTH",
"1115 268 OFFCURVE",
"1049 67 OFFCURVE",
"942 67 CURVE SMOOTH",
"895 67 OFFCURVE",
"872 109 OFFCURVE",
"872 194 CURVE SMOOTH"
);
},
{
closed = 1;
nodes = (
"1979 590 OFFCURVE",
"1890 672 OFFCURVE",
"1722 672 CURVE SMOOTH",
"1493 672 OFFCURVE",
"1350 494 OFFCURVE",
"1350 218 CURVE SMOOTH",
"1350 55 OFFCURVE",
"1434 -27 OFFCURVE",
"1603 -27 CURVE SMOOTH",
"1806 -27 OFFCURVE",
"1928 90 OFFCURVE",
"1969 325 CURVE SMOOTH",
"1976 364 OFFCURVE",
"1979 398 OFFCURVE",
"1979 429 CURVE SMOOTH"
);
},
{
closed = 1;
nodes = (
"1541 400 OFFCURVE",
"1615 578 OFFCURVE",
"1708 578 CURVE SMOOTH",
"1764 578 OFFCURVE",
"1784 528 OFFCURVE",
"1784 436 CURVE SMOOTH",
"1784 268 OFFCURVE",
"1718 67 OFFCURVE",
"1611 67 CURVE SMOOTH",
"1564 67 OFFCURVE",
"1541 109 OFFCURVE",
"1541 194 CURVE SMOOTH"
);
}
);
width = 2048;
}
);
note = perthousand;
unicode = 2030;
},
{
glyphname = dotlessi;
lastChange = "2025-02-05 21:35:20 +0000";
layers = (
{
layerId = "1E4AACC9-6A88-4B03-8BB8-E9E25DEE74AF";
paths = (
{
closed = 1;
nodes = (
"482 940 LINE",
"117 940 LINE",
"106 874 LINE",
"197 850 LINE",
"47 0 LINE",
"440 0 LINE",
"451 66 LINE",
"332 90 LINE"
);
}
);
width = 569;
}
);
note = dotlessi;
unicode = 0131;
},
{
glyphname = circumflex;
lastChange = "2025-02-05 21:35:20 +0000";
layers = (
{
layerId = "1E4AACC9-6A88-4B03-8BB8-E9E25DEE74AF";
paths = (
{
closed = 1;
nodes = (
"189 1118 LINE",
"465 1280 LINE",
"685 1118 LINE",
"761 1118 LINE",
"767 1151 LINE",
"601 1444 LINE",
"388 1444 LINE",
"119 1151 LINE",
"113 1118 LINE"
);
}
);
width = 682;
}
);
note = circumflex;
unicode = 02C6;
},
{
glyphname = tilde;
lastChange = "2025-02-05 21:35:20 +0000";
layers = (
{
layerId = "1E4AACC9-6A88-4B03-8BB8-E9E25DEE74AF";
paths = (
{
closed = 1;
nodes = (
"686 1090 OFFCURVE",
"774 1173 OFFCURVE",
"825 1376 CURVE",
"726 1376 LINE",
"699 1295 OFFCURVE",
"676 1264 OFFCURVE",
"627 1264 CURVE SMOOTH",
"608 1264 OFFCURVE",
"581 1279 OFFCURVE",
"546 1309 CURVE SMOOTH",
"485 1360 OFFCURVE",
"434 1395 OFFCURVE",
"363 1395 CURVE SMOOTH",
"228 1395 OFFCURVE",
"139 1299 OFFCURVE",
"94 1108 CURVE",
"193 1108 LINE",
"218 1192 OFFCURVE",
"241 1223 OFFCURVE",
"292 1223 CURVE SMOOTH",
"314 1223 OFFCURVE",
"341 1208 OFFCURVE",
"374 1178 CURVE SMOOTH",
"438 1119 OFFCURVE",
"498 1090 OFFCURVE",
"555 1090 CURVE SMOOTH"
);
}
);
width = 682;
}
);
note = tilde;
unicode = 02DC;
},
{
glyphname = uni02C9;
lastChange = "2025-02-05 21:35:20 +0000";
layers = (
{
layerId = "1E4AACC9-6A88-4B03-8BB8-E9E25DEE74AF";
paths = (
{
closed = 1;
nodes = (
"757 1151 LINE",
"783 1301 LINE",
"155 1301 LINE",
"129 1151 LINE"
);
}
);
width = 682;
}
);
note = uni02C9;
unicode = 02C9;
},
{
glyphname = breve;
lastChange = "2025-02-05 21:35:20 +0000";
layers = (
{
layerId = "1E4AACC9-6A88-4B03-8BB8-E9E25DEE74AF";
paths = (
{
closed = 1;
nodes = (
"618 1118 OFFCURVE",
"748 1236 OFFCURVE",
"789 1441 CURVE",
"668 1441 LINE",
"633 1354 OFFCURVE",
"565 1310 OFFCURVE",
"465 1310 CURVE SMOOTH",
"365 1310 OFFCURVE",
"313 1354 OFFCURVE",
"308 1441 CURVE",
"187 1441 LINE",
"183 1414 OFFCURVE",
"181 1388 OFFCURVE",
"181 1363 CURVE SMOOTH",
"181 1203 OFFCURVE",
"271 1118 OFFCURVE",
"431 1118 CURVE SMOOTH"
);
}
);
width = 682;
}
);
note = breve;
unicode = 02D8;
},
{
glyphname = dotaccent;
lastChange = "2025-02-05 21:35:20 +0000";
layers = (
{
layerId = "1E4AACC9-6A88-4B03-8BB8-E9E25DEE74AF";
paths = (
{
closed = 1;
nodes = (
"307 1204 OFFCURVE",
"376 1137 OFFCURVE",
"461 1137 CURVE SMOOTH",
"548 1137 OFFCURVE",
"614 1207 OFFCURVE",
"614 1291 CURVE SMOOTH",
"614 1376 OFFCURVE",
"546 1444 OFFCURVE",
"461 1444 CURVE SMOOTH",
"377 1444 OFFCURVE",
"307 1378 OFFCURVE",
"307 1291 CURVE SMOOTH"
);
}
);
width = 682;
}
);
note = dotaccent;
unicode = 02D9;
},
{
glyphname = ring;
lastChange = "2025-02-05 21:35:20 +0000";
layers = (
{
layerId = "1E4AACC9-6A88-4B03-8BB8-E9E25DEE74AF";
paths = (
{
closed = 1;
nodes = (
"578 1059 OFFCURVE",
"672 1153 OFFCURVE",
"672 1272 CURVE SMOOTH",
"672 1392 OFFCURVE",
"578 1483 OFFCURVE",
"461 1483 CURVE SMOOTH",
"344 1483 OFFCURVE",
"250 1392 OFFCURVE",
"250 1272 CURVE SMOOTH",
"250 1152 OFFCURVE",
"345 1059 OFFCURVE",
"461 1059 CURVE SMOOTH"
);
},
{
closed = 1;
nodes = (
"512 1371 OFFCURVE",
"559 1325 OFFCURVE",
"559 1272 CURVE SMOOTH",
"559 1220 OFFCURVE",
"513 1174 OFFCURVE",
"461 1174 CURVE SMOOTH",
"409 1174 OFFCURVE",
"363 1220 OFFCURVE",
"363 1272 CURVE SMOOTH",
"363 1325 OFFCURVE",
"409 1371 OFFCURVE",
"461 1371 CURVE SMOOTH"
);
}
);
width = 682;
}
);
note = ring;
unicode = 02DA;
},
{
glyphname = cedilla;
lastChange = "2025-02-05 21:35:20 +0000";
layers = (
{
layerId = "1E4AACC9-6A88-4B03-8BB8-E9E25DEE74AF";
paths = (
{
closed = 1;
nodes = (
"264 -432 OFFCURVE",
"389 -348 OFFCURVE",
"389 -216 CURVE SMOOTH",
"389 -135 OFFCURVE",
"327 -78 OFFCURVE",
"220 -63 CURVE",
"263 47 LINE",
"172 47 LINE",
"86 -148 LINE",
"157 -153 OFFCURVE",
"192 -181 OFFCURVE",
"192 -233 CURVE SMOOTH",
"192 -289 OFFCURVE",
"147 -325 OFFCURVE",
"84 -325 CURVE SMOOTH",
"52 -325 OFFCURVE",
"18 -319 OFFCURVE",
"-19 -306 CURVE",
"-56 -403 LINE",
"-10 -422 OFFCURVE",
"40 -432 OFFCURVE",
"93 -432 CURVE SMOOTH"
);
}
);
width = 682;
}
);
note = cedilla;
unicode = 00B8;
},
{
glyphname = hungarumlaut;
lastChange = "2025-02-05 21:35:20 +0000";
layers = (
{
layerId = "1E4AACC9-6A88-4B03-8BB8-E9E25DEE74AF";
paths = (
{
closed = 1;
nodes = (
"265 1118 LINE",
"608 1407 LINE",
"615 1444 LINE",
"364 1444 LINE",
"174 1151 LINE",
"168 1118 LINE"
);
},
{
closed = 1;
nodes = (
"615 1118 LINE",
"959 1407 LINE",
"966 1444 LINE",
"714 1444 LINE",
"525 1151 LINE",
"519 1118 LINE"
);
}
);
width = 682;
}
);
note = hungarumlaut;
unicode = 02DD;
},
{
glyphname = ogonek;
lastChange = "2025-02-05 21:35:20 +0000";
layers = (
{
layerId = "1E4AACC9-6A88-4B03-8BB8-E9E25DEE74AF";
paths = (
{
closed = 1;
nodes = (
"332 -430 OFFCURVE",
"401 -412 OFFCURVE",
"462 -377 CURVE",
"432 -294 LINE",
"393 -311 OFFCURVE",
"357 -320 OFFCURVE",
"322 -320 CURVE SMOOTH",
"253 -320 OFFCURVE",
"218 -282 OFFCURVE",
"218 -207 CURVE SMOOTH",
"218 -135 OFFCURVE",
"249 -51 OFFCURVE",
"292 14 CURVE",
"160 14 LINE",
"84 -38 OFFCURVE",
"32 -140 OFFCURVE",
"32 -229 CURVE SMOOTH",
"32 -361 OFFCURVE",
"112 -430 OFFCURVE",
"257 -430 CURVE SMOOTH"
);
}
);
width = 682;
}
);
note = ogonek;
unicode = 02DB;
},
{
glyphname = caron;
lastChange = "2025-02-05 21:35:20 +0000";
layers = (
{
layerId = "1E4AACC9-6A88-4B03-8BB8-E9E25DEE74AF";
paths = (
{
closed = 1;
nodes = (
"745 1444 LINE",
"469 1282 LINE",
"249 1444 LINE",
"173 1444 LINE",
"167 1411 LINE",
"333 1118 LINE",
"546 1118 LINE",
"815 1411 LINE",
"821 1444 LINE"
);
}
);
width = 682;
}
);
note = caron;
unicode = 02C7;
},
{
glyphname = Lslash;
lastChange = "2025-02-05 21:35:20 +0000";
layers = (
{
layerId = "1E4AACC9-6A88-4B03-8BB8-E9E25DEE74AF";
paths = (
{
closed = 1;
nodes = (
"670 1242 LINE",
"872 1268 LINE",
"885 1341 LINE",
"222 1341 LINE",
"209 1268 LINE",
"375 1242 LINE",
"268 636 LINE",
"85 538 LINE",
"61 402 LINE",
"245 502 LINE",
"174 100 LINE",
"-3 73 LINE",
"-15 0 LINE",
"1070 0 LINE",
"1159 405 LINE",
"1075 405 LINE",
"958 126 LINE",
"909 117 OFFCURVE",
"718 106 OFFCURVE",
"583 106 CURVE SMOOTH",
"470 106 LINE",
"571 680 LINE",
"833 817 LINE",
"856 951 LINE",
"594 811 LINE"
);
}
);
width = 1251;
}
);
note = Lslash;
unicode = 0141;
},
{
glyphname = lslash;
lastChange = "2025-02-05 21:35:20 +0000";
layers = (
{
layerId = "1E4AACC9-6A88-4B03-8BB8-E9E25DEE74AF";
paths = (
{
closed = 1;
nodes = (
"145 603 LINE",
"10 533 LINE",
"-12 407 LINE",
"123 478 LINE",
"37 0 LINE",
"411 0 LINE",
"422 66 LINE",
"323 90 LINE",
"421 645 LINE",
"562 720 LINE",
"584 844 LINE",
"443 770 LINE",
"558 1421 LINE",
"193 1421 LINE",
"181 1355 LINE",
"273 1331 LINE"
);
}
);
width = 569;
}
);
note = lslash;
unicode = 0142;
},
{
glyphname = brokenbar;
lastChange = "2025-02-05 21:35:20 +0000";
layers = (
{
layerId = "1E4AACC9-6A88-4B03-8BB8-E9E25DEE74AF";
paths = (
{
closed = 1;
nodes = (
"324 801 LINE",
"324 1421 LINE",
"182 1421 LINE",
"182 801 LINE"
);
},
{
closed = 1;
nodes = (
"324 -442 LINE",
"324 180 LINE",
"182 180 LINE",
"182 -442 LINE"
);
}
);
width = 451;
}
);
note = brokenbar;
unicode = 00A6;
},
{
glyphname = Eth;
lastChange = "2025-02-05 21:35:20 +0000";
layers = (
{
layerId = "1E4AACC9-6A88-4B03-8BB8-E9E25DEE74AF";
paths = (
{
closed = 1;
nodes = (
"1431 1143 OFFCURVE",
"1191 1341 OFFCURVE",
"742 1341 CURVE SMOOTH",
"221 1341 LINE",
"208 1268 LINE",
"375 1242 LINE",
"285 731 LINE",
"113 731 LINE",
"91 609 LINE",
"263 609 LINE",
"174 100 LINE",
"-3 73 LINE",
"-15 0 LINE",
"599 -4 LINE SMOOTH",
"1108 -4 OFFCURVE",
"1431 301 OFFCURVE",
"1431 788 CURVE SMOOTH"
);
},
{
closed = 1;
nodes = (
"1120 361 OFFCURVE",
"920 106 OFFCURVE",
"595 106 CURVE SMOOTH",
"569 106 OFFCURVE",
"528 109 OFFCURVE",
"471 114 CURVE",
"558 609 LINE",
"816 609 LINE",
"837 731 LINE",
"580 731 LINE",
"668 1231 LINE",
"705 1231 LINE SMOOTH",
"982 1231 OFFCURVE",
"1120 1079 OFFCURVE",
"1120 774 CURVE SMOOTH"
);
}
);
width = 1479;
}
);
note = Eth;
unicode = 00D0;
},
{
glyphname = eth;
lastChange = "2025-02-05 21:35:20 +0000";
layers = (
{
layerId = "1E4AACC9-6A88-4B03-8BB8-E9E25DEE74AF";
paths = (
{
closed = 1;
nodes = (
"333 1117 LINE",
"311 991 LINE",
"592 1139 LINE",
"650 1064 OFFCURVE",
"682 981 OFFCURVE",
"688 890 CURVE",
"650 899 OFFCURVE",
"611 903 OFFCURVE",
"571 903 CURVE SMOOTH",
"248 903 OFFCURVE",
"35 690 OFFCURVE",
"35 353 CURVE SMOOTH",
"35 130 OFFCURVE",
"187 -20 OFFCURVE",
"410 -20 CURVE SMOOTH",
"625 -20 OFFCURVE",
"794 102 OFFCURVE",
"887 320 CURVE SMOOTH",
"933 429 OFFCURVE",
"956 551 OFFCURVE",
"956 687 CURVE SMOOTH",
"956 910 OFFCURVE",
"885 1089 OFFCURVE",
"744 1224 CURVE",
"955 1335 LINE",
"977 1459 LINE",
"663 1294 LINE",
"573 1355 OFFCURVE",
"477 1397 OFFCURVE",
"376 1421 CURVE",
"357 1313 LINE",
"416 1293 OFFCURVE",
"472 1261 OFFCURVE",
"524 1217 CURVE"
);
},
{
closed = 1;
nodes = (
"301 459 OFFCURVE",
"355 631 OFFCURVE",
"436 730 CURVE SMOOTH",
"476 779 OFFCURVE",
"517 804 OFFCURVE",
"558 804 CURVE SMOOTH",
"642 804 OFFCURVE",
"686 738 OFFCURVE",
"686 617 CURVE SMOOTH",
"686 432 OFFCURVE",
"636 254 OFFCURVE",
"557 154 CURVE SMOOTH",
"517 104 OFFCURVE",
"475 79 OFFCURVE",
"432 79 CURVE SMOOTH",
"353 79 OFFCURVE",
"301 147 OFFCURVE",
"301 283 CURVE SMOOTH"
);
}
);
width = 1024;
}
);
note = eth;
unicode = 00F0;
},
{
glyphname = Thorn;
lastChange = "2025-02-05 21:35:20 +0000";
layers = (
{
layerId = "1E4AACC9-6A88-4B03-8BB8-E9E25DEE74AF";
paths = (
{
closed = 1;
nodes = (
"518 378 LINE",
"623 973 LINE",
"665 973 LINE SMOOTH",
"829 973 OFFCURVE",
"909 891 OFFCURVE",
"909 715 CURVE SMOOTH",
"909 490 OFFCURVE",
"794 378 OFFCURVE",
"564 378 CURVE SMOOTH"
);
},
{
closed = 1;
nodes = (
"642 1083 LINE",
"670 1241 LINE",
"847 1268 LINE",
"860 1341 LINE",
"221 1341 LINE",
"208 1268 LINE",
"375 1241 LINE",
"174 100 LINE",
"-2 74 LINE",
"-15 0 LINE",
"624 0 LINE",
"637 74 LINE",
"469 100 LINE",
"498 268 LINE",
"643 268 LINE SMOOTH",
"1000 268 OFFCURVE",
"1202 428 OFFCURVE",
"1202 728 CURVE SMOOTH",
"1202 959 OFFCURVE",
"1043 1083 OFFCURVE",
"751 1083 CURVE SMOOTH"
);
}
);
width = 1251;
}
);
note = Thorn;
unicode = 00DE;
},
{
glyphname = thorn;
lastChange = "2025-02-05 21:35:20 +0000";
layers = (
{
layerId = "1E4AACC9-6A88-4B03-8BB8-E9E25DEE74AF";
paths = (
{
closed = 1;
nodes = (
"956 840 OFFCURVE",
"860 965 OFFCURVE",
"709 965 CURVE SMOOTH",
"596 965 OFFCURVE",
"484 902 OFFCURVE",
"409 791 CURVE",
"422 828 OFFCURVE",
"437 897 OFFCURVE",
"455 997 CURVE SMOOTH",
"529 1421 LINE",
"159 1421 LINE",
"147 1361 LINE",
"246 1336 LINE",
"-51 -347 LINE",
"-155 -371 LINE",
"-167 -436 LINE",
"369 -436 LINE",
"381 -371 LINE",
"221 -347 LINE",
"265 -70 LINE",
"273 13 LINE",
"316 -6 OFFCURVE",
"393 -20 OFFCURVE",
"442 -20 CURVE SMOOTH",
"637 -20 OFFCURVE",
"803 101 OFFCURVE",
"891 302 CURVE SMOOTH",
"934 402 OFFCURVE",
"956 512 OFFCURVE",
"956 631 CURVE SMOOTH"
);
},
{
closed = 1;
nodes = (
"693 415 OFFCURVE",
"643 241 OFFCURVE",
"563 149 CURVE SMOOTH",
"522 102 OFFCURVE",
"478 79 OFFCURVE",
"430 79 CURVE SMOOTH",
"389 79 OFFCURVE",
"328 102 OFFCURVE",
"301 127 CURVE",
"398 674 LINE",
"451 750 OFFCURVE",
"532 813 OFFCURVE",
"576 813 CURVE SMOOTH",
"647 813 OFFCURVE",
"693 724 OFFCURVE",
"693 587 CURVE SMOOTH"
);
}
);
width = 1024;
}
);
note = thorn;
unicode = 00FE;
},
{
glyphname = minus;
lastChange = "2025-02-05 21:35:20 +0000";
layers = (
{
layerId = "1E4AACC9-6A88-4B03-8BB8-E9E25DEE74AF";
paths = (
{
closed = 1;
nodes = (
"162 751 LINE",
"162 608 LINE",
"1114 608 LINE",
"1114 751 LINE"
);
}
);
width = 1241;
}
);
note = minus;
unicode = 2212;
},
{
glyphname = multiply;
lastChange = "2025-02-05 21:35:20 +0000";
layers = (
{
layerId = "1E4AACC9-6A88-4B03-8BB8-E9E25DEE74AF";
paths = (
{
closed = 1;
nodes = (
"932 254 LINE",
"1033 356 LINE",
"709 682 LINE",
"1033 1006 LINE",
"932 1108 LINE",
"606 784 LINE",
"284 1108 LINE",
"180 1004 LINE",
"504 682 LINE",
"180 356 LINE",
"281 254 LINE",
"606 578 LINE"
);
}
);
width = 1167;
}
);
note = multiply;
unicode = 00D7;
},
{
glyphname = uni00B9;
lastChange = "2025-02-05 21:35:20 +0000";
layers = (
{
layerId = "1E4AACC9-6A88-4B03-8BB8-E9E25DEE74AF";
paths = (
{
closed = 1;
nodes = (
"535 1347 LINE",
"445 1347 LINE",
"194 1213 LINE",
"183 1147 LINE",
"329 1188 LINE",
"228 616 LINE",
"87 602 LINE",
"75 535 LINE",
"532 535 LINE",
"544 602 LINE",
"406 616 LINE"
);
}
);
width = 614;
}
);
note = uni00B9;
unicode = 00B9;
},
{
glyphname = uni00B2;
lastChange = "2025-02-05 21:35:20 +0000";
layers = (
{
layerId = "1E4AACC9-6A88-4B03-8BB8-E9E25DEE74AF";
paths = (
{
closed = 1;
nodes = (
"575 677 LINE",
"212 677 LINE",
"354 774 OFFCURVE",
"449 844 OFFCURVE",
"498 888 CURVE SMOOTH",
"595 976 OFFCURVE",
"649 1062 OFFCURVE",
"649 1161 CURVE SMOOTH",
"649 1277 OFFCURVE",
"561 1350 OFFCURVE",
"404 1350 CURVE SMOOTH",
"350 1350 OFFCURVE",
"284 1341 OFFCURVE",
"205 1323 CURVE",
"172 1131 LINE",
"234 1131 LINE",
"280 1247 LINE",
"308 1268 OFFCURVE",
"340 1278 OFFCURVE",
"375 1278 CURVE SMOOTH",
"435 1278 OFFCURVE",
"465 1230 OFFCURVE",
"465 1161 CURVE SMOOTH",
"465 1064 OFFCURVE",
"411 967 OFFCURVE",
"307 860 CURVE SMOOTH",
"254 807 OFFCURVE",
"172 736 OFFCURVE",
"60 649 CURVE",
"40 535 LINE",
"550 535 LINE"
);
}
);
width = 614;
}
);
note = uni00B2;
unicode = 00B2;
},
{
glyphname = uni00B3;
lastChange = "2025-02-05 21:35:20 +0000";
layers = (
{
layerId = "1E4AACC9-6A88-4B03-8BB8-E9E25DEE74AF";
paths = (
{
closed = 1;
nodes = (
"475 522 OFFCURVE",
"606 629 OFFCURVE",
"606 788 CURVE SMOOTH",
"606 881 OFFCURVE",
"549 941 OFFCURVE",
"438 956 CURVE",
"573 979 OFFCURVE",
"640 1053 OFFCURVE",
"640 1176 CURVE SMOOTH",
"640 1283 OFFCURVE",
"544 1350 OFFCURVE",
"393 1350 CURVE SMOOTH",
"334 1350 OFFCURVE",
"268 1341 OFFCURVE",
"196 1323 CURVE",
"162 1130 LINE",
"224 1130 LINE",
"271 1249 LINE",
"300 1267 OFFCURVE",
"332 1276 OFFCURVE",
"367 1276 CURVE SMOOTH",
"424 1276 OFFCURVE",
"458 1239 OFFCURVE",
"458 1174 CURVE SMOOTH",
"458 1063 OFFCURVE",
"414 1006 OFFCURVE",
"326 1001 CURVE SMOOTH",
"263 997 LINE",
"249 914 LINE",
"317 908 LINE SMOOTH",
"391 902 OFFCURVE",
"428 861 OFFCURVE",
"428 784 CURVE SMOOTH",
"428 658 OFFCURVE",
"368 595 OFFCURVE",
"249 595 CURVE SMOOTH",
"206 595 OFFCURVE",
"170 603 OFFCURVE",
"142 620 CURVE",
"133 752 LINE",
"68 752 LINE",
"41 549 LINE",
"112 531 OFFCURVE",
"184 522 OFFCURVE",
"259 522 CURVE SMOOTH"
);
}
);
width = 614;
}
);
note = uni00B3;
unicode = 00B3;
},
{
glyphname = franc;
lastChange = "2025-02-05 21:35:20 +0000";
layers = (
{
layerId = "1E4AACC9-6A88-4B03-8BB8-E9E25DEE74AF";
paths = (
{
closed = 1;
nodes = (
"13 282 LINE",
"171 282 LINE",
"139 100 LINE",
"-24 73 LINE",
"-37 0 LINE",
"599 0 LINE",
"612 73 LINE",
"434 100 LINE",
"466 282 LINE",
"696 282 LINE",
"714 384 LINE",
"484 384 LINE",
"517 572 LINE",
"792 572 LINE",
"798 430 LINE",
"887 430 LINE",
"956 822 LINE",
"867 822 LINE",
"811 682 LINE",
"536 682 LINE",
"633 1231 LINE",
"754 1231 LINE SMOOTH",
"841 1231 OFFCURVE",
"917 1226 OFFCURVE",
"981 1217 CURVE",
"971 980 LINE",
"1065 980 LINE",
"1129 1341 LINE",
"186 1341 LINE",
"173 1268 LINE",
"340 1242 LINE",
"189 384 LINE",
"31 384 LINE"
);
}
);
width = 1024;
}
);
note = franc;
unicode = 20A3;
},
{
glyphname = uni0111;
lastChange = "2025-02-05 21:35:20 +0000";
layers = (
{
layerId = "1E4AACC9-6A88-4B03-8BB8-E9E25DEE74AF";
paths = (
{
closed = 1;
nodes = (
"1093 1099 LINE",
"1111 1202 LINE",
"1010 1202 LINE",
"1049 1421 LINE",
"614 1421 LINE",
"602 1356 LINE",
"763 1332 LINE",
"741 1202 LINE",
"530 1202 LINE",
"512 1099 LINE",
"722 1099 LINE",
"713 1038 OFFCURVE",
"706 984 OFFCURVE",
"702 936 CURVE",
"659 955 OFFCURVE",
"601 964 OFFCURVE",
"528 964 CURVE SMOOTH",
"339 964 OFFCURVE",
"175 839 OFFCURVE",
"89 638 CURVE SMOOTH",
"46 537 OFFCURVE",
"24 428 OFFCURVE",
"24 310 CURVE SMOOTH",
"24 105 OFFCURVE",
"124 -20 OFFCURVE",
"276 -20 CURVE SMOOTH",
"373 -20 OFFCURVE",
"481 39 OFFCURVE",
"560 144 CURVE",
"567 0 LINE",
"899 0 LINE",
"911 60 LINE",
"812 85 LINE",
"991 1099 LINE"
);
},
{
closed = 1;
nodes = (
"577 267 LINE",
"522 190 OFFCURVE",
"439 128 OFFCURVE",
"395 128 CURVE SMOOTH",
"330 128 OFFCURVE",
"287 217 OFFCURVE",
"287 354 CURVE SMOOTH",
"287 523 OFFCURVE",
"336 699 OFFCURVE",
"414 794 CURVE SMOOTH",
"453 841 OFFCURVE",
"495 865 OFFCURVE",
"540 865 CURVE SMOOTH",
"581 865 OFFCURVE",
"647 844 OFFCURVE",
"674 817 CURVE"
);
}
);
width = 1024;
}
);
note = uni0111;
unicode = 0111;
},
{
glyphname = uni00AF;
lastChange = "2025-02-05 21:35:20 +0000";
layers = (
{
layerId = "1E4AACC9-6A88-4B03-8BB8-E9E25DEE74AF";
paths = (
{
closed = 1;
nodes = (
"1196 1546 LINE",
"137 1546 LINE",
"137 1452 LINE",
"1196 1452 LINE"
);
}
);
width = 1024;
}
);
note = uni00AF;
unicode = 00AF;
},
{
glyphname = Gamma;
lastChange = "2025-02-05 21:35:20 +0000";
layers = (
{
layerId = "1E4AACC9-6A88-4B03-8BB8-E9E25DEE74AF";
paths = (
{
closed = 1;
nodes = (
"656 73 LINE",
"464 99 LINE",
"664 1235 LINE",
"753 1235 LINE SMOOTH",
"886 1235 OFFCURVE",
"1046 1224 OFFCURVE",
"1089 1215 CURVE",
"1108 936 LINE",
"1191 936 LINE",
"1246 1341 LINE",
"217 1341 LINE",
"203 1268 LINE",
"370 1241 LINE",
"169 99 LINE",
"-7 73 LINE",
"-20 0 LINE",
"643 0 LINE"
);
}
);
width = 1237;
}
);
note = Gamma;
unicode = 0393;
},
{
glyphname = Theta;
lastChange = "2025-02-05 21:35:20 +0000";
layers = (
{
layerId = "1E4AACC9-6A88-4B03-8BB8-E9E25DEE74AF";
paths = (
{
closed = 1;
nodes = (
"1202 591 OFFCURVE",
"1092 312 OFFCURVE",
"940 181 CURVE SMOOTH",
"864 116 OFFCURVE",
"780 83 OFFCURVE",
"688 83 CURVE SMOOTH",
"489 83 OFFCURVE",
"375 234 OFFCURVE",
"375 485 CURVE SMOOTH",
"375 740 OFFCURVE",
"483 1021 OFFCURVE",
"634 1153 CURVE SMOOTH",
"709 1218 OFFCURVE",
"792 1251 OFFCURVE",
"882 1251 CURVE SMOOTH",
"1085 1251 OFFCURVE",
"1202 1096 OFFCURVE",
"1202 843 CURVE SMOOTH"
);
},
{
closed = 1;
nodes = (
"1001 -20 OFFCURVE",
"1253 114 OFFCURVE",
"1396 375 CURVE SMOOTH",
"1467 506 OFFCURVE",
"1503 651 OFFCURVE",
"1503 812 CURVE SMOOTH",
"1503 1134 OFFCURVE",
"1261 1356 OFFCURVE",
"904 1356 CURVE SMOOTH",
"581 1356 OFFCURVE",
"321 1217 OFFCURVE",
"180 961 CURVE SMOOTH",
"109 832 OFFCURVE",
"74 687 OFFCURVE",
"74 524 CURVE SMOOTH",
"74 201 OFFCURVE",
"317 -20 OFFCURVE",
"673 -20 CURVE SMOOTH"
);
},
{
closed = 1;
nodes = (
"662 780 LINE",
"656 882 LINE",
"588 882 LINE",
"508 470 LINE",
"576 470 LINE",
"622 570 LINE",
"915 570 LINE",
"921 470 LINE",
"989 470 LINE",
"1069 882 LINE",
"1001 882 LINE",
"955 780 LINE"
);
}
);
width = 1563;
}
);
note = Theta;
unicode = 0398;
},
{
glyphname = Phi;
lastChange = "2025-02-05 21:35:20 +0000";
layers = (
{
layerId = "1E4AACC9-6A88-4B03-8BB8-E9E25DEE74AF";
paths = (
{
closed = 1;
nodes = (
"911 320 LINE",
"1026 1039 LINE",
"1058 1039 LINE SMOOTH",
"1207 1039 OFFCURVE",
"1303 920 OFFCURVE",
"1303 727 CURVE SMOOTH",
"1303 471 OFFCURVE",
"1186 320 OFFCURVE",
"989 320 CURVE SMOOTH"
);
},
{
closed = 1;
nodes = (
"754 1039 LINE",
"628 320 LINE",
"587 320 LINE SMOOTH",
"439 320 OFFCURVE",
"342 437 OFFCURVE",
"342 632 CURVE SMOOTH",
"342 888 OFFCURVE",
"459 1039 OFFCURVE",
"656 1039 CURVE SMOOTH"
);
},
{
closed = 1;
nodes = (
"590 100 LINE",
"411 73 LINE",
"399 0 LINE",
"1015 0 LINE",
"1027 73 LINE",
"862 100 LINE",
"882 222 LINE",
"1001 222 LINE SMOOTH",
"1365 222 OFFCURVE",
"1583 413 OFFCURVE",
"1583 726 CURVE SMOOTH",
"1583 977 OFFCURVE",
"1399 1137 OFFCURVE",
"1106 1137 CURVE SMOOTH",
"1045 1137 LINE",
"1062 1242 LINE",
"1240 1268 LINE",
"1253 1341 LINE",
"637 1341 LINE",
"624 1268 LINE",
"790 1242 LINE",
"773 1137 LINE",
"644 1137 LINE SMOOTH",
"281 1137 OFFCURVE",
"70 948 OFFCURVE",
"70 635 CURVE SMOOTH",
"70 378 OFFCURVE",
"250 222 OFFCURVE",
"539 222 CURVE SMOOTH",
"610 222 LINE"
);
}
);
width = 1616;
}
);
note = Phi;
unicode = 03A6;
},
{
glyphname = alpha;
lastChange = "2025-02-05 21:35:20 +0000";
layers = (
{
layerId = "1E4AACC9-6A88-4B03-8BB8-E9E25DEE74AF";
paths = (
{
closed = 1;
nodes = (
"960 80 LINE",
"901 157 OFFCURVE",
"878 284 OFFCURVE",
"858 475 CURVE",
"977 667 OFFCURVE",
"1102 847 OFFCURVE",
"1151 900 CURVE",
"1159 940 LINE",
"892 940 LINE",
"800 709 LINE",
"768 880 OFFCURVE",
"680 966 OFFCURVE",
"537 966 CURVE SMOOTH",
"349 966 OFFCURVE",
"181 857 OFFCURVE",
"93 669 CURVE SMOOTH",
"49 575 OFFCURVE",
"27 468 OFFCURVE",
"27 347 CURVE SMOOTH",
"27 120 OFFCURVE",
"152 -21 OFFCURVE",
"351 -21 CURVE SMOOTH",
"482 -21 OFFCURVE",
"581 51 OFFCURVE",
"678 204 CURVE",
"686 126 OFFCURVE",
"700 58 OFFCURVE",
"721 0 CURVE",
"1004 0 LINE",
"1017 65 LINE"
);
},
{
closed = 1;
nodes = (
"673 482 LINE",
"672 416 LINE",
"621 303 OFFCURVE",
"573 222 OFFCURVE",
"527 173 CURVE SMOOTH",
"481 123 OFFCURVE",
"434 98 OFFCURVE",
"387 98 CURVE SMOOTH",
"360 98 OFFCURVE",
"337 116 OFFCURVE",
"320 151 CURVE SMOOTH",
"302 186 OFFCURVE",
"293 241 OFFCURVE",
"293 316 CURVE SMOOTH",
"293 491 OFFCURVE",
"344 691 OFFCURVE",
"417 791 CURVE SMOOTH",
"453 841 OFFCURVE",
"493 866 OFFCURVE",
"536 866 CURVE SMOOTH",
"578 866 OFFCURVE",
"611 838 OFFCURVE",
"636 782 CURVE SMOOTH",
"661 726 OFFCURVE",
"673 646 OFFCURVE",
"673 542 CURVE SMOOTH"
);
}
);
width = 1133;
}
);
note = alpha;
unicode = 03B1;
},
{
glyphname = delta;
lastChange = "2025-02-05 21:35:20 +0000";
layers = (
{
layerId = "1E4AACC9-6A88-4B03-8BB8-E9E25DEE74AF";
paths = (
{
closed = 1;
nodes = (
"619 -20 OFFCURVE",
"790 72 OFFCURVE",
"884 233 CURVE SMOOTH",
"931 314 OFFCURVE",
"954 401 OFFCURVE",
"954 494 CURVE SMOOTH",
"954 647 OFFCURVE",
"897 774 OFFCURVE",
"777 901 CURVE SMOOTH",
"701 976 OFFCURVE",
"651 1034 OFFCURVE",
"628 1073 CURVE SMOOTH",
"604 1112 OFFCURVE",
"592 1150 OFFCURVE",
"592 1185 CURVE SMOOTH",
"592 1284 OFFCURVE",
"647 1331 OFFCURVE",
"727 1331 CURVE SMOOTH",
"782 1331 OFFCURVE",
"834 1315 OFFCURVE",
"861 1284 CURVE",
"884 1170 LINE",
"951 1170 LINE",
"989 1393 LINE",
"897 1418 OFFCURVE",
"814 1431 OFFCURVE",
"739 1431 CURVE SMOOTH",
"486 1431 OFFCURVE",
"344 1334 OFFCURVE",
"344 1169 CURVE SMOOTH",
"344 1074 OFFCURVE",
"393 974 OFFCURVE",
"490 870 CURVE",
"186 781 OFFCURVE",
"32 597 OFFCURVE",
"32 353 CURVE SMOOTH",
"32 122 OFFCURVE",
"173 -20 OFFCURVE",
"406 -20 CURVE SMOOTH"
);
},
{
closed = 1;
nodes = (
"344 79 OFFCURVE",
"297 159 OFFCURVE",
"297 308 CURVE SMOOTH",
"297 524 OFFCURVE",
"391 718 OFFCURVE",
"558 786 CURVE",
"641 705 OFFCURVE",
"683 611 OFFCURVE",
"683 503 CURVE SMOOTH",
"683 348 OFFCURVE",
"636 198 OFFCURVE",
"561 130 CURVE SMOOTH",
"523 96 OFFCURVE",
"479 79 OFFCURVE",
"429 79 CURVE SMOOTH"
);
}
);
width = 1049;
}
);
note = delta;
unicode = 03B4;
},
{
glyphname = epsilon;
lastChange = "2025-02-05 21:35:20 +0000";
layers = (
{
layerId = "1E4AACC9-6A88-4B03-8BB8-E9E25DEE74AF";
paths = (
{
closed = 1;
nodes = (
"299 965 OFFCURVE",
"144 870 OFFCURVE",
"144 711 CURVE SMOOTH",
"144 624 OFFCURVE",
"198 548 OFFCURVE",
"289 513 CURVE",
"287 506 LINE",
"127 481 OFFCURVE",
"24 378 OFFCURVE",
"24 239 CURVE SMOOTH",
"24 75 OFFCURVE",
"144 -20 OFFCURVE",
"363 -20 CURVE SMOOTH",
"500 -20 OFFCURVE",
"624 23 OFFCURVE",
"752 132 CURVE",
"705 200 LINE",
"618 136 OFFCURVE",
"528 104 OFFCURVE",
"435 104 CURVE SMOOTH",
"344 104 OFFCURVE",
"290 155 OFFCURVE",
"290 254 CURVE SMOOTH",
"290 358 OFFCURVE",
"342 426 OFFCURVE",
"445 459 CURVE",
"519 450 OFFCURVE",
"565 446 OFFCURVE",
"582 446 CURVE SMOOTH",
"654 446 LINE",
"674 569 LINE",
"599 569 LINE SMOOTH",
"572 569 OFFCURVE",
"520 559 OFFCURVE",
"482 551 CURVE",
"438 568 OFFCURVE",
"402 631 OFFCURVE",
"402 695 CURVE SMOOTH",
"402 803 OFFCURVE",
"468 867 OFFCURVE",
"564 867 CURVE SMOOTH",
"616 867 OFFCURVE",
"669 848 OFFCURVE",
"692 828 CURVE",
"715 713 LINE",
"783 713 LINE",
"825 929 LINE",
"762 950 OFFCURVE",
"642 965 OFFCURVE",
"550 965 CURVE SMOOTH"
);
}
);
width = 840;
}
);
note = epsilon;
unicode = 03B5;
},
{
glyphname = sigma;
lastChange = "2025-02-05 21:35:20 +0000";
layers = (
{
layerId = "1E4AACC9-6A88-4B03-8BB8-E9E25DEE74AF";
paths = (
{
closed = 1;
nodes = (
"378 79 OFFCURVE",
"324 188 OFFCURVE",
"324 359 CURVE SMOOTH",
"324 554 OFFCURVE",
"386 700 OFFCURVE",
"492 778 CURVE SMOOTH",
"545 817 OFFCURVE",
"605 836 OFFCURVE",
"672 836 CURVE",
"704 772 OFFCURVE",
"720 685 OFFCURVE",
"720 575 CURVE SMOOTH",
"720 315 OFFCURVE",
"609 79 OFFCURVE",
"466 79 CURVE SMOOTH"
);
},
{
closed = 1;
nodes = (
"1091 836 LINE",
"1152 1076 LINE",
"1075 1076 LINE",
"989 940 LINE",
"632 940 LINE SMOOTH",
"273 940 OFFCURVE",
"59 732 OFFCURVE",
"59 389 CURVE SMOOTH",
"59 133 OFFCURVE",
"204 -20 OFFCURVE",
"441 -20 CURVE SMOOTH",
"640 -20 OFFCURVE",
"806 73 OFFCURVE",
"895 241 CURVE SMOOTH",
"939 324 OFFCURVE",
"961 418 OFFCURVE",
"961 521 CURVE SMOOTH",
"961 633 OFFCURVE",
"926 736 OFFCURVE",
"855 830 CURVE",
"856 836 LINE"
);
}
);
width = 1104;
}
);
note = sigma;
unicode = 03C3;
},
{
glyphname = tau;
lastChange = "2025-02-05 21:35:20 +0000";
layers = (
{
layerId = "1E4AACC9-6A88-4B03-8BB8-E9E25DEE74AF";
paths = (
{
closed = 1;
nodes = (
"554 -20 OFFCURVE",
"660 21 OFFCURVE",
"732 85 CURVE",
"699 139 LINE",
"663 116 OFFCURVE",
"630 104 OFFCURVE",
"600 104 CURVE SMOOTH",
"560 104 OFFCURVE",
"536 132 OFFCURVE",
"536 183 CURVE",
"541 235 LINE",
"647 836 LINE",
"943 836 LINE",
"961 940 LINE",
"101 940 LINE",
"42 703 LINE",
"115 703 LINE",
"200 836 LINE",
"377 836 LINE",
"270 227 LINE SMOOTH",
"265 198 OFFCURVE",
"263 174 OFFCURVE",
"263 156 CURVE SMOOTH",
"263 39 OFFCURVE",
"327 -20 OFFCURVE",
"455 -20 CURVE SMOOTH"
);
}
);
width = 909;
}
);
note = tau;
unicode = 03C4;
},
{
glyphname = phi;
lastChange = "2025-02-05 21:35:20 +0000";
layers = (
{
layerId = "1E4AACC9-6A88-4B03-8BB8-E9E25DEE74AF";
paths = (
{
closed = 1;
nodes = (
"670 966 OFFCURVE",
"576 878 OFFCURVE",
"539 670 CURVE SMOOTH",
"433 78 LINE",
"340 95 OFFCURVE",
"283 182 OFFCURVE",
"283 349 CURVE SMOOTH",
"283 464 OFFCURVE",
"318 672 OFFCURVE",
"377 767 CURVE SMOOTH",
"406 814 OFFCURVE",
"447 849 OFFCURVE",
"498 872 CURVE",
"476 954 LINE",
"288 929 OFFCURVE",
"150 819 OFFCURVE",
"83 653 CURVE SMOOTH",
"50 570 OFFCURVE",
"33 477 OFFCURVE",
"33 375 CURVE SMOOTH",
"33 143 OFFCURVE",
"174 3 OFFCURVE",
"418 -16 CURVE",
"344 -436 LINE",
"480 -436 LINE",
"554 -17 LINE",
"934 4 OFFCURVE",
"1127 223 OFFCURVE",
"1127 630 CURVE SMOOTH",
"1127 843 OFFCURVE",
"1024 966 OFFCURVE",
"833 966 CURVE SMOOTH"
);
},
{
closed = 1;
nodes = (
"853 861 OFFCURVE",
"880 802 OFFCURVE",
"880 683 CURVE SMOOTH",
"880 495 OFFCURVE",
"838 266 OFFCURVE",
"748 164 CURVE SMOOTH",
"703 113 OFFCURVE",
"643 84 OFFCURVE",
"569 78 CURVE",
"675 670 LINE SMOOTH",
"698 797 OFFCURVE",
"730 861 OFFCURVE",
"798 861 CURVE SMOOTH"
);
}
);
width = 1198;
}
);
note = phi;
unicode = 03C6;
},
{
glyphname = uni207F;
lastChange = "2025-02-05 21:35:20 +0000";
layers = (
{
layerId = "1E4AACC9-6A88-4B03-8BB8-E9E25DEE74AF";
paths = (
{
closed = 1;
nodes = (
"513 953 OFFCURVE",
"509 922 OFFCURVE",
"500 877 CURVE SMOOTH",
"438 535 LINE",
"685 535 LINE",
"693 575 LINE",
"623 589 LINE",
"687 953 LINE SMOOTH",
"689 970 OFFCURVE",
"690 981 OFFCURVE",
"690 988 CURVE SMOOTH",
"690 1076 OFFCURVE",
"635 1114 OFFCURVE",
"559 1114 CURVE SMOOTH",
"469 1114 OFFCURVE",
"392 1074 OFFCURVE",
"328 994 CURVE",
"333 1099 LINE",
"118 1099 LINE",
"110 1060 LINE",
"163 1045 LINE",
"75 535 LINE",
"249 535 LINE",
"313 892 LINE",
"341 960 OFFCURVE",
"413 1028 OFFCURVE",
"461 1028 CURVE SMOOTH",
"496 1028 OFFCURVE",
"513 1009 OFFCURVE",
"513 970 CURVE SMOOTH"
);
}
);
width = 712;
}
);
note = uni207F;
unicode = 207F;
},
{
glyphname = peseta;
lastChange = "2025-02-05 21:35:20 +0000";
layers = (
{
layerId = "1E4AACC9-6A88-4B03-8BB8-E9E25DEE74AF";
paths = (
{
closed = 1;
nodes = (
"1476 710 OFFCURVE",
"1363 622 OFFCURVE",
"1363 471 CURVE SMOOTH",
"1363 380 OFFCURVE",
"1421 315 OFFCURVE",
"1537 274 CURVE SMOOTH",
"1625 241 OFFCURVE",
"1677 221 OFFCURVE",
"1677 170 CURVE SMOOTH",
"1677 105 OFFCURVE",
"1626 73 OFFCURVE",
"1551 73 CURVE SMOOTH",
"1483 73 OFFCURVE",
"1441 99 OFFCURVE",
"1410 160 CURVE",
"1391 237 LINE",
"1325 237 LINE",
"1300 99 LINE",
"1264 89 OFFCURVE",
"1231 84 OFFCURVE",
"1202 84 CURVE SMOOTH",
"1171 84 OFFCURVE",
"1151 98 OFFCURVE",
"1151 153 CURVE SMOOTH",
"1151 169 OFFCURVE",
"1153 190 OFFCURVE",
"1157 215 CURVE SMOOTH",
"1222 586 LINE",
"1360 586 LINE",
"1377 680 LINE",
"1239 680 LINE",
"1276 893 LINE",
"1170 893 LINE",
"1011 674 LINE",
"924 663 LINE",
"1008 755 OFFCURVE",
"1057 892 OFFCURVE",
"1057 1019 CURVE SMOOTH",
"1057 1240 OFFCURVE",
"907 1341 OFFCURVE",
"584 1341 CURVE SMOOTH",
"169 1341 LINE",
"157 1268 LINE",
"254 1242 LINE",
"53 100 LINE",
"-40 73 LINE",
"-53 0 LINE",
"444 0 LINE",
"457 73 LINE",
"339 100 LINE",
"414 526 LINE",
"526 526 LINE SMOOTH",
"673 526 OFFCURVE",
"790 559 OFFCURVE",
"879 625 CURVE",
"872 586 LINE",
"973 586 LINE",
"908 217 LINE SMOOTH",
"903 186 OFFCURVE",
"901 161 OFFCURVE",
"901 143 CURVE SMOOTH",
"901 30 OFFCURVE",
"969 -20 OFFCURVE",
"1104 -20 CURVE SMOOTH",
"1181 -20 OFFCURVE",
"1246 -3 OFFCURVE",
"1299 30 CURVE",
"1351 2 OFFCURVE",
"1458 -20 OFFCURVE",
"1547 -20 CURVE SMOOTH",
"1770 -20 OFFCURVE",
"1892 64 OFFCURVE",
"1892 229 CURVE SMOOTH",
"1892 290 OFFCURVE",
"1864 339 OFFCURVE",
"1813 376 CURVE SMOOTH",
"1788 394 OFFCURVE",
"1738 417 OFFCURVE",
"1665 446 CURVE SMOOTH",
"1604 469 OFFCURVE",
"1573 497 OFFCURVE",
"1573 531 CURVE SMOOTH",
"1573 584 OFFCURVE",
"1618 616 OFFCURVE",
"1682 616 CURVE SMOOTH",
"1729 616 OFFCURVE",
"1777 591 OFFCURVE",
"1794 556 CURVE",
"1812 476 LINE",
"1878 476 LINE",
"1914 681 LINE",
"1833 700 OFFCURVE",
"1758 710 OFFCURVE",
"1689 710 CURVE SMOOTH"
);
},
{
closed = 1;
nodes = (
"538 1231 LINE",
"574 1231 LINE SMOOTH",
"701 1231 OFFCURVE",
"768 1146 OFFCURVE",
"768 1003 CURVE SMOOTH",
"768 748 OFFCURVE",
"668 636 OFFCURVE",
"464 636 CURVE SMOOTH",
"433 636 LINE"
);
}
);
width = 1984;
}
);
note = peseta;
unicode = 20A7;
},
{
glyphname = arrowleft;
lastChange = "2025-02-05 21:35:20 +0000";
layers = (
{
layerId = "1E4AACC9-6A88-4B03-8BB8-E9E25DEE74AF";
paths = (
{
closed = 1;
nodes = (
"1630 427 LINE",
"1630 513 LINE",
"641 513 LINE",
"679 558 OFFCURVE",
"719 623 OFFCURVE",
"760 710 CURVE",
"688 710 LINE",
"603 611 OFFCURVE",
"513 537 OFFCURVE",
"418 488 CURVE",
"418 452 LINE",
"513 403 OFFCURVE",
"603 329 OFFCURVE",
"688 230 CURVE",
"760 230 LINE",
"719 317 OFFCURVE",
"679 382 OFFCURVE",
"641 427 CURVE"
);
}
);
width = 2048;
}
);
note = arrowleft;
unicode = 2190;
},
{
glyphname = arrowup;
lastChange = "2025-02-05 21:35:20 +0000";
layers = (
{
layerId = "1E4AACC9-6A88-4B03-8BB8-E9E25DEE74AF";
paths = (
{
closed = 1;
nodes = (
"469 -61 LINE",
"555 -61 LINE",
"555 928 LINE",
"600 890 OFFCURVE",
"665 850 OFFCURVE",
"752 809 CURVE",
"752 881 LINE",
"653 966 OFFCURVE",
"579 1056 OFFCURVE",
"530 1151 CURVE",
"494 1151 LINE",
"445 1056 OFFCURVE",
"371 966 OFFCURVE",
"272 881 CURVE",
"272 809 LINE",
"359 850 OFFCURVE",
"424 890 OFFCURVE",
"469 928 CURVE"
);
}
);
width = 1024;
}
);
note = arrowup;
unicode = 2191;
},
{
glyphname = arrowright;
lastChange = "2025-02-05 21:35:20 +0000";
layers = (
{
layerId = "1E4AACC9-6A88-4B03-8BB8-E9E25DEE74AF";
paths = (
{
closed = 1;
nodes = (
"418 513 LINE",
"418 427 LINE",
"1407 427 LINE",
"1369 382 OFFCURVE",
"1329 317 OFFCURVE",
"1288 230 CURVE",
"1360 230 LINE",
"1445 329 OFFCURVE",
"1535 403 OFFCURVE",
"1630 452 CURVE",
"1630 488 LINE",
"1535 537 OFFCURVE",
"1445 611 OFFCURVE",
"1360 710 CURVE",
"1288 710 LINE",
"1329 623 OFFCURVE",
"1369 558 OFFCURVE",
"1407 513 CURVE"
);
}
);
width = 2048;
}
);
note = arrowright;
unicode = 2192;
},
{
glyphname = arrowdown;
lastChange = "2025-02-05 21:35:20 +0000";
layers = (
{
layerId = "1E4AACC9-6A88-4B03-8BB8-E9E25DEE74AF";
paths = (
{
closed = 1;
nodes = (
"555 1151 LINE",
"469 1151 LINE",
"469 162 LINE",
"424 200 OFFCURVE",
"359 240 OFFCURVE",
"272 281 CURVE",
"272 209 LINE",
"371 124 OFFCURVE",
"445 34 OFFCURVE",
"494 -61 CURVE",
"530 -61 LINE",
"579 34 OFFCURVE",
"653 124 OFFCURVE",
"752 209 CURVE",
"752 281 LINE",
"665 240 OFFCURVE",
"600 200 OFFCURVE",
"555 162 CURVE"
);
}
);
width = 1024;
}
);
note = arrowdown;
unicode = 2193;
},
{
glyphname = arrowboth;
lastChange = "2025-02-05 21:35:20 +0000";
layers = (
{
layerId = "1E4AACC9-6A88-4B03-8BB8-E9E25DEE74AF";
paths = (
{
closed = 1;
nodes = (
"1407 427 LINE",
"1369 382 OFFCURVE",
"1329 317 OFFCURVE",
"1288 230 CURVE",
"1360 230 LINE",
"1445 329 OFFCURVE",
"1535 403 OFFCURVE",
"1630 452 CURVE",
"1630 488 LINE",
"1535 537 OFFCURVE",
"1445 611 OFFCURVE",
"1360 710 CURVE",
"1288 710 LINE",
"1329 623 OFFCURVE",
"1369 558 OFFCURVE",
"1407 513 CURVE",
"641 513 LINE",
"679 558 OFFCURVE",
"719 623 OFFCURVE",
"760 710 CURVE",
"688 710 LINE",
"603 611 OFFCURVE",
"513 537 OFFCURVE",
"418 488 CURVE",
"418 452 LINE",
"513 403 OFFCURVE",
"603 329 OFFCURVE",
"688 230 CURVE",
"760 230 LINE",
"719 317 OFFCURVE",
"679 382 OFFCURVE",
"641 427 CURVE"
);
}
);
width = 2048;
}
);
note = arrowboth;
unicode = 2194;
},
{
glyphname = arrowupdn;
lastChange = "2025-02-05 21:35:20 +0000";
layers = (
{
layerId = "1E4AACC9-6A88-4B03-8BB8-E9E25DEE74AF";
paths = (
{
closed = 1;
nodes = (
"469 162 LINE",
"424 200 OFFCURVE",
"359 240 OFFCURVE",
"272 281 CURVE",
"272 209 LINE",
"371 124 OFFCURVE",
"445 34 OFFCURVE",
"494 -61 CURVE",
"530 -61 LINE",
"579 34 OFFCURVE",
"653 124 OFFCURVE",
"752 209 CURVE",
"752 281 LINE",
"665 240 OFFCURVE",
"600 200 OFFCURVE",
"555 162 CURVE",
"555 928 LINE",
"600 890 OFFCURVE",
"665 850 OFFCURVE",
"752 809 CURVE",
"752 881 LINE",
"653 966 OFFCURVE",
"579 1056 OFFCURVE",
"530 1151 CURVE",
"494 1151 LINE",
"445 1056 OFFCURVE",
"371 966 OFFCURVE",
"272 881 CURVE",
"272 809 LINE",
"359 850 OFFCURVE",
"424 890 OFFCURVE",
"469 928 CURVE"
);
}
);
width = 1024;
}
);
note = arrowupdn;
unicode = 2195;
},
{
glyphname = arrowupdnbse;
lastChange = "2025-02-05 21:35:20 +0000";
layers = (
{
layerId = "1E4AACC9-6A88-4B03-8BB8-E9E25DEE74AF";
paths = (
{
closed = 1;
nodes = (
"272 -184 LINE",
"752 -184 LINE",
"752 -104 LINE",
"272 -104 LINE"
);
},
{
closed = 1;
nodes = (
"469 162 LINE",
"424 200 OFFCURVE",
"359 240 OFFCURVE",
"272 281 CURVE",
"272 209 LINE",
"371 124 OFFCURVE",
"445 34 OFFCURVE",
"494 -61 CURVE",
"530 -61 LINE",
"579 34 OFFCURVE",
"653 124 OFFCURVE",
"752 209 CURVE",
"752 281 LINE",
"665 240 OFFCURVE",
"600 200 OFFCURVE",
"555 162 CURVE",
"555 928 LINE",
"600 890 OFFCURVE",
"665 850 OFFCURVE",
"752 809 CURVE",
"752 881 LINE",
"653 966 OFFCURVE",
"579 1056 OFFCURVE",
"530 1151 CURVE",
"494 1151 LINE",
"445 1056 OFFCURVE",
"371 966 OFFCURVE",
"272 881 CURVE",
"272 809 LINE",
"359 850 OFFCURVE",
"424 890 OFFCURVE",
"469 928 CURVE"
);
}
);
width = 1024;
}
);
note = arrowupdnbse;
unicode = 21A8;
},
{
glyphname = orthogonal;
lastChange = "2025-02-05 21:35:20 +0000";
layers = (
{
layerId = "1E4AACC9-6A88-4B03-8BB8-E9E25DEE74AF";
paths = (
{
closed = 1;
nodes = (
"408 0 LINE",
"1632 0 LINE",
"1632 94 LINE",
"502 94 LINE",
"502 1223 LINE",
"408 1223 LINE"
);
}
);
width = 2005;
}
);
note = orthogonal;
unicode = 221F;
},
{
glyphname = intersection;
lastChange = "2025-02-05 21:35:20 +0000";
layers = (
{
layerId = "1E4AACC9-6A88-4B03-8BB8-E9E25DEE74AF";
paths = (
{
closed = 1;
nodes = (
"381 -2 LINE",
"381 510 LINE SMOOTH",
"381 769 OFFCURVE",
"519 930 OFFCURVE",
"735 930 CURVE SMOOTH",
"948 930 OFFCURVE",
"1091 765 OFFCURVE",
"1091 512 CURVE SMOOTH",
"1091 -2 LINE",
"1194 -2 LINE",
"1194 510 LINE SMOOTH",
"1194 707 OFFCURVE",
"1110 878 OFFCURVE",
"970 966 CURVE SMOOTH",
"899 1010 OFFCURVE",
"820 1032 OFFCURVE",
"733 1032 CURVE SMOOTH",
"560 1032 OFFCURVE",
"413 939 OFFCURVE",
"336 780 CURVE SMOOTH",
"297 700 OFFCURVE",
"278 610 OFFCURVE",
"278 510 CURVE SMOOTH",
"278 -2 LINE"
);
}
);
width = 1472;
}
);
note = intersection;
unicode = 2229;
},
{
glyphname = equivalence;
lastChange = "2025-02-05 21:35:20 +0000";
layers = (
{
layerId = "1E4AACC9-6A88-4B03-8BB8-E9E25DEE74AF";
paths = (
{
closed = 1;
nodes = (
"102 406 LINE",
"102 263 LINE",
"1054 263 LINE",
"1054 406 LINE"
);
},
{
closed = 1;
nodes = (
"102 1096 LINE",
"102 953 LINE",
"1054 953 LINE",
"1054 1096 LINE"
);
},
{
closed = 1;
nodes = (
"102 751 LINE",
"102 608 LINE",
"1054 608 LINE",
"1054 751 LINE"
);
}
);
width = 1167;
}
);
note = equivalence;
unicode = 2261;
},
{
glyphname = house;
lastChange = "2025-02-05 21:35:20 +0000";
layers = (
{
layerId = "1E4AACC9-6A88-4B03-8BB8-E9E25DEE74AF";
paths = (
{
closed = 1;
nodes = (
"1075 0 LINE",
"1075 635 LINE",
"614 1153 LINE",
"153 635 LINE",
"153 0 LINE"
);
},
{
closed = 1;
nodes = (
"233 600 LINE",
"614 1026 LINE",
"995 600 LINE",
"995 82 LINE",
"233 82 LINE"
);
}
);
width = 1229;
}
);
note = house;
unicode = 2302;
},
{
glyphname = revlogicalnot;
lastChange = "2025-02-05 21:35:20 +0000";
layers = (
{
layerId = "1E4AACC9-6A88-4B03-8BB8-E9E25DEE74AF";
paths = (
{
closed = 1;
nodes = (
"102 752 LINE",
"102 203 LINE",
"244 203 LINE",
"244 608 LINE",
"1055 608 LINE",
"1055 752 LINE"
);
}
);
width = 1167;
}
);
note = revlogicalnot;
unicode = 2310;
},
{
glyphname = integraltp;
lastChange = "2025-02-05 21:35:20 +0000";
layers = (
{
layerId = "1E4AACC9-6A88-4B03-8BB8-E9E25DEE74AF";
paths = (
{
closed = 1;
nodes = (
"693 1423 LINE SMOOTH",
"693 1493 OFFCURVE",
"695 1540 OFFCURVE",
"699 1563 CURVE SMOOTH",
"705 1589 OFFCURVE",
"720 1602 OFFCURVE",
"744 1602 CURVE SMOOTH",
"755 1602 OFFCURVE",
"771 1589 OFFCURVE",
"793 1563 CURVE SMOOTH",
"818 1535 OFFCURVE",
"836 1518 OFFCURVE",
"847 1513 CURVE",
"856 1506 OFFCURVE",
"870 1503 OFFCURVE",
"890 1503 CURVE SMOOTH",
"939 1503 OFFCURVE",
"978 1542 OFFCURVE",
"978 1595 CURVE SMOOTH",
"978 1659 OFFCURVE",
"924 1706 OFFCURVE",
"840 1706 CURVE SMOOTH",
"672 1706 OFFCURVE",
"546 1525 OFFCURVE",
"546 1264 CURVE SMOOTH",
"546 -614 LINE",
"693 -614 LINE"
);
}
);
width = 1237;
}
);
note = integraltp;
unicode = 2320;
},
{
glyphname = integralbt;
lastChange = "2025-02-05 21:35:20 +0000";
layers = (
{
layerId = "1E4AACC9-6A88-4B03-8BB8-E9E25DEE74AF";
paths = (
{
closed = 1;
nodes = (
"546 -334 LINE SMOOTH",
"546 -419 OFFCURVE",
"542 -469 OFFCURVE",
"535 -486 CURVE SMOOTH",
"527 -503 OFFCURVE",
"513 -512 OFFCURVE",
"494 -512 CURVE SMOOTH",
"483 -512 OFFCURVE",
"468 -500 OFFCURVE",
"447 -475 CURVE SMOOTH",
"426 -448 OFFCURVE",
"413 -433 OFFCURVE",
"406 -430 CURVE",
"389 -419 OFFCURVE",
"369 -414 OFFCURVE",
"347 -414 CURVE SMOOTH",
"299 -414 OFFCURVE",
"261 -454 OFFCURVE",
"261 -506 CURVE SMOOTH",
"261 -569 OFFCURVE",
"319 -614 OFFCURVE",
"398 -614 CURVE SMOOTH",
"574 -614 OFFCURVE",
"693 -434 OFFCURVE",
"693 -174 CURVE SMOOTH",
"693 1706 LINE",
"546 1706 LINE"
);
}
);
width = 1237;
}
);
note = integralbt;
unicode = 2321;
},
{
glyphname = uni2500;
lastChange = "2025-02-05 21:35:20 +0000";
layers = (
{
layerId = "1E4AACC9-6A88-4B03-8BB8-E9E25DEE74AF";
paths = (
{
closed = 1;
nodes = (
"1461 549 LINE",
"1461 694 LINE",
"-10 694 LINE",
"-10 549 LINE"
);
}
);
width = 1451;
}
);
note = uni2500;
unicode = 2500;
},
{
glyphname = uni2502;
lastChange = "2025-02-05 21:35:20 +0000";
layers = (
{
layerId = "1E4AACC9-6A88-4B03-8BB8-E9E25DEE74AF";
paths = (
{
closed = 1;
nodes = (
"448 -621 LINE",
"593 -621 LINE",
"593 1864 LINE",
"448 1864 LINE"
);
}
);
width = 1261;
}
);
note = uni2502;
unicode = 2502;
},
{
glyphname = uni250C;
lastChange = "2025-02-05 21:35:20 +0000";
layers = (
{
layerId = "1E4AACC9-6A88-4B03-8BB8-E9E25DEE74AF";
paths = (
{
closed = 1;
nodes = (
"653 -621 LINE",
"798 -621 LINE",
"798 549 LINE",
"1461 549 LINE",
"1461 694 LINE",
"653 694 LINE"
);
}
);
width = 1451;
}
);
note = uni250C;
unicode = 250C;
},
{
glyphname = uni2510;
lastChange = "2025-02-05 21:35:20 +0000";
layers = (
{
layerId = "1E4AACC9-6A88-4B03-8BB8-E9E25DEE74AF";
paths = (
{
closed = 1;
nodes = (
"653 549 LINE",
"653 -621 LINE",
"798 -621 LINE",
"798 694 LINE",
"-10 694 LINE",
"-10 549 LINE"
);
}
);
width = 1451;
}
);
note = uni2510;
unicode = 2510;
},
{
glyphname = uni2514;
lastChange = "2025-02-05 21:35:20 +0000";
layers = (
{
layerId = "1E4AACC9-6A88-4B03-8BB8-E9E25DEE74AF";
paths = (
{
closed = 1;
nodes = (
"653 549 LINE",
"1461 549 LINE",
"1461 694 LINE",
"798 694 LINE",
"798 1864 LINE",
"653 1864 LINE"
);
}
);
width = 1451;
}
);
note = uni2514;
unicode = 2514;
},
{
glyphname = uni2518;
lastChange = "2025-02-05 21:35:20 +0000";
layers = (
{
layerId = "1E4AACC9-6A88-4B03-8BB8-E9E25DEE74AF";
paths = (
{
closed = 1;
nodes = (
"798 549 LINE",
"798 1864 LINE",
"653 1864 LINE",
"653 694 LINE",
"-10 694 LINE",
"-10 549 LINE"
);
}
);
width = 1451;
}
);
note = uni2518;
unicode = 2518;
},
{
glyphname = uni251C;
lastChange = "2025-02-05 21:35:20 +0000";
layers = (
{
layerId = "1E4AACC9-6A88-4B03-8BB8-E9E25DEE74AF";
paths = (
{
closed = 1;
nodes = (
"653 -621 LINE",
"798 -621 LINE",
"798 549 LINE",
"1461 549 LINE",
"1461 694 LINE",
"798 694 LINE",
"798 1864 LINE",
"653 1864 LINE"
);
}
);
width = 1451;
}
);
note = uni251C;
unicode = 251C;
},
{
glyphname = uni2524;
lastChange = "2025-02-05 21:35:20 +0000";
layers = (
{
layerId = "1E4AACC9-6A88-4B03-8BB8-E9E25DEE74AF";
paths = (
{
closed = 1;
nodes = (
"653 549 LINE",
"653 -621 LINE",
"798 -621 LINE",
"798 1864 LINE",
"653 1864 LINE",
"653 694 LINE",
"-10 694 LINE",
"-10 549 LINE"
);
}
);
width = 1451;
}
);
note = uni2524;
unicode = 2524;
},
{
glyphname = uni252C;
lastChange = "2025-02-05 21:35:20 +0000";
layers = (
{
layerId = "1E4AACC9-6A88-4B03-8BB8-E9E25DEE74AF";
paths = (
{
closed = 1;
nodes = (
"653 549 LINE",
"653 -621 LINE",
"798 -621 LINE",
"798 549 LINE",
"1461 549 LINE",
"1461 694 LINE",
"-10 694 LINE",
"-10 549 LINE"
);
}
);
width = 1451;
}
);
note = uni252C;
unicode = 252C;
},
{
glyphname = uni2534;
lastChange = "2025-02-05 21:35:20 +0000";
layers = (
{
layerId = "1E4AACC9-6A88-4B03-8BB8-E9E25DEE74AF";
paths = (
{
closed = 1;
nodes = (
"1461 549 LINE",
"1461 694 LINE",
"798 694 LINE",
"798 1864 LINE",
"653 1864 LINE",
"653 694 LINE",
"-10 694 LINE",
"-10 549 LINE"
);
}
);
width = 1451;
}
);
note = uni2534;
unicode = 2534;
},
{
glyphname = uni253C;
lastChange = "2025-02-05 21:35:20 +0000";
layers = (
{
layerId = "1E4AACC9-6A88-4B03-8BB8-E9E25DEE74AF";
paths = (
{
closed = 1;
nodes = (
"653 549 LINE",
"653 -621 LINE",
"798 -621 LINE",
"798 549 LINE",
"1461 549 LINE",
"1461 694 LINE",
"798 694 LINE",
"798 1864 LINE",
"653 1864 LINE",
"653 694 LINE",
"-10 694 LINE",
"-10 549 LINE"
);
}
);
width = 1451;
}
);
note = uni253C;
unicode = 253C;
},
{
glyphname = uni2550;
lastChange = "2025-02-05 21:35:20 +0000";
layers = (
{
layerId = "1E4AACC9-6A88-4B03-8BB8-E9E25DEE74AF";
paths = (
{
closed = 1;
nodes = (
"1461 729 LINE",
"1461 874 LINE",
"-10 874 LINE",
"-10 729 LINE"
);
},
{
closed = 1;
nodes = (
"1461 369 LINE",
"1461 514 LINE",
"-10 514 LINE",
"-10 369 LINE"
);
}
);
width = 1451;
}
);
note = uni2550;
unicode = 2550;
},
{
glyphname = uni2551;
lastChange = "2025-02-05 21:35:20 +0000";
layers = (
{
layerId = "1E4AACC9-6A88-4B03-8BB8-E9E25DEE74AF";
paths = (
{
closed = 1;
nodes = (
"473 -621 LINE",
"618 -621 LINE",
"618 1864 LINE",
"473 1864 LINE"
);
},
{
closed = 1;
nodes = (
"833 -621 LINE",
"978 -621 LINE",
"978 1864 LINE",
"833 1864 LINE"
);
}
);
width = 1451;
}
);
note = uni2551;
unicode = 2551;
},
{
glyphname = uni2552;
lastChange = "2025-02-05 21:35:20 +0000";
layers = (
{
layerId = "1E4AACC9-6A88-4B03-8BB8-E9E25DEE74AF";
paths = (
{
closed = 1;
nodes = (
"653 -621 LINE",
"798 -621 LINE",
"798 369 LINE",
"1461 369 LINE",
"1461 514 LINE",
"798 514 LINE",
"798 729 LINE",
"1461 729 LINE",
"1461 874 LINE",
"653 874 LINE"
);
}
);
width = 1451;
}
);
note = uni2552;
unicode = 2552;
},
{
glyphname = uni2553;
lastChange = "2025-02-05 21:35:20 +0000";
layers = (
{
layerId = "1E4AACC9-6A88-4B03-8BB8-E9E25DEE74AF";
paths = (
{
closed = 1;
nodes = (
"473 694 LINE",
"473 -621 LINE",
"618 -621 LINE",
"618 549 LINE",
"833 549 LINE",
"833 -621 LINE",
"978 -621 LINE",
"978 549 LINE",
"1461 549 LINE",
"1461 694 LINE"
);
}
);
width = 1451;
}
);
note = uni2553;
unicode = 2553;
},
{
glyphname = uni2554;
lastChange = "2025-02-05 21:35:20 +0000";
layers = (
{
layerId = "1E4AACC9-6A88-4B03-8BB8-E9E25DEE74AF";
paths = (
{
closed = 1;
nodes = (
"473 -621 LINE",
"618 -621 LINE",
"618 729 LINE",
"1461 729 LINE",
"1461 874 LINE",
"473 874 LINE"
);
},
{
closed = 1;
nodes = (
"833 -621 LINE",
"978 -621 LINE",
"978 369 LINE",
"1461 369 LINE",
"1461 514 LINE",
"833 514 LINE"
);
}
);
width = 1451;
}
);
note = uni2554;
unicode = 2554;
},
{
glyphname = uni2555;
lastChange = "2025-02-05 21:35:20 +0000";
layers = (
{
layerId = "1E4AACC9-6A88-4B03-8BB8-E9E25DEE74AF";
paths = (
{
closed = 1;
nodes = (
"653 369 LINE",
"653 -621 LINE",
"798 -621 LINE",
"798 874 LINE",
"-10 874 LINE",
"-10 729 LINE",
"653 729 LINE",
"653 514 LINE",
"-10 514 LINE",
"-10 369 LINE"
);
}
);
width = 1451;
}
);
note = uni2555;
unicode = 2555;
},
{
glyphname = uni2556;
lastChange = "2025-02-05 21:35:20 +0000";
layers = (
{
layerId = "1E4AACC9-6A88-4B03-8BB8-E9E25DEE74AF";
paths = (
{
closed = 1;
nodes = (
"473 549 LINE",
"473 -621 LINE",
"618 -621 LINE",
"618 549 LINE",
"833 549 LINE",
"833 -621 LINE",
"978 -621 LINE",
"978 694 LINE",
"-10 694 LINE",
"-10 549 LINE"
);
}
);
width = 1451;
}
);
note = uni2556;
unicode = 2556;
},
{
glyphname = uni2557;
lastChange = "2025-02-05 21:35:20 +0000";
layers = (
{
layerId = "1E4AACC9-6A88-4B03-8BB8-E9E25DEE74AF";
paths = (
{
closed = 1;
nodes = (
"-10 874 LINE",
"-10 729 LINE",
"833 729 LINE",
"833 -621 LINE",
"978 -621 LINE",
"978 874 LINE"
);
},
{
closed = 1;
nodes = (
"618 514 LINE",
"-10 514 LINE",
"-10 369 LINE",
"473 369 LINE",
"473 -621 LINE",
"618 -621 LINE"
);
}
);
width = 1451;
}
);
note = uni2557;
unicode = 2557;
},
{
glyphname = uni2558;
lastChange = "2025-02-05 21:35:20 +0000";
layers = (
{
layerId = "1E4AACC9-6A88-4B03-8BB8-E9E25DEE74AF";
paths = (
{
closed = 1;
nodes = (
"653 369 LINE",
"1461 369 LINE",
"1461 514 LINE",
"798 514 LINE",
"798 729 LINE",
"1461 729 LINE",
"1461 874 LINE",
"798 874 LINE",
"798 1864 LINE",
"653 1864 LINE"
);
}
);
width = 1451;
}
);
note = uni2558;
unicode = 2558;
},
{
glyphname = uni2559;
lastChange = "2025-02-05 21:35:20 +0000";
layers = (
{
layerId = "1E4AACC9-6A88-4B03-8BB8-E9E25DEE74AF";
paths = (
{
closed = 1;
nodes = (
"833 694 LINE",
"618 694 LINE",
"618 1864 LINE",
"473 1864 LINE",
"473 549 LINE",
"1461 549 LINE",
"1461 694 LINE",
"978 694 LINE",
"978 1864 LINE",
"833 1864 LINE"
);
}
);
width = 1451;
}
);
note = uni2559;
unicode = 2559;
},
{
glyphname = uni255A;
lastChange = "2025-02-05 21:35:20 +0000";
layers = (
{
layerId = "1E4AACC9-6A88-4B03-8BB8-E9E25DEE74AF";
paths = (
{
closed = 1;
nodes = (
"473 369 LINE",
"1461 369 LINE",
"1461 514 LINE",
"618 514 LINE",
"618 1864 LINE",
"473 1864 LINE"
);
},
{
closed = 1;
nodes = (
"833 729 LINE",
"1461 729 LINE",
"1461 874 LINE",
"978 874 LINE",
"978 1864 LINE",
"833 1864 LINE"
);
}
);
width = 1451;
}
);
note = uni255A;
unicode = 255A;
},
{
glyphname = uni255B;
lastChange = "2025-02-05 21:35:20 +0000";
layers = (
{
layerId = "1E4AACC9-6A88-4B03-8BB8-E9E25DEE74AF";
paths = (
{
closed = 1;
nodes = (
"798 369 LINE",
"798 1864 LINE",
"653 1864 LINE",
"653 874 LINE",
"-10 874 LINE",
"-10 729 LINE",
"653 729 LINE",
"653 514 LINE",
"-10 514 LINE",
"-10 369 LINE"
);
}
);
width = 1451;
}
);
note = uni255B;
unicode = 255B;
},
{
glyphname = uni255C;
lastChange = "2025-02-05 21:35:20 +0000";
layers = (
{
layerId = "1E4AACC9-6A88-4B03-8BB8-E9E25DEE74AF";
paths = (
{
closed = 1;
nodes = (
"978 1864 LINE",
"833 1864 LINE",
"833 694 LINE",
"618 694 LINE",
"618 1864 LINE",
"473 1864 LINE",
"473 694 LINE",
"-10 694 LINE",
"-10 549 LINE",
"978 549 LINE"
);
}
);
width = 1451;
}
);
note = uni255C;
unicode = 255C;
},
{
glyphname = uni255D;
lastChange = "2025-02-05 21:35:20 +0000";
layers = (
{
layerId = "1E4AACC9-6A88-4B03-8BB8-E9E25DEE74AF";
paths = (
{
closed = 1;
nodes = (
"978 1864 LINE",
"833 1864 LINE",
"833 514 LINE",
"-10 514 LINE",
"-10 369 LINE",
"978 369 LINE"
);
},
{
closed = 1;
nodes = (
"473 874 LINE",
"-10 874 LINE",
"-10 729 LINE",
"618 729 LINE",
"618 1864 LINE",
"473 1864 LINE"
);
}
);
width = 1451;
}
);
note = uni255D;
unicode = 255D;
},
{
glyphname = uni255E;
lastChange = "2025-02-05 21:35:20 +0000";
layers = (
{
layerId = "1E4AACC9-6A88-4B03-8BB8-E9E25DEE74AF";
paths = (
{
closed = 1;
nodes = (
"653 -621 LINE",
"798 -621 LINE",
"798 369 LINE",
"1461 369 LINE",
"1461 514 LINE",
"798 514 LINE",
"798 729 LINE",
"1461 729 LINE",
"1461 874 LINE",
"798 874 LINE",
"798 1864 LINE",
"653 1864 LINE"
);
}
);
width = 1451;
}
);
note = uni255E;
unicode = 255E;
},
{
glyphname = uni255F;
lastChange = "2025-02-05 21:35:20 +0000";
layers = (
{
layerId = "1E4AACC9-6A88-4B03-8BB8-E9E25DEE74AF";
paths = (
{
closed = 1;
nodes = (
"833 -621 LINE",
"978 -621 LINE",
"978 549 LINE",
"1461 549 LINE",
"1461 694 LINE",
"978 694 LINE",
"978 1864 LINE",
"833 1864 LINE"
);
},
{
closed = 1;
nodes = (
"473 -621 LINE",
"618 -621 LINE",
"618 1864 LINE",
"473 1864 LINE"
);
}
);
width = 1451;
}
);
note = uni255F;
unicode = 255F;
},
{
glyphname = uni2560;
lastChange = "2025-02-05 21:35:20 +0000";
layers = (
{
layerId = "1E4AACC9-6A88-4B03-8BB8-E9E25DEE74AF";
paths = (
{
closed = 1;
nodes = (
"618 1864 LINE",
"473 1864 LINE",
"473 -621 LINE",
"618 -621 LINE"
);
},
{
closed = 1;
nodes = (
"833 -621 LINE",
"978 -621 LINE",
"978 369 LINE",
"1461 369 LINE",
"1461 514 LINE",
"833 514 LINE"
);
},
{
closed = 1;
nodes = (
"833 729 LINE",
"1461 729 LINE",
"1461 874 LINE",
"978 874 LINE",
"978 1864 LINE",
"833 1864 LINE"
);
}
);
width = 1451;
}
);
note = uni2560;
unicode = 2560;
},
{
glyphname = uni2561;
lastChange = "2025-02-05 21:35:20 +0000";
layers = (
{
layerId = "1E4AACC9-6A88-4B03-8BB8-E9E25DEE74AF";
paths = (
{
closed = 1;
nodes = (
"653 369 LINE",
"653 -621 LINE",
"798 -621 LINE",
"798 1864 LINE",
"653 1864 LINE",
"653 874 LINE",
"-10 874 LINE",
"-10 729 LINE",
"653 729 LINE",
"653 514 LINE",
"-10 514 LINE",
"-10 369 LINE"
);
}
);
width = 1451;
}
);
note = uni2561;
unicode = 2561;
},
{
glyphname = uni2562;
lastChange = "2025-02-05 21:35:20 +0000";
layers = (
{
layerId = "1E4AACC9-6A88-4B03-8BB8-E9E25DEE74AF";
paths = (
{
closed = 1;
nodes = (
"473 549 LINE",
"473 -621 LINE",
"618 -621 LINE",
"618 1864 LINE",
"473 1864 LINE",
"473 694 LINE",
"-10 694 LINE",
"-10 549 LINE"
);
},
{
closed = 1;
nodes = (
"833 -621 LINE",
"978 -621 LINE",
"978 1864 LINE",
"833 1864 LINE"
);
}
);
width = 1451;
}
);
note = uni2562;
unicode = 2562;
},
{
glyphname = uni2563;
lastChange = "2025-02-05 21:35:20 +0000";
layers = (
{
layerId = "1E4AACC9-6A88-4B03-8BB8-E9E25DEE74AF";
paths = (
{
closed = 1;
nodes = (
"833 -621 LINE",
"978 -621 LINE",
"978 1864 LINE",
"833 1864 LINE"
);
},
{
closed = 1;
nodes = (
"473 874 LINE",
"-10 874 LINE",
"-10 729 LINE",
"618 729 LINE",
"618 1864 LINE",
"473 1864 LINE"
);
},
{
closed = 1;
nodes = (
"618 514 LINE",
"-10 514 LINE",
"-10 369 LINE",
"473 369 LINE",
"473 -621 LINE",
"618 -621 LINE"
);
}
);
width = 1451;
}
);
note = uni2563;
unicode = 2563;
},
{
glyphname = uni2564;
lastChange = "2025-02-05 21:35:20 +0000";
layers = (
{
layerId = "1E4AACC9-6A88-4B03-8BB8-E9E25DEE74AF";
paths = (
{
closed = 1;
nodes = (
"653 369 LINE",
"653 -621 LINE",
"798 -621 LINE",
"798 369 LINE",
"1461 369 LINE",
"1461 514 LINE",
"-10 514 LINE",
"-10 369 LINE"
);
},
{
closed = 1;
nodes = (
"1461 729 LINE",
"1461 874 LINE",
"-10 874 LINE",
"-10 729 LINE"
);
}
);
width = 1451;
}
);
note = uni2564;
unicode = 2564;
},
{
glyphname = uni2565;
lastChange = "2025-02-05 21:35:20 +0000";
layers = (
{
layerId = "1E4AACC9-6A88-4B03-8BB8-E9E25DEE74AF";
paths = (
{
closed = 1;
nodes = (
"473 549 LINE",
"473 -621 LINE",
"618 -621 LINE",
"618 549 LINE",
"833 549 LINE",
"833 -621 LINE",
"978 -621 LINE",
"978 549 LINE",
"1461 549 LINE",
"1461 694 LINE",
"-10 694 LINE",
"-10 549 LINE"
);
}
);
width = 1451;
}
);
note = uni2565;
unicode = 2565;
},
{
glyphname = uni2566;
lastChange = "2025-02-05 21:35:20 +0000";
layers = (
{
layerId = "1E4AACC9-6A88-4B03-8BB8-E9E25DEE74AF";
paths = (
{
closed = 1;
nodes = (
"618 514 LINE",
"-10 514 LINE",
"-10 369 LINE",
"473 369 LINE",
"473 -621 LINE",
"618 -621 LINE"
);
},
{
closed = 1;
nodes = (
"833 -621 LINE",
"978 -621 LINE",
"978 369 LINE",
"1461 369 LINE",
"1461 514 LINE",
"833 514 LINE"
);
},
{
closed = 1;
nodes = (
"-10 874 LINE",
"-10 729 LINE",
"1461 729 LINE",
"1461 874 LINE"
);
}
);
width = 1451;
}
);
note = uni2566;
unicode = 2566;
},
{
glyphname = uni2567;
lastChange = "2025-02-05 21:35:20 +0000";
layers = (
{
layerId = "1E4AACC9-6A88-4B03-8BB8-E9E25DEE74AF";
paths = (
{
closed = 1;
nodes = (
"1461 729 LINE",
"1461 874 LINE",
"798 874 LINE",
"798 1864 LINE",
"653 1864 LINE",
"653 874 LINE",
"-10 874 LINE",
"-10 729 LINE"
);
},
{
closed = 1;
nodes = (
"1461 369 LINE",
"1461 514 LINE",
"-10 514 LINE",
"-10 369 LINE"
);
}
);
width = 1451;
}
);
note = uni2567;
unicode = 2567;
},
{
glyphname = uni2568;
lastChange = "2025-02-05 21:35:20 +0000";
layers = (
{
layerId = "1E4AACC9-6A88-4B03-8BB8-E9E25DEE74AF";
paths = (
{
closed = 1;
nodes = (
"1461 549 LINE",
"1461 694 LINE",
"978 694 LINE",
"978 1864 LINE",
"833 1864 LINE",
"833 694 LINE",
"618 694 LINE",
"618 1864 LINE",
"473 1864 LINE",
"473 694 LINE",
"-10 694 LINE",
"-10 549 LINE"
);
}
);
width = 1451;
}
);
note = uni2568;
unicode = 2568;
},
{
glyphname = uni2569;
lastChange = "2025-02-05 21:35:20 +0000";
layers = (
{
layerId = "1E4AACC9-6A88-4B03-8BB8-E9E25DEE74AF";
paths = (
{
closed = 1;
nodes = (
"833 729 LINE",
"1461 729 LINE",
"1461 874 LINE",
"978 874 LINE",
"978 1864 LINE",
"833 1864 LINE"
);
},
{
closed = 1;
nodes = (
"473 874 LINE",
"-10 874 LINE",
"-10 729 LINE",
"618 729 LINE",
"618 1864 LINE",
"473 1864 LINE"
);
},
{
closed = 1;
nodes = (
"1461 369 LINE",
"1461 514 LINE",
"-10 514 LINE",
"-10 369 LINE"
);
}
);
width = 1451;
}
);
note = uni2569;
unicode = 2569;
},
{
glyphname = uni256A;
lastChange = "2025-02-05 21:35:20 +0000";
layers = (
{
layerId = "1E4AACC9-6A88-4B03-8BB8-E9E25DEE74AF";
paths = (
{
closed = 1;
nodes = (
"653 369 LINE",
"653 -621 LINE",
"798 -621 LINE",
"798 369 LINE",
"1461 369 LINE",
"1461 514 LINE",
"798 514 LINE",
"798 729 LINE",
"1461 729 LINE",
"1461 874 LINE",
"798 874 LINE",
"798 1864 LINE",
"653 1864 LINE",
"653 874 LINE",
"-10 874 LINE",
"-10 729 LINE",
"653 729 LINE",
"653 514 LINE",
"-10 514 LINE",
"-10 369 LINE"
);
}
);
width = 1451;
}
);
note = uni256A;
unicode = 256A;
},
{
glyphname = uni256B;
lastChange = "2025-02-05 21:35:20 +0000";
layers = (
{
layerId = "1E4AACC9-6A88-4B03-8BB8-E9E25DEE74AF";
paths = (
{
closed = 1;
nodes = (
"833 694 LINE",
"618 694 LINE",
"618 1864 LINE",
"473 1864 LINE",
"473 694 LINE",
"-10 694 LINE",
"-10 549 LINE",
"473 549 LINE",
"473 -621 LINE",
"618 -621 LINE",
"618 549 LINE",
"833 549 LINE",
"833 -621 LINE",
"978 -621 LINE",
"978 549 LINE",
"1461 549 LINE",
"1461 694 LINE",
"978 694 LINE",
"978 1864 LINE",
"833 1864 LINE"
);
}
);
width = 1451;
}
);
note = uni256B;
unicode = 256B;
},
{
glyphname = uni256C;
lastChange = "2025-02-05 21:35:20 +0000";
layers = (
{
layerId = "1E4AACC9-6A88-4B03-8BB8-E9E25DEE74AF";
paths = (
{
closed = 1;
nodes = (
"833 729 LINE",
"1461 729 LINE",
"1461 874 LINE",
"978 874 LINE",
"978 1864 LINE",
"833 1864 LINE"
);
},
{
closed = 1;
nodes = (
"618 514 LINE",
"-10 514 LINE",
"-10 369 LINE",
"473 369 LINE",
"473 -621 LINE",
"618 -621 LINE"
);
},
{
closed = 1;
nodes = (
"833 -621 LINE",
"978 -621 LINE",
"978 369 LINE",
"1461 369 LINE",
"1461 514 LINE",
"833 514 LINE"
);
},
{
closed = 1;
nodes = (
"473 874 LINE",
"-10 874 LINE",
"-10 729 LINE",
"618 729 LINE",
"618 1864 LINE",
"473 1864 LINE"
);
}
);
width = 1451;
}
);
note = uni256C;
unicode = 256C;
},
{
glyphname = upblock;
lastChange = "2025-02-05 21:35:20 +0000";
layers = (
{
layerId = "1E4AACC9-6A88-4B03-8BB8-E9E25DEE74AF";
paths = (
{
closed = 1;
nodes = (
"1451 1864 LINE",
"0 1864 LINE",
"0 621 LINE",
"1451 621 LINE"
);
}
);
width = 1451;
}
);
note = upblock;
unicode = 2580;
},
{
glyphname = dnblock;
lastChange = "2025-02-05 21:35:20 +0000";
layers = (
{
layerId = "1E4AACC9-6A88-4B03-8BB8-E9E25DEE74AF";
paths = (
{
closed = 1;
nodes = (
"1451 621 LINE",
"0 621 LINE",
"0 -621 LINE",
"1451 -621 LINE"
);
}
);
width = 1451;
}
);
note = dnblock;
unicode = 2584;
},
{
glyphname = block;
lastChange = "2025-02-05 21:35:20 +0000";
layers = (
{
layerId = "1E4AACC9-6A88-4B03-8BB8-E9E25DEE74AF";
paths = (
{
closed = 1;
nodes = (
"1451 1864 LINE",
"0 1864 LINE",
"0 -621 LINE",
"1451 -621 LINE"
);
}
);
width = 1451;
}
);
note = block;
unicode = 2588;
},
{
glyphname = lfblock;
lastChange = "2025-02-05 21:35:20 +0000";
layers = (
{
layerId = "1E4AACC9-6A88-4B03-8BB8-E9E25DEE74AF";
paths = (
{
closed = 1;
nodes = (
"726 1864 LINE",
"0 1864 LINE",
"0 -621 LINE",
"726 -621 LINE"
);
}
);
width = 1451;
}
);
note = lfblock;
unicode = 258C;
},
{
glyphname = rtblock;
lastChange = "2025-02-05 21:35:20 +0000";
layers = (
{
layerId = "1E4AACC9-6A88-4B03-8BB8-E9E25DEE74AF";
paths = (
{
closed = 1;
nodes = (
"1451 1864 LINE",
"725 1864 LINE",
"725 -621 LINE",
"1451 -621 LINE"
);
}
);
width = 1451;
}
);
note = rtblock;
unicode = 2590;
},
{
glyphname = ltshade;
lastChange = "2025-02-05 21:35:20 +0000";
layers = (
{
layerId = "1E4AACC9-6A88-4B03-8BB8-E9E25DEE74AF";
paths = (
{
closed = 1;
nodes = (
"103 1216 LINE",
"207 1216 LINE",
"207 1314 LINE",
"103 1314 LINE"
);
},
{
closed = 1;
nodes = (
"517 1216 LINE",
"621 1216 LINE",
"621 1314 LINE",
"517 1314 LINE"
);
},
{
closed = 1;
nodes = (
"933 1216 LINE",
"1036 1216 LINE",
"1036 1314 LINE",
"933 1314 LINE"
);
},
{
closed = 1;
nodes = (
"310 1023 LINE",
"414 1023 LINE",
"414 1119 LINE",
"310 1119 LINE"
);
},
{
closed = 1;
nodes = (
"725 1023 LINE",
"829 1023 LINE",
"829 1119 LINE",
"725 1119 LINE"
);
},
{
closed = 1;
nodes = (
"1140 1023 LINE",
"1244 1023 LINE",
"1244 1119 LINE",
"1140 1119 LINE"
);
},
{
closed = 1;
nodes = (
"933 831 LINE",
"1036 831 LINE",
"1036 927 LINE",
"933 927 LINE"
);
},
{
closed = 1;
nodes = (
"517 831 LINE",
"621 831 LINE",
"621 927 LINE",
"517 927 LINE"
);
},
{
closed = 1;
nodes = (
"103 831 LINE",
"207 831 LINE",
"207 927 LINE",
"103 927 LINE"
);
},
{
closed = 1;
nodes = (
"1140 636 LINE",
"1244 636 LINE",
"1244 732 LINE",
"1140 732 LINE"
);
},
{
closed = 1;
nodes = (
"725 636 LINE",
"829 636 LINE",
"829 732 LINE",
"725 732 LINE"
);
},
{
closed = 1;
nodes = (
"310 636 LINE",
"414 636 LINE",
"414 732 LINE",
"310 732 LINE"
);
},
{
closed = 1;
nodes = (
"103 444 LINE",
"207 444 LINE",
"207 540 LINE",
"103 540 LINE"
);
},
{
closed = 1;
nodes = (
"517 444 LINE",
"621 444 LINE",
"621 540 LINE",
"517 540 LINE"
);
},
{
closed = 1;
nodes = (
"933 444 LINE",
"1036 444 LINE",
"1036 540 LINE",
"933 540 LINE"
);
},
{
closed = 1;
nodes = (
"1140 249 LINE",
"1244 249 LINE",
"1244 345 LINE",
"1140 345 LINE"
);
},
{
closed = 1;
nodes = (
"725 249 LINE",
"829 249 LINE",
"829 345 LINE",
"725 345 LINE"
);
},
{
closed = 1;
nodes = (
"310 249 LINE",
"414 249 LINE",
"414 345 LINE",
"310 345 LINE"
);
},
{
closed = 1;
nodes = (
"103 56 LINE",
"207 56 LINE",
"207 153 LINE",
"103 153 LINE"
);
},
{
closed = 1;
nodes = (
"517 56 LINE",
"621 56 LINE",
"621 153 LINE",
"517 153 LINE"
);
},
{
closed = 1;
nodes = (
"933 56 LINE",
"1036 56 LINE",
"1036 153 LINE",
"933 153 LINE"
);
},
{
closed = 1;
nodes = (
"310 -136 LINE",
"414 -136 LINE",
"414 -42 LINE",
"310 -42 LINE"
);
},
{
closed = 1;
nodes = (
"725 -136 LINE",
"829 -136 LINE",
"829 -42 LINE",
"725 -42 LINE"
);
},
{
closed = 1;
nodes = (
"1140 -136 LINE",
"1244 -136 LINE",
"1244 -42 LINE",
"1140 -42 LINE"
);
},
{
closed = 1;
nodes = (
"933 -331 LINE",
"1036 -331 LINE",
"1036 -234 LINE",
"933 -234 LINE"
);
},
{
closed = 1;
nodes = (
"517 -331 LINE",
"621 -331 LINE",
"621 -234 LINE",
"517 -234 LINE"
);
},
{
closed = 1;
nodes = (
"103 -331 LINE",
"207 -331 LINE",
"207 -234 LINE",
"103 -234 LINE"
);
},
{
closed = 1;
nodes = (
"310 -523 LINE",
"414 -523 LINE",
"414 -427 LINE",
"310 -427 LINE"
);
},
{
closed = 1;
nodes = (
"725 -523 LINE",
"829 -523 LINE",
"829 -427 LINE",
"725 -427 LINE"
);
},
{
closed = 1;
nodes = (
"1140 -523 LINE",
"1244 -523 LINE",
"1244 -427 LINE",
"1140 -427 LINE"
);
},
{
closed = 1;
nodes = (
"310 1408 LINE",
"414 1408 LINE",
"414 1506 LINE",
"310 1506 LINE"
);
},
{
closed = 1;
nodes = (
"725 1408 LINE",
"829 1408 LINE",
"829 1506 LINE",
"725 1506 LINE"
);
},
{
closed = 1;
nodes = (
"1140 1408 LINE",
"1244 1408 LINE",
"1244 1506 LINE",
"1140 1506 LINE"
);
},
{
closed = 1;
nodes = (
"103 1603 LINE",
"207 1603 LINE",
"207 1699 LINE",
"103 1699 LINE"
);
},
{
closed = 1;
nodes = (
"517 1603 LINE",
"621 1603 LINE",
"621 1699 LINE",
"517 1699 LINE"
);
},
{
closed = 1;
nodes = (
"933 1603 LINE",
"1036 1603 LINE",
"1036 1699 LINE",
"933 1699 LINE"
);
},
{
closed = 1;
nodes = (
"1347 1216 LINE",
"1451 1216 LINE",
"1451 1314 LINE",
"1347 1314 LINE"
);
},
{
closed = 1;
nodes = (
"1347 831 LINE",
"1451 831 LINE",
"1451 927 LINE",
"1347 927 LINE"
);
},
{
closed = 1;
nodes = (
"1347 444 LINE",
"1451 444 LINE",
"1451 540 LINE",
"1347 540 LINE"
);
},
{
closed = 1;
nodes = (
"1347 56 LINE",
"1451 56 LINE",
"1451 153 LINE",
"1347 153 LINE"
);
},
{
closed = 1;
nodes = (
"1347 -331 LINE",
"1451 -331 LINE",
"1451 -234 LINE",
"1347 -234 LINE"
);
},
{
closed = 1;
nodes = (
"1347 1603 LINE",
"1451 1603 LINE",
"1451 1699 LINE",
"1347 1699 LINE"
);
}
);
width = 1451;
}
);
note = ltshade;
unicode = 2591;
},
{
glyphname = shade;
lastChange = "2025-02-05 21:35:20 +0000";
layers = (
{
layerId = "1E4AACC9-6A88-4B03-8BB8-E9E25DEE74AF";
paths = (
{
closed = 1;
nodes = (
"103 1216 LINE",
"207 1216 LINE",
"207 1314 LINE",
"103 1314 LINE"
);
},
{
closed = 1;
nodes = (
"310 1216 LINE",
"414 1216 LINE",
"414 1314 LINE",
"310 1314 LINE"
);
},
{
closed = 1;
nodes = (
"517 1216 LINE",
"621 1216 LINE",
"621 1314 LINE",
"517 1314 LINE"
);
},
{
closed = 1;
nodes = (
"725 1216 LINE",
"829 1216 LINE",
"829 1314 LINE",
"725 1314 LINE"
);
},
{
closed = 1;
nodes = (
"933 1216 LINE",
"1037 1216 LINE",
"1037 1314 LINE",
"933 1314 LINE"
);
},
{
closed = 1;
nodes = (
"1140 1216 LINE",
"1244 1216 LINE",
"1244 1314 LINE",
"1140 1314 LINE"
);
},
{
closed = 1;
nodes = (
"0 1023 LINE",
"103 1023 LINE",
"103 1119 LINE",
"0 1119 LINE"
);
},
{
closed = 1;
nodes = (
"207 1023 LINE",
"310 1023 LINE",
"310 1119 LINE",
"207 1119 LINE"
);
},
{
closed = 1;
nodes = (
"414 1023 LINE",
"517 1023 LINE",
"517 1119 LINE",
"414 1119 LINE"
);
},
{
closed = 1;
nodes = (
"621 1023 LINE",
"725 1023 LINE",
"725 1119 LINE",
"621 1119 LINE"
);
},
{
closed = 1;
nodes = (
"829 1023 LINE",
"933 1023 LINE",
"933 1119 LINE",
"829 1119 LINE"
);
},
{
closed = 1;
nodes = (
"1037 1023 LINE",
"1140 1023 LINE",
"1140 1119 LINE",
"1037 1119 LINE"
);
},
{
closed = 1;
nodes = (
"103 831 LINE",
"207 831 LINE",
"207 927 LINE",
"103 927 LINE"
);
},
{
closed = 1;
nodes = (
"310 831 LINE",
"414 831 LINE",
"414 927 LINE",
"310 927 LINE"
);
},
{
closed = 1;
nodes = (
"517 831 LINE",
"621 831 LINE",
"621 927 LINE",
"517 927 LINE"
);
},
{
closed = 1;
nodes = (
"725 831 LINE",
"829 831 LINE",
"829 927 LINE",
"725 927 LINE"
);
},
{
closed = 1;
nodes = (
"933 831 LINE",
"1037 831 LINE",
"1037 927 LINE",
"933 927 LINE"
);
},
{
closed = 1;
nodes = (
"1140 831 LINE",
"1244 831 LINE",
"1244 927 LINE",
"1140 927 LINE"
);
},
{
closed = 1;
nodes = (
"0 636 LINE",
"103 636 LINE",
"103 732 LINE",
"0 732 LINE"
);
},
{
closed = 1;
nodes = (
"207 636 LINE",
"310 636 LINE",
"310 732 LINE",
"207 732 LINE"
);
},
{
closed = 1;
nodes = (
"414 636 LINE",
"517 636 LINE",
"517 732 LINE",
"414 732 LINE"
);
},
{
closed = 1;
nodes = (
"621 636 LINE",
"725 636 LINE",
"725 732 LINE",
"621 732 LINE"
);
},
{
closed = 1;
nodes = (
"829 636 LINE",
"933 636 LINE",
"933 732 LINE",
"829 732 LINE"
);
},
{
closed = 1;
nodes = (
"1037 636 LINE",
"1140 636 LINE",
"1140 732 LINE",
"1037 732 LINE"
);
},
{
closed = 1;
nodes = (
"103 444 LINE",
"207 444 LINE",
"207 540 LINE",
"103 540 LINE"
);
},
{
closed = 1;
nodes = (
"310 444 LINE",
"414 444 LINE",
"414 540 LINE",
"310 540 LINE"
);
},
{
closed = 1;
nodes = (
"517 444 LINE",
"621 444 LINE",
"621 540 LINE",
"517 540 LINE"
);
},
{
closed = 1;
nodes = (
"725 444 LINE",
"829 444 LINE",
"829 540 LINE",
"725 540 LINE"
);
},
{
closed = 1;
nodes = (
"933 444 LINE",
"1037 444 LINE",
"1037 540 LINE",
"933 540 LINE"
);
},
{
closed = 1;
nodes = (
"1140 444 LINE",
"1244 444 LINE",
"1244 540 LINE",
"1140 540 LINE"
);
},
{
closed = 1;
nodes = (
"0 249 LINE",
"103 249 LINE",
"103 345 LINE",
"0 345 LINE"
);
},
{
closed = 1;
nodes = (
"414 249 LINE",
"517 249 LINE",
"517 345 LINE",
"414 345 LINE"
);
},
{
closed = 1;
nodes = (
"621 249 LINE",
"725 249 LINE",
"725 345 LINE",
"621 345 LINE"
);
},
{
closed = 1;
nodes = (
"829 249 LINE",
"933 249 LINE",
"933 345 LINE",
"829 345 LINE"
);
},
{
closed = 1;
nodes = (
"1037 249 LINE",
"1140 249 LINE",
"1140 345 LINE",
"1037 345 LINE"
);
},
{
closed = 1;
nodes = (
"207 249 LINE",
"310 249 LINE",
"310 345 LINE",
"207 345 LINE"
);
},
{
closed = 1;
nodes = (
"1140 56 LINE",
"1244 56 LINE",
"1244 153 LINE",
"1140 153 LINE"
);
},
{
closed = 1;
nodes = (
"933 56 LINE",
"1037 56 LINE",
"1037 153 LINE",
"933 153 LINE"
);
},
{
closed = 1;
nodes = (
"725 56 LINE",
"829 56 LINE",
"829 153 LINE",
"725 153 LINE"
);
},
{
closed = 1;
nodes = (
"517 56 LINE",
"621 56 LINE",
"621 153 LINE",
"517 153 LINE"
);
},
{
closed = 1;
nodes = (
"310 56 LINE",
"414 56 LINE",
"414 153 LINE",
"310 153 LINE"
);
},
{
closed = 1;
nodes = (
"103 56 LINE",
"207 56 LINE",
"207 153 LINE",
"103 153 LINE"
);
},
{
closed = 1;
nodes = (
"0 -136 LINE",
"103 -136 LINE",
"103 -42 LINE",
"0 -42 LINE"
);
},
{
closed = 1;
nodes = (
"207 -136 LINE",
"310 -136 LINE",
"310 -42 LINE",
"207 -42 LINE"
);
},
{
closed = 1;
nodes = (
"414 -136 LINE",
"517 -136 LINE",
"517 -42 LINE",
"414 -42 LINE"
);
},
{
closed = 1;
nodes = (
"621 -136 LINE",
"725 -136 LINE",
"725 -42 LINE",
"621 -42 LINE"
);
},
{
closed = 1;
nodes = (
"829 -136 LINE",
"933 -136 LINE",
"933 -42 LINE",
"829 -42 LINE"
);
},
{
closed = 1;
nodes = (
"1037 -136 LINE",
"1140 -136 LINE",
"1140 -42 LINE",
"1037 -42 LINE"
);
},
{
closed = 1;
nodes = (
"1140 -331 LINE",
"1244 -331 LINE",
"1244 -234 LINE",
"1140 -234 LINE"
);
},
{
closed = 1;
nodes = (
"933 -331 LINE",
"1037 -331 LINE",
"1037 -234 LINE",
"933 -234 LINE"
);
},
{
closed = 1;
nodes = (
"725 -331 LINE",
"829 -331 LINE",
"829 -234 LINE",
"725 -234 LINE"
);
},
{
closed = 1;
nodes = (
"517 -331 LINE",
"621 -331 LINE",
"621 -234 LINE",
"517 -234 LINE"
);
},
{
closed = 1;
nodes = (
"310 -331 LINE",
"414 -331 LINE",
"414 -234 LINE",
"310 -234 LINE"
);
},
{
closed = 1;
nodes = (
"103 -331 LINE",
"207 -331 LINE",
"207 -234 LINE",
"103 -234 LINE"
);
},
{
closed = 1;
nodes = (
"0 -523 LINE",
"103 -523 LINE",
"103 -427 LINE",
"0 -427 LINE"
);
},
{
closed = 1;
nodes = (
"207 -523 LINE",
"310 -523 LINE",
"310 -427 LINE",
"207 -427 LINE"
);
},
{
closed = 1;
nodes = (
"414 -523 LINE",
"517 -523 LINE",
"517 -427 LINE",
"414 -427 LINE"
);
},
{
closed = 1;
nodes = (
"621 -523 LINE",
"725 -523 LINE",
"725 -427 LINE",
"621 -427 LINE"
);
},
{
closed = 1;
nodes = (
"829 -523 LINE",
"933 -523 LINE",
"933 -427 LINE",
"829 -427 LINE"
);
},
{
closed = 1;
nodes = (
"1037 -523 LINE",
"1140 -523 LINE",
"1140 -427 LINE",
"1037 -427 LINE"
);
},
{
closed = 1;
nodes = (
"0 1408 LINE",
"103 1408 LINE",
"103 1506 LINE",
"0 1506 LINE"
);
},
{
closed = 1;
nodes = (
"207 1408 LINE",
"310 1408 LINE",
"310 1506 LINE",
"207 1506 LINE"
);
},
{
closed = 1;
nodes = (
"414 1408 LINE",
"517 1408 LINE",
"517 1506 LINE",
"414 1506 LINE"
);
},
{
closed = 1;
nodes = (
"621 1408 LINE",
"725 1408 LINE",
"725 1506 LINE",
"621 1506 LINE"
);
},
{
closed = 1;
nodes = (
"829 1408 LINE",
"933 1408 LINE",
"933 1506 LINE",
"829 1506 LINE"
);
},
{
closed = 1;
nodes = (
"1037 1408 LINE",
"1140 1408 LINE",
"1140 1506 LINE",
"1037 1506 LINE"
);
},
{
closed = 1;
nodes = (
"103 1603 LINE",
"207 1603 LINE",
"207 1699 LINE",
"103 1699 LINE"
);
},
{
closed = 1;
nodes = (
"310 1603 LINE",
"414 1603 LINE",
"414 1699 LINE",
"310 1699 LINE"
);
},
{
closed = 1;
nodes = (
"517 1603 LINE",
"621 1603 LINE",
"621 1699 LINE",
"517 1699 LINE"
);
},
{
closed = 1;
nodes = (
"725 1603 LINE",
"829 1603 LINE",
"829 1699 LINE",
"725 1699 LINE"
);
},
{
closed = 1;
nodes = (
"933 1603 LINE",
"1037 1603 LINE",
"1037 1699 LINE",
"933 1699 LINE"
);
},
{
closed = 1;
nodes = (
"1140 1603 LINE",
"1244 1603 LINE",
"1244 1699 LINE",
"1140 1699 LINE"
);
},
{
closed = 1;
nodes = (
"1347 1216 LINE",
"1451 1216 LINE",
"1451 1314 LINE",
"1347 1314 LINE"
);
},
{
closed = 1;
nodes = (
"1244 1023 LINE",
"1347 1023 LINE",
"1347 1119 LINE",
"1244 1119 LINE"
);
},
{
closed = 1;
nodes = (
"1347 831 LINE",
"1451 831 LINE",
"1451 927 LINE",
"1347 927 LINE"
);
},
{
closed = 1;
nodes = (
"1244 636 LINE",
"1347 636 LINE",
"1347 732 LINE",
"1244 732 LINE"
);
},
{
closed = 1;
nodes = (
"1347 444 LINE",
"1451 444 LINE",
"1451 540 LINE",
"1347 540 LINE"
);
},
{
closed = 1;
nodes = (
"1244 249 LINE",
"1347 249 LINE",
"1347 345 LINE",
"1244 345 LINE"
);
},
{
closed = 1;
nodes = (
"1347 56 LINE",
"1451 56 LINE",
"1451 153 LINE",
"1347 153 LINE"
);
},
{
closed = 1;
nodes = (
"1244 -136 LINE",
"1347 -136 LINE",
"1347 -42 LINE",
"1244 -42 LINE"
);
},
{
closed = 1;
nodes = (
"1347 -331 LINE",
"1451 -331 LINE",
"1451 -234 LINE",
"1347 -234 LINE"
);
},
{
closed = 1;
nodes = (
"1244 -523 LINE",
"1347 -523 LINE",
"1347 -427 LINE",
"1244 -427 LINE"
);
},
{
closed = 1;
nodes = (
"1244 1408 LINE",
"1347 1408 LINE",
"1347 1506 LINE",
"1244 1506 LINE"
);
},
{
closed = 1;
nodes = (
"1347 1603 LINE",
"1451 1603 LINE",
"1451 1699 LINE",
"1347 1699 LINE"
);
}
);
width = 1451;
}
);
note = shade;
unicode = 2592;
},
